<svg width="124" height="176" viewBox="0 0 124 176" fill="none" xmlns="http://www.w3.org/2000/svg">
<path d="M83.0503 83.0503C80.3166 85.7839 80.3166 90.2161 83.0503 92.9497L127.598 137.497C130.332 140.231 134.764 140.231 137.497 137.497C140.231 134.764 140.231 130.332 137.497 127.598L97.8995 88L137.497 48.402C140.231 45.6684 140.231 41.2362 137.497 38.5025C134.764 35.7689 130.332 35.7689 127.598 38.5025L83.0503 83.0503ZM169 95C172.866 95 176 91.866 176 88C176 84.134 172.866 81 169 81V95ZM88 95H169V81H88V95Z" fill="#33FF00"/>
<path d="M83.0503 92.9497C85.7839 95.6834 90.2161 95.6834 92.9497 92.9497L137.497 48.402C140.231 45.6684 140.231 41.2362 137.497 38.5025C134.764 35.7689 130.332 35.7689 127.598 38.5025L88 78.1005L48.402 38.5025C45.6684 35.7689 41.2362 35.7689 38.5025 38.5025C35.7689 41.2362 35.7689 45.6683 38.5025 48.402L83.0503 92.9497ZM95 7C95 3.13401 91.866 1.68988e-07 88 0C84.134 -1.68988e-07 81 3.13401 81 7L95 7ZM95 88L95 7L81 7L81 88L95 88Z" fill="#33FF00"/>
<path d="M92.9497 92.9497C95.6834 90.2161 95.6834 85.7839 92.9497 83.0503L48.402 38.5025C45.6684 35.7689 41.2362 35.7689 38.5025 38.5025C35.7689 41.2362 35.7689 45.6684 38.5025 48.402L78.1005 88L38.5025 127.598C35.7689 130.332 35.7689 134.764 38.5025 137.497C41.2362 140.231 45.6684 140.231 48.402 137.497L92.9497 92.9497ZM7 81C3.13401 81 0 84.134 0 88C0 91.866 3.13401 95 7 95V81ZM88 81H7V95H88V81Z" fill="#33FF00"/>
<path d="M92.9497 83.0503C90.2161 80.3166 85.7839 80.3166 83.0503 83.0503L38.5025 127.598C35.7689 130.332 35.7689 134.764 38.5025 137.497C41.2362 140.231 45.6683 140.231 48.402 137.497L88 97.8995L127.598 137.497C130.332 140.231 134.764 140.231 137.497 137.497C140.231 134.764 140.231 130.332 137.497 127.598L92.9497 83.0503ZM81 169C81 172.866 84.134 176 88 176C91.866 176 95 172.866 95 169L81 169ZM81 88L81 169L95 169L95 88L81 88Z" fill="black"/>
</svg>
