<svg width="720" height="449" viewBox="0 0 720 449" fill="none" xmlns="http://www.w3.org/2000/svg">
<path d="M635.289 171.584C610.432 214.006 571.406 251.91 561.057 255.767C549.773 259.962 507.78 247.086 486.905 239.55C480.07 237.081 494.046 188.882 501.413 186.397C508.78 183.912 541.326 203.695 549.16 201.775C551.627 201.178 594.989 175.86 618.799 159.917C640.98 145.055 642.833 158.707 635.289 171.584Z" fill="#AD6359"/>
<path d="M489.951 248.457L508.795 184.944C508.795 184.944 541.567 200.451 547 199.225C552.432 197.999 602.711 167.049 621.023 156.851C639.335 146.653 653.182 153.14 629.921 185.074C604.822 219.541 575.742 252.443 564.361 257.106C549.369 263.222 489.951 248.457 489.951 248.457Z" fill="#CC00FF"/>
<path d="M561.057 226.173C560.214 228.236 559.671 230.41 559.445 232.627C560.798 230.825 561.884 228.836 562.669 226.722C563.515 224.659 564.058 222.485 564.281 220.267C562.94 222.078 561.855 224.065 561.057 226.173ZM559.171 193.013L557.413 193.997C559.032 194.539 560.71 194.885 562.411 195.03C561.399 194.254 560.313 193.578 559.171 193.013ZM531.863 245.682C529.803 244.834 527.631 244.29 525.415 244.068C529.054 246.749 533.336 248.419 537.828 248.909C536.004 247.554 533.995 246.467 531.863 245.682ZM523.9 208.568C523.002 206.512 521.825 204.59 520.402 202.856C521.111 207.319 522.985 211.516 525.834 215.023C525.498 212.79 524.847 210.617 523.9 208.568ZM591.411 194.433C589.348 195.317 587.421 196.491 585.688 197.918C587.917 197.587 590.088 196.941 592.136 195.998C594.202 195.12 596.13 193.946 597.859 192.512C595.642 192.838 593.483 193.474 591.443 194.4L591.411 194.433ZM496.206 227.286L495.609 229.303C497.355 228.495 498.982 227.453 500.445 226.205C499.009 226.403 497.599 226.754 496.238 227.254L496.206 227.286Z" fill="white"/>
<path d="M505.33 247.15C506.204 244.948 506.946 242.695 507.554 240.405C508.199 238.404 508.876 236.403 509.505 234.37C510.875 229.965 512.261 225.56 513.599 221.154C514.937 216.749 516.307 212.344 517.597 207.939C518.887 203.533 520.337 199.177 521.385 194.707C521.396 194.668 521.391 194.627 521.371 194.592C521.352 194.558 521.319 194.532 521.28 194.521C521.242 194.511 521.201 194.516 521.166 194.535C521.131 194.555 521.106 194.588 521.095 194.626C519.193 198.789 517.726 203.178 516.259 207.535C514.792 211.892 513.39 216.12 512.052 220.444C510.714 224.769 509.473 229.287 508.296 233.725C507.715 235.871 507.232 238.033 506.684 240.179C506.023 242.462 505.511 244.785 505.152 247.134C505.162 247.148 505.174 247.161 505.189 247.17C505.203 247.178 505.22 247.184 505.237 247.185C505.254 247.187 505.271 247.185 505.287 247.178C505.303 247.172 505.318 247.163 505.33 247.15Z" fill="#263238"/>
<path opacity="0.1" d="M519.467 254.702C536.699 257.8 556.543 260.285 564.345 257.09C575.742 252.443 604.822 219.557 629.937 185.074C644.703 164.774 644.445 154.769 637.675 152.801L519.467 254.702Z" fill="black"/>
<path d="M505.749 325.541C507.463 332.773 511.159 339.382 516.422 344.625C521.685 349.868 528.306 353.535 535.539 355.215L527.995 323.395L543.824 313.148L562.588 315.181L570.132 347.018C575.596 342.462 579.744 336.528 582.148 329.829C584.552 323.13 585.125 315.909 583.806 308.915C582.488 301.92 579.327 295.405 574.65 290.043C569.973 284.681 563.95 280.667 557.204 278.417C550.458 276.166 543.233 275.761 536.278 277.242C529.323 278.724 522.889 282.038 517.643 286.843C512.397 291.648 508.528 297.769 506.437 304.572C504.346 311.376 504.108 318.615 505.749 325.541Z" fill="#DBDBDB"/>
<path d="M521.24 237.049C524.464 230.901 515.405 230.594 515.405 230.594C515.405 230.594 528.688 227.964 529.639 220.299C530.541 212.925 519.499 212.86 518.709 212.844C519.403 212.699 531.605 209.956 531.718 202.162C531.879 194.094 520.773 195.901 520.063 196.014C520.676 195.675 528.784 190.963 527.575 185.009C525.48 174.795 501.171 186.268 493.191 183.524L488.178 168.598C487.591 172.61 485.855 176.365 483.181 179.41C479.473 183.912 476.959 186.897 476.169 190.463C475.753 192.057 475.863 193.743 476.482 195.269C477.101 196.795 478.195 198.081 479.602 198.935C479.602 198.935 472.703 201.581 472.38 207.729C472.219 210.876 477.104 213.925 477.104 213.925C477.104 213.925 471.671 216.281 471.72 221.768C471.72 226.141 476.636 228.529 476.636 228.529C476.636 228.529 472.461 233.208 473.944 237.662C476.894 246.585 514.228 250.216 521.24 237.049Z" fill="#AD6359"/>
<path d="M491.515 180.2L488.291 168.824C488.081 168.437 487.855 168.034 487.63 167.679C479.715 154.769 460.516 152.349 463.289 162.838C465.384 170.825 478.715 175.134 479.683 183.621L491.515 180.2Z" fill="#AD6359"/>
<path d="M477.361 228.932C477.336 228.932 477.311 228.942 477.293 228.961C477.275 228.979 477.265 229.003 477.265 229.029C477.265 229.055 477.275 229.079 477.293 229.097C477.311 229.116 477.336 229.126 477.361 229.126C489.322 233.305 503.75 234.241 516.049 230.594C516.452 230.465 516.42 229.771 515.953 229.82C503.115 231.411 490.113 231.112 477.361 228.932Z" fill="#263238"/>
<path d="M476.91 213.909C476.765 213.909 476.717 214.119 476.91 214.167C489.258 218.411 505.523 219.008 519.112 213.151C519.58 212.941 519.789 212.296 519.241 212.489C509.876 215.7 488.807 216.104 476.91 213.909Z" fill="#263238"/>
<path d="M520.869 195.207C507.635 200.322 494.078 200.694 480.102 199.064C479.925 199.064 479.909 199.29 480.102 199.354C486.711 202.017 495.722 202.13 502.751 201.613C509.264 201.261 515.572 199.208 521.047 195.659C521.273 195.53 521.16 195.094 520.869 195.207Z" fill="#263238"/>
<path d="M193.891 385.729C198.566 387.52 334.232 389.989 339.551 386.956C340.132 386.617 339.971 380.63 341.969 365.123C342.066 364.381 345.193 361.509 350.029 357.442C368.181 342.226 410.818 310.13 410.818 310.13L343.114 251.249L277.506 315.794L260.434 332.576C260.434 332.576 204.998 362.541 199.517 366.462C194.036 370.384 189.232 383.938 193.891 385.729Z" fill="#AD6359"/>
<path d="M193.908 385.729C198.582 387.537 334.248 389.989 339.552 386.956C340.116 386.617 339.955 380.63 341.97 365.123C342.05 364.381 345.194 361.509 350.03 357.442C356.333 352.15 359.331 349.729 368.713 342.419L282.632 310.744L277.474 315.81L260.419 332.592C260.419 332.592 204.982 362.557 199.501 366.479C194.02 370.4 189.217 383.938 193.908 385.729Z" fill="#EBEBEB"/>
<path d="M184.558 387.682C189.265 389.295 333.813 390.909 339.02 387.682C340.245 386.923 341.357 378.532 342.244 367.011C342.357 365.575 356.993 353.86 358.992 351.682L270.429 321.829L259.242 332.35C259.242 332.35 194.053 362.719 188.717 366.85C183.381 370.981 179.835 385.955 184.558 387.682Z" fill="#CC00FF"/>
<path d="M186.557 382.195C209.27 381.905 310.004 382.873 332.475 384.309C332.652 384.309 332.652 384.455 332.475 384.455C309.907 385.245 209.237 383.535 186.557 382.567C186.073 382.55 186.073 382.212 186.557 382.195Z" fill="#263238"/>
<path d="M252.02 333.254C260.983 331.64 271.896 333.254 278.65 339.708C278.908 339.95 278.554 340.322 278.264 340.225C269.759 337.361 260.971 335.419 252.052 334.432C251.975 334.434 251.898 334.421 251.826 334.393C251.754 334.365 251.688 334.324 251.632 334.271C251.576 334.217 251.53 334.154 251.499 334.083C251.467 334.012 251.45 333.936 251.448 333.859C251.446 333.782 251.459 333.705 251.487 333.632C251.514 333.56 251.556 333.494 251.609 333.438C251.662 333.381 251.726 333.336 251.796 333.305C251.867 333.273 251.943 333.256 252.02 333.254Z" fill="#263238"/>
<path d="M245.54 337.062C254.486 335.448 265.399 337.062 272.154 343.517C272.412 343.775 272.057 344.13 271.767 344.033C263.259 341.182 254.473 339.246 245.556 338.256C245.398 338.258 245.245 338.197 245.132 338.087C245.018 337.976 244.953 337.825 244.951 337.667C244.949 337.509 245.01 337.356 245.12 337.243C245.231 337.129 245.381 337.064 245.54 337.062Z" fill="#263238"/>
<path d="M239.043 340.886C247.99 339.273 258.903 340.886 265.658 347.26C265.916 347.518 265.561 347.89 265.271 347.793C256.765 344.934 247.978 342.998 239.06 342.016C238.986 342.017 238.912 342.003 238.843 341.976C238.774 341.949 238.711 341.908 238.658 341.856C238.551 341.752 238.489 341.609 238.487 341.459C238.485 341.309 238.543 341.165 238.647 341.057C238.751 340.95 238.894 340.888 239.043 340.886Z" fill="#263238"/>
<path d="M232.547 344.694C241.494 343.081 252.407 344.694 259.161 351.149C259.419 351.391 259.064 351.762 258.774 351.665C250.267 348.815 241.48 346.878 232.563 345.889C232.405 345.891 232.252 345.83 232.139 345.719C232.026 345.609 231.961 345.458 231.959 345.3C231.956 345.141 232.017 344.988 232.128 344.875C232.238 344.762 232.389 344.697 232.547 344.694Z" fill="#263238"/>
<path d="M239.624 325.153C245.878 330.156 254.132 332.253 261.434 335.077C262.192 335.368 262.804 334.658 262.853 333.98C262.89 333.977 262.926 333.966 262.958 333.947C262.99 333.928 263.017 333.902 263.037 333.87C263.058 333.839 263.07 333.804 263.075 333.767C263.079 333.73 263.075 333.692 263.062 333.657C260.436 325.707 255.773 318.585 249.538 313.003C245.846 309.775 239.334 307.581 235.771 312.373C232.402 316.908 235.965 322.249 239.624 325.153ZM237.432 317.94C235.981 308.113 246.443 313.374 249.07 315.827C250.741 317.448 252.303 319.178 253.745 321.006C256.792 324.766 259.258 328.881 261.902 332.899C258.371 331.285 254.744 329.994 251.166 328.526C246.91 326.767 238.238 323.362 237.432 317.94Z" fill="#263238"/>
<path d="M293.046 320.377C290.95 314.778 284.067 315.133 279.634 317.15C272.086 320.786 265.63 326.353 260.918 333.286C260.896 333.318 260.882 333.354 260.877 333.392C260.872 333.43 260.875 333.468 260.888 333.505C260.901 333.541 260.922 333.574 260.949 333.6C260.977 333.627 261.011 333.646 261.047 333.657C260.991 333.823 260.975 334.001 261 334.174C261.026 334.348 261.093 334.512 261.196 334.655C261.299 334.797 261.434 334.913 261.59 334.992C261.747 335.071 261.92 335.111 262.095 335.11C269.93 334.432 278.393 334.69 285.792 331.64C290.16 329.801 294.996 325.67 293.046 320.377ZM273.702 331.672C269.865 332.092 266.012 332.318 262.176 332.883C265.835 329.768 269.349 326.428 273.315 323.733C275.21 322.384 277.192 321.161 279.247 320.07C282.471 318.457 293.964 316.278 289.838 325.331C287.629 330.236 278.36 331.108 273.766 331.608L273.702 331.672Z" fill="#263238"/>
<path d="M276.522 312.212L360.201 355.619C360.201 355.619 447.394 276.551 455.309 276.034C463.224 275.518 580.594 355.102 639.642 355.361C700.801 355.619 703.896 291.477 703.896 291.477L614.688 270.967C550.369 239.243 483.374 182.217 439.56 187.559C392.054 193.335 276.522 312.212 276.522 312.212Z" fill="#37474F"/>
<path d="M276.522 312.212L360.201 355.619C360.201 355.619 447.394 276.551 455.309 276.034C463.224 275.518 580.594 355.102 639.642 355.361C700.801 355.619 703.896 291.477 703.896 291.477L614.688 270.967C550.369 239.243 483.374 182.217 439.56 187.559C392.054 193.335 276.522 312.212 276.522 312.212Z" fill="#37474F"/>
<path d="M296.963 301.159C311.084 308.146 307.118 305.999 321.143 313.083C328.026 316.585 362.636 334.061 368.503 338.385C368.529 338.41 368.545 338.441 368.551 338.476C368.557 338.511 368.551 338.546 368.534 338.577C368.518 338.608 368.492 338.633 368.46 338.648C368.428 338.663 368.393 338.667 368.358 338.66C361.443 336.336 327.22 318.118 320.417 314.455C306.49 307.048 310.568 309.033 296.721 301.546C296.67 301.514 296.633 301.463 296.62 301.404C296.606 301.345 296.616 301.283 296.648 301.231C296.681 301.18 296.732 301.143 296.791 301.13C296.85 301.116 296.911 301.127 296.963 301.159Z" fill="#263238"/>
<path d="M375.032 335.61C391.394 321.087 444.993 274.146 447.169 272.404C448.864 270.792 450.741 269.383 452.762 268.208C453.597 267.88 454.496 267.747 455.39 267.82C456.284 267.892 457.15 268.169 457.921 268.628C460.403 269.789 462.757 271.048 465.288 272.258L479.796 279.342C498.559 288.508 517.194 297.899 536.087 306.774C554.254 315.294 567.231 323.314 586.204 329.865C605.066 336.53 624.576 341.187 644.413 343.759C646.863 344.065 649.249 344.323 651.764 344.549C651.941 344.549 651.941 344.84 651.764 344.824C632.297 343.677 613.05 340.093 594.473 334.157C575.661 328.381 562.91 320.861 545.066 312.648C526.56 304.112 508.312 294.994 490.08 285.926C480.408 281.085 470.833 276.244 461.177 271.564C458.985 270.483 455.874 268.16 453.375 269.305C452.328 269.892 451.359 270.607 450.49 271.435L447.266 274.114C443.139 277.567 377.418 334.222 375.274 335.852C375.096 336.045 374.871 335.739 375.032 335.61Z" fill="#263238"/>
<path d="M322.706 336.174L433.499 291.687C405.192 314.858 360.201 355.619 360.201 355.619L322.706 336.174Z" fill="#263238"/>
<path d="M703.961 291.477C703.961 291.477 700.865 355.619 639.706 355.361C588.38 355.151 492.837 294.93 463.66 279.52L560.976 240.486C578.708 251.346 596.859 262.125 614.769 270.967L703.961 291.477Z" fill="#263238"/>
<path d="M703.961 291.477C703.961 291.477 712.891 356.765 683.005 378.21C653.118 399.655 441.462 387.569 409.803 375.757C378.143 363.945 379.417 311.986 415.074 301.53C448.926 291.574 591.346 292.3 594.925 291.057C595.811 290.734 582.69 282.053 582.77 281.569L611.383 265.255L703.961 291.477Z" fill="#37474F"/>
<path d="M661.629 295.059C661.629 294.817 662.065 294.914 662.048 295.059C661.761 301.783 663.837 308.395 667.916 313.745C672.591 319.635 679.7 323.152 686.132 326.767C686.744 327.106 686.228 328.09 685.584 327.864C681.598 326.444 677.782 324.588 674.203 322.33C670.903 320.386 668.038 317.782 665.788 314.681C663.782 311.874 662.376 308.682 661.661 305.305C660.945 301.928 660.934 298.44 661.629 295.059Z" fill="#263238"/>
<path d="M597.488 285.038C599.1 283.231 600.712 281.504 602.324 279.762C606.128 275.599 609.964 271.435 613.93 267.45C614.317 267.062 614.994 267.659 614.639 268.063C611.931 271.29 609.094 274.421 606.289 277.567L601.953 282.408C600.451 283.835 599.096 285.408 597.907 287.104C596.827 288.927 598.068 290.557 599.97 290.847C601.672 290.963 603.355 290.427 604.677 289.347C607.659 286.921 610.406 284.22 612.882 281.279C614.483 279.633 616.095 277.992 617.718 276.357C619.443 274.63 621.281 272.984 622.989 271.258C623.102 271.145 623.312 271.258 623.199 271.452C621.684 273.356 620.265 275.357 618.75 277.261C617.235 279.165 615.671 281.053 614.107 282.924C612.544 284.796 611.093 286.426 609.529 288.12C608.215 289.619 606.663 290.889 604.935 291.88C602.114 293.381 597.326 293.494 596.021 289.895C595.81 289.028 595.835 288.121 596.093 287.267C596.351 286.413 596.833 285.643 597.488 285.038Z" fill="#263238"/>
<path d="M414.155 376.144C425.214 376.838 436.24 377.968 447.282 378.694C458.324 379.42 469.221 379.952 480.199 380.307C502.251 381.082 524.314 381.2 546.388 380.662C568.682 380.098 592.749 378.952 614.962 376.854C625.585 375.87 636.353 375.112 646.88 373.337C656.345 371.961 665.22 367.907 672.462 361.654C687.373 348.406 693.837 328.235 696.981 308.84C697.4 306.242 697.771 303.627 698.093 301.013C698.103 300.985 698.121 300.96 698.146 300.943C698.17 300.925 698.2 300.916 698.23 300.916C698.26 300.916 698.289 300.925 698.314 300.943C698.339 300.96 698.357 300.985 698.367 301.013C696.191 320.942 692.161 341.661 678.894 357.168C673.281 363.948 665.98 369.124 657.728 372.175C647.67 375.709 636.643 376.144 626.149 377.096C603.855 379.13 579.692 380.324 557.317 381.13C534.942 381.937 512.278 381.986 489.758 381.308C467.238 380.63 444.751 379.339 422.328 377.242C419.588 376.983 416.863 376.709 414.139 376.338C414.119 376.353 414.095 376.361 414.071 376.363C414.046 376.364 414.021 376.359 414 376.347C413.978 376.335 413.96 376.317 413.949 376.295C413.937 376.273 413.932 376.248 413.934 376.223C413.936 376.199 413.945 376.175 413.96 376.155C413.975 376.136 413.996 376.121 414.019 376.113C414.043 376.104 414.068 376.103 414.092 376.108C414.116 376.114 414.138 376.127 414.155 376.144Z" fill="#263238"/>
<path d="M487.646 294.171C494.658 293.445 501.654 292.752 508.683 292.332C515.711 291.912 522.9 291.59 530.009 291.299C544.066 290.734 558.171 290.283 572.244 290.25C580.304 290.25 588.219 290.541 596.198 290.993C596.456 290.993 596.408 291.38 596.198 291.396C582.093 292.041 568.004 292.3 553.899 292.622C539.794 292.945 525.754 293.542 511.681 294.236C503.702 294.639 495.738 294.865 487.759 295.172C487.13 295.22 487.066 294.22 487.646 294.171Z" fill="#263238"/>
<path d="M581.11 280.762C586.615 283.429 591.884 286.56 596.859 290.121C601.949 293.478 606.797 297.187 611.367 301.223C611.496 301.352 611.367 301.497 611.174 301.433C605.822 298.657 600.696 295.253 595.618 291.993C590.469 288.798 585.516 285.296 580.788 281.505C580.417 281.182 580.659 280.552 581.11 280.762Z" fill="#263238"/>
<path d="M583.641 285.474L708.119 299.852C708.119 297.302 683.359 171.922 651.216 152.462C645.042 148.718 633.967 148.944 624.086 157.981C606.112 174.391 582.029 283.78 583.641 285.474Z" fill="#CC00FF"/>
<path d="M662.677 163.983C660.691 164.85 658.835 165.991 657.164 167.372C659.393 167.046 661.564 166.404 663.612 165.468H663.709C663.338 165 663.016 164.451 662.677 163.983ZM640.528 250.087C638.469 250.976 636.548 252.155 634.822 253.589C637.052 253.27 639.224 252.628 641.27 251.684C643.331 250.789 645.257 249.61 646.993 248.183C644.757 248.501 642.58 249.143 640.528 250.087ZM695.707 246.44C695.237 246.771 694.785 247.127 694.353 247.505C694.885 247.505 695.401 247.344 695.965 247.231C695.852 246.973 695.788 246.698 695.707 246.44ZM589.412 255.444C589.202 256.364 588.993 257.252 588.783 258.139C589.487 259.485 590.342 260.746 591.33 261.899C591.007 259.666 590.36 257.491 589.412 255.444ZM664.757 216.798C663.865 214.737 662.693 212.809 661.275 211.069C661.595 213.301 662.235 215.475 663.177 217.524C664.063 219.582 665.235 221.506 666.659 223.236C666.339 221.009 665.698 218.841 664.757 216.798ZM634.564 151.558L634.258 151.671L634.661 152.155C634.644 151.954 634.612 151.754 634.564 151.558ZM615.043 225.705C612.983 224.857 610.811 224.313 608.595 224.091C612.234 226.772 616.516 228.442 621.007 228.932C619.183 227.577 617.175 226.49 615.043 225.705ZM705.685 287.281L704.235 286.668C702.172 285.829 700.001 285.286 697.787 285.054C699.577 286.416 701.56 287.504 703.67 288.282C704.476 288.588 705.282 288.863 706.121 289.105C705.959 288.524 705.831 287.911 705.685 287.281ZM668.4 270.306C667.556 272.369 667.013 274.543 666.788 276.76C669.451 273.116 671.118 268.839 671.624 264.352C670.268 266.17 669.182 268.176 668.4 270.306ZM617.638 279.568C616.792 281.63 616.249 283.805 616.026 286.023C618.668 282.368 620.308 278.084 620.781 273.598C619.455 275.428 618.397 277.438 617.638 279.568ZM631.163 189.931C630.302 192.016 629.759 194.219 629.551 196.466C630.883 194.65 631.968 192.663 632.775 190.56C633.612 188.495 634.154 186.322 634.387 184.105C633.046 185.893 631.961 187.859 631.163 189.947V189.931Z" fill="white"/>
<path d="M664.853 161.466C687.985 179.216 748.935 251.265 736.184 268.353C723.433 285.442 636.127 279.746 610.641 272.387C603.065 270.209 622.522 221.929 630.598 219.541C637.336 217.556 675.138 227.819 675.831 225.624C676.605 223.155 668.222 207.197 654.714 178.022C639.142 144.394 654.633 153.591 664.853 161.466Z" fill="#AD6359"/>
<path d="M593.361 211.166C575.887 211.618 571.47 214.393 556.527 206.954C546.726 202.114 539.391 206.228 546.049 215.491C556.962 230.627 579.611 234.854 587.88 233.967L593.361 211.166Z" fill="#AD6359"/>
<path d="M641.431 220.122C641.431 220.122 620.475 212.634 601.824 211.263C588.928 210.311 560.605 211.392 538.601 243.164C533.395 250.716 531.299 265.158 544.276 255.944C553.512 249.393 557.381 242.454 563.442 239.631C563.442 239.631 562.959 258.317 570.712 263.254C577.482 267.584 584.556 271.418 591.878 274.727C592.788 273.525 593.617 272.263 594.36 270.951C594.36 270.951 602.034 274.872 614.704 271.516L641.431 220.122Z" fill="#AD6359"/>
<path d="M589.363 212.328C583.947 216.41 572.599 225.237 565.828 235.71C558.3 247.328 546.952 271.742 555.576 277.212C561.911 281.214 567.053 272.275 567.053 272.275C567.053 272.275 564.49 283.36 571.003 285.732C576.935 287.895 580.497 280.73 580.497 280.73C580.497 280.73 580.094 287.733 586.204 288.701C593.555 289.879 593.2 275.034 601.663 269.79C603.565 268.612 589.363 212.328 589.363 212.328Z" fill="#AD6359"/>
<path d="M579.417 241.615C574.952 246.279 567.521 259.511 566.924 272.032C566.924 272.307 567.118 272.468 567.182 272.21C570.053 261.572 574.199 251.321 579.53 241.68C579.53 241.68 579.466 241.567 579.417 241.615Z" fill="#263238"/>
<path d="M590.911 249.554C587.477 253.976 580.417 267.95 580.255 280.649C580.255 280.94 580.465 281.085 580.529 280.827C582.84 270.061 586.361 259.592 591.024 249.619L590.911 249.554Z" fill="#263238"/>
<path d="M563.426 239.518C558.123 242.083 554.963 245.407 550.804 249.458C548.767 251.49 546.614 253.403 544.356 255.186C542.293 256.8 539.262 259.204 536.522 257.671C535.861 257.169 535.347 256.498 535.035 255.729C534.723 254.959 534.624 254.119 534.749 253.298C535.051 250.924 535.731 248.615 536.764 246.456C536.764 246.376 536.651 246.295 536.619 246.376C535.602 248.352 534.791 250.429 534.201 252.572C533.823 254.04 533.901 255.588 534.426 257.009C535.748 259.946 539.424 259.753 541.858 258.478C543.292 257.667 544.642 256.716 545.888 255.638C547.097 254.637 548.274 253.572 549.418 252.491C551.772 250.264 553.996 247.909 556.317 245.649C558.588 243.517 560.989 241.528 563.507 239.695C563.518 239.679 563.525 239.66 563.527 239.641C563.529 239.621 563.526 239.601 563.517 239.583C563.509 239.565 563.497 239.55 563.481 239.538C563.465 239.527 563.446 239.52 563.426 239.518Z" fill="#263238"/>
<path d="M555.011 261.044C557.397 253.73 560.251 246.577 563.555 239.631L563.426 239.55C559.767 244.391 554.608 256.461 553.561 260.237C552.513 264.013 551.417 268.692 552.045 272.549C553.013 278.374 557.043 278.826 558.493 278.874C560.244 278.916 561.954 278.345 563.329 277.261C564.92 275.889 566.21 274.202 567.118 272.307C567.118 272.21 567.037 272.129 566.989 272.21C565.377 274.84 562.378 277.664 559.154 277.761C558.445 277.811 557.733 277.718 557.06 277.488C556.387 277.258 555.767 276.895 555.237 276.421C554.142 275.165 553.535 273.555 553.528 271.887C553.406 268.215 553.908 264.548 555.011 261.044Z" fill="#263238"/>
<path d="M641.431 220.122L623.844 281.182C623.844 281.182 733.025 287.41 739.07 267.563C745.115 247.715 692.418 182.75 670.592 164.903C645.235 144.216 643.881 152.898 652.134 173.601C660.775 195.272 675.653 226.205 675.653 226.205L641.431 220.122Z" fill="#CC00FF"/>
<path d="M668.4 270.306C667.556 272.369 667.013 274.543 666.788 276.76C669.451 273.116 671.118 268.839 671.624 264.352C670.268 266.17 669.182 268.176 668.4 270.306ZM694.562 202.711C692.499 201.875 690.328 201.331 688.114 201.097C689.907 202.455 691.89 203.543 693.998 204.324C696.061 205.163 698.232 205.707 700.446 205.938C698.647 204.589 696.666 203.503 694.562 202.711ZM735.781 263.529C734.909 261.459 733.73 259.533 732.283 257.816C732.618 260.045 733.258 262.217 734.185 264.271C735.073 266.337 736.251 268.266 737.683 269.999C737.367 267.761 736.726 265.582 735.781 263.529ZM700.059 244.068C698.54 244.745 697.083 245.555 695.707 246.489C695.237 246.819 694.785 247.175 694.353 247.554C694.885 247.554 695.401 247.392 695.965 247.279C697.625 246.899 699.245 246.358 700.801 245.666C702.863 244.779 704.789 243.606 706.524 242.18C704.287 242.486 702.109 243.122 700.059 244.068ZM640.528 250.135C638.469 251.024 636.547 252.203 634.822 253.637C637.052 253.318 639.224 252.677 641.27 251.733C643.331 250.837 645.257 249.659 646.992 248.231C644.76 248.534 642.582 249.16 640.528 250.087V250.135ZM667.368 162.337C665.838 162.751 664.344 163.29 662.903 163.951L662.709 164.048C660.723 164.915 658.867 166.056 657.196 167.437C659.425 167.11 661.596 166.469 663.644 165.532H663.741C665.288 164.844 666.766 164.012 668.158 163.047L667.368 162.337Z" fill="white"/>
<path d="M710.102 236C704.648 233.449 699.019 231.292 693.257 229.545C687.554 227.843 681.735 226.554 675.847 225.689C672.494 225.172 669.109 224.801 665.74 224.43C665.643 224.43 665.627 224.575 665.74 224.591C671.657 225.478 677.519 226.706 683.295 228.271C689.055 229.777 694.772 231.39 700.446 233.111C703.67 234.08 706.894 235.193 710.038 236.339C710.167 236.274 710.231 236 710.102 236Z" fill="#263238"/>
<path d="M641.689 219.864C642.237 219.864 672.607 224.704 673.623 224.947C673.429 224.543 665.74 210.069 664.595 207.955C664.467 207.745 664.37 207.535 664.257 207.309C663.564 206.406 662.871 205.486 662.226 204.55L659.727 200.919C660.614 202.097 661.5 203.259 662.371 204.437C662.774 204.986 663.161 205.534 663.548 206.051C662.79 204.55 662.032 203.033 661.291 201.517C660.082 199.112 658.97 196.676 657.857 194.207C657.857 194.126 657.954 194.078 657.986 194.207C660.259 198.434 662.645 202.565 664.934 206.777C667.223 210.989 675.847 226.463 675.799 226.447C675.751 226.431 642.237 220.509 641.592 220.348C641.528 220.335 641.472 220.297 641.435 220.243C641.399 220.188 641.386 220.121 641.399 220.057C641.412 219.993 641.449 219.937 641.504 219.9C641.558 219.864 641.625 219.851 641.689 219.864Z" fill="#263238"/>
<path d="M645.864 257.187C647.782 250.377 649.636 243.536 651.812 236.791C653.037 232.966 654.262 229.126 655.52 225.302C655.52 225.156 655.826 225.221 655.794 225.302C654.182 232.224 652.457 239.163 650.49 246.005C648.524 252.846 646.638 259.624 644.574 266.417C643.414 270.274 642.14 274.066 640.738 277.858C640.738 277.858 640.593 277.858 640.609 277.858C642.027 270.903 643.929 264.061 645.864 257.187Z" fill="#263238"/>
<path d="M622.683 282.36C623.441 280.439 624.295 277.696 625.214 275.824C625.424 275.324 625.794 275.357 625.633 275.824C625.085 277.535 624.714 279.423 624.199 281.182C625.714 281.182 627.245 281.182 628.777 281.311L634.08 281.537C637.53 281.682 640.996 281.779 644.445 281.843C651.463 281.972 658.475 281.972 665.482 281.843C679.537 281.581 693.57 280.59 707.523 278.874C711.424 278.374 715.325 277.793 719.194 277.099C722.994 276.471 726.76 275.652 730.478 274.647C730.503 274.647 730.528 274.657 730.546 274.675C730.564 274.693 730.574 274.718 730.574 274.743C730.574 274.769 730.564 274.794 730.546 274.812C730.528 274.83 730.503 274.84 730.478 274.84C727.333 276.064 724.1 277.046 720.806 277.777C717.324 278.535 713.826 279.197 710.295 279.729C703.283 280.811 696.223 281.521 689.146 282.037C675.122 283.059 661.07 283.484 646.992 283.312C643.043 283.312 639.11 283.183 635.16 283.037C633.177 283.037 631.195 282.908 629.212 282.795C627.229 282.682 622.554 282.682 622.683 282.36Z" fill="#263238"/>
<path d="M629.873 177.328C636.998 178.942 649.217 168.05 654.053 159.207C654.375 158.594 653.44 152.22 652.65 144.41C652.183 139.682 651.78 134.389 651.764 129.532C651.764 128.548 621.394 137.036 621.394 137.036C623.153 143.097 624.165 149.35 624.408 155.657C624.398 156.324 624.328 156.988 624.198 157.642V157.981C623.489 161.773 622.989 175.731 629.873 177.328Z" fill="#AD6359"/>
<path d="M649.829 129.677C648.459 137.875 643.381 157.706 627.261 158.142C626.222 158.166 625.182 158.112 624.15 157.981C624.132 157.868 624.132 157.754 624.15 157.642C624.28 156.988 624.35 156.324 624.36 155.657C624.118 149.35 623.106 143.096 621.345 137.036C621.345 137.036 643.188 130.904 649.829 129.677Z" fill="#263238"/>
<path d="M661.21 97.8565C662.709 108.974 652.118 138.633 643.478 144.216C630.937 152.284 612.85 150.316 606.66 135.809C600.599 121.754 615.091 83.3337 624.521 78.5251C638.352 71.409 659.001 81.4297 661.21 97.8565Z" fill="#AD6359"/>
<path d="M628.39 110.846C628.39 110.846 628.519 111.008 628.486 111.088C627.648 113.041 627.036 115.429 628.583 116.768C628.583 116.768 628.583 116.914 628.583 116.881C626.455 115.736 627.294 112.573 628.39 110.846Z" fill="#263238"/>
<path d="M630.953 109.458C634.177 110.443 632.033 116.946 628.986 116.026C625.94 115.106 628.212 108.636 630.953 109.458Z" fill="#263238"/>
<path d="M616.654 107.216C616.654 107.135 616.461 107.216 616.445 107.345C615.816 109.378 614.833 111.605 612.721 111.653V111.766C615.026 112.202 616.397 109.249 616.654 107.216Z" fill="#263238"/>
<path d="M615.574 104.505C612.431 103.165 609.981 109.555 612.882 110.814C615.784 112.073 618.218 105.634 615.574 104.505Z" fill="#263238"/>
<path d="M634.322 107.248C633.502 106.793 632.706 106.298 631.936 105.763C631.033 105.182 630.324 104.811 629.792 103.779C629.708 103.479 629.723 103.161 629.833 102.871C629.943 102.58 630.144 102.333 630.405 102.165C630.99 101.911 631.632 101.815 632.266 101.889C632.9 101.963 633.504 102.203 634.016 102.584C635.163 103.213 636.04 104.241 636.482 105.473C636.529 105.753 636.501 106.04 636.401 106.305C636.302 106.571 636.134 106.806 635.915 106.986C635.696 107.166 635.433 107.285 635.153 107.331C634.874 107.377 634.587 107.348 634.322 107.248Z" fill="#263238"/>
<path d="M614.172 100.099C615.103 100.217 616.039 100.287 616.977 100.309C617.955 100.516 618.974 100.397 619.878 99.9704C620.138 99.7841 620.329 99.5162 620.419 99.2092C620.51 98.9022 620.495 98.5738 620.378 98.276C620.054 97.7127 619.582 97.2484 619.014 96.9328C618.446 96.6173 617.803 96.4624 617.154 96.4849C615.858 96.2956 614.538 96.6071 613.463 97.3562C613.251 97.5544 613.097 97.806 613.016 98.0844C612.935 98.3629 612.931 98.6579 613.004 98.9386C613.076 99.2194 613.223 99.4753 613.429 99.6796C613.634 99.8838 613.891 100.029 614.172 100.099Z" fill="#263238"/>
<path d="M623.844 130.145C623.236 130.582 622.495 130.793 621.748 130.742C621.005 130.477 620.328 130.053 619.765 129.5C619.765 129.5 619.62 129.5 619.637 129.581C619.787 130.074 620.069 130.517 620.452 130.861C620.836 131.205 621.306 131.438 621.813 131.533C622.259 131.571 622.706 131.475 623.097 131.256C623.487 131.038 623.804 130.707 624.005 130.307C624.134 130.194 623.989 130.097 623.844 130.145Z" fill="#263238"/>
<path d="M623.844 123.4C623.064 124.025 622.162 124.482 621.197 124.74C620.231 124.998 619.222 125.053 618.234 124.901C617.371 124.778 616.53 124.534 615.736 124.175C615.578 124.116 615.426 124.04 615.284 123.949L614.881 123.739C614.782 123.683 614.703 123.596 614.656 123.491C614.61 123.387 614.598 123.27 614.623 123.158C614.646 123.084 614.678 123.014 614.72 122.949V122.787C615.204 121.173 616.155 118.914 616.155 118.914C615.494 119.011 612.173 119.318 612.496 118.527C615.045 111.613 618.285 104.974 622.168 98.7117C622.195 98.6747 622.235 98.6486 622.28 98.6384C622.325 98.6281 622.372 98.6343 622.413 98.6557C622.453 98.6771 622.485 98.7123 622.502 98.7551C622.52 98.7979 622.521 98.8455 622.506 98.8892C620.185 105.344 616.751 111.25 614.317 117.64C615.505 117.517 616.704 117.561 617.88 117.769C618.073 117.898 615.961 122.19 615.8 122.9C615.804 122.927 615.804 122.954 615.8 122.981C617.026 123.538 618.351 123.843 619.696 123.879C621.042 123.915 622.381 123.681 623.635 123.191C623.844 123.045 624.021 123.287 623.844 123.4Z" fill="#263238"/>
<path d="M616.929 123.691C617.4 125.085 618.222 126.336 619.314 127.321C619.927 127.834 620.68 128.149 621.475 128.225C623.232 128.338 623.764 126.886 623.909 125.514C623.994 124.796 623.994 124.07 623.909 123.352C621.679 124.213 619.231 124.331 616.929 123.691Z" fill="#263238"/>
<path d="M619.314 127.321C619.927 127.834 620.68 128.149 621.475 128.225C623.232 128.338 623.764 126.886 623.909 125.514C623.051 125.257 622.133 125.296 621.3 125.623C620.467 125.951 619.768 126.549 619.314 127.321Z" fill="#FF9ABB"/>
<path d="M653.44 120.141C648.604 119.253 649.991 108.071 649.991 108.071C649.991 108.071 637.32 109.071 640.319 92.9187C640.319 92.9187 625.279 94.7906 617.476 88.3199C610.819 82.8012 609.416 69.2951 616.348 62.8567C620.281 59.2099 629.712 57.0314 640.222 72.1512C640.222 72.1512 659.388 63.8894 661.645 85.496C661.645 85.496 670.157 88.2876 669.512 96.9851C668.496 110.717 657.696 120.915 653.44 120.141Z" fill="#263238"/>
<path d="M640.528 91.7892C640.536 91.7733 640.546 91.759 640.559 91.7472C640.572 91.7353 640.587 91.7261 640.604 91.7202C640.62 91.7142 640.638 91.7115 640.655 91.7122C640.673 91.713 640.69 91.7172 640.706 91.7246C640.722 91.7321 640.736 91.7425 640.748 91.7555C640.759 91.7684 640.769 91.7835 640.775 91.8C640.781 91.8165 640.783 91.834 640.783 91.8515C640.782 91.8691 640.778 91.8863 640.77 91.9022C639.239 95.6781 637.627 99.7928 640.093 103.585C641.203 105.38 642.868 106.763 644.835 107.523C646.802 108.284 648.964 108.38 650.99 107.796C651.232 107.716 651.377 108.103 651.119 108.168C649.14 108.749 647.033 108.729 645.064 108.112C643.096 107.494 641.355 106.306 640.061 104.698C636.869 100.745 638.11 95.7749 640.528 91.7892Z" fill="#263238"/>
<path d="M653.569 117.591C660.888 115.494 667.046 110.879 669.157 103.214C670.328 99.5955 670.103 95.6699 668.529 92.2088C666.917 89.0944 663.983 87.4808 661.468 85.2701C661.468 85.2701 661.468 85.0926 661.549 85.141C678.265 93.0963 669.963 116.01 653.763 118.479C653.658 118.476 653.558 118.438 653.478 118.371C653.397 118.305 653.342 118.213 653.319 118.111C653.297 118.009 653.31 117.902 653.355 117.808C653.4 117.714 653.476 117.637 653.569 117.591Z" fill="#263238"/>
<path d="M614.075 62.5501C623.505 53.5783 636.643 63.5183 640.56 73.0549C636.756 65.7128 627.439 57.3703 618.685 60.8397C608.111 65.0351 608.594 82.8013 619.088 86.6579C619.395 86.7708 619.234 87.3194 618.895 87.2226C609.03 84.4471 607.079 69.2144 614.075 62.5501Z" fill="#263238"/>
<path d="M650.313 121.625C650.313 121.625 659.018 113.041 663.048 116.333C667.078 119.624 659.243 132.953 653.634 133.921C652.923 134.097 652.184 134.127 651.461 134.009C650.738 133.892 650.046 133.629 649.427 133.237C648.809 132.845 648.275 132.332 647.86 131.729C647.444 131.125 647.154 130.444 647.008 129.726L650.313 121.625Z" fill="#AD6359"/>
<path d="M660.711 120.092V120.238C656.745 121.044 654.182 124.11 652.167 127.402C652.45 127.074 652.8 126.811 653.194 126.631C653.587 126.451 654.015 126.357 654.448 126.357C654.881 126.357 655.309 126.451 655.702 126.631C656.096 126.811 656.446 127.074 656.729 127.402C656.745 127.422 656.755 127.446 656.756 127.471C656.757 127.496 656.749 127.521 656.734 127.542C656.719 127.562 656.698 127.577 656.674 127.584C656.649 127.591 656.623 127.589 656.6 127.58C655.988 127.256 655.292 127.129 654.606 127.216C653.919 127.303 653.276 127.599 652.764 128.064C651.923 128.849 651.167 129.719 650.507 130.662C650.265 130.968 649.701 130.662 649.894 130.323V130.242C650.716 125.53 655.585 119.641 660.711 120.092Z" fill="#263238"/>
<path d="M608.917 297.657H479.989V303.434H608.917V297.657Z" fill="#C7C7C7"/>
<path d="M479.989 297.657V303.434H567.634L563.217 297.657H479.989Z" fill="#A6A6A6"/>
<path d="M557.655 303.434H432L421.538 218.008H547.194L557.655 303.434Z" fill="#A6A6A6"/>
<path d="M551.868 303.434H426.197L415.735 218.008H541.406L551.868 303.434Z" fill="#C7C7C7"/>
<path d="M491.467 259.833C491.643 260.779 491.629 261.751 491.425 262.691C491.222 263.632 490.834 264.522 490.283 265.311C489.732 266.1 489.03 266.77 488.218 267.285C487.405 267.799 486.498 268.145 485.551 268.305C483.6 268.459 481.667 267.845 480.162 266.595C478.657 265.344 477.699 263.555 477.491 261.608C477.314 260.664 477.328 259.693 477.53 258.754C477.732 257.814 478.119 256.924 478.668 256.136C479.217 255.347 479.917 254.676 480.728 254.161C481.539 253.646 482.444 253.298 483.39 253.137C485.341 252.987 487.274 253.601 488.781 254.851C490.288 256.1 491.251 257.887 491.467 259.833Z" fill="white"/>
<path d="M159.927 288.75C159.927 288.75 187.492 282.489 202.596 268.563C217.701 254.637 226.148 229.658 226.148 229.658C215.673 231.653 205.344 234.348 195.23 237.727C191.446 241.625 188.292 246.089 185.88 250.958C185.646 247.811 185.646 244.65 185.88 241.502C182.346 243.025 179.042 245.035 176.063 247.473C163.457 258.591 159.927 288.75 159.927 288.75Z" fill="#CC00FF"/>
<path d="M208.931 241.793C212.687 239.195 216.507 236.678 220.215 234.064C220.264 234.034 220.3 233.985 220.313 233.929C220.327 233.873 220.318 233.814 220.288 233.765C220.258 233.716 220.209 233.681 220.154 233.667C220.098 233.653 220.039 233.663 219.989 233.692C212.897 237.936 205.884 242.471 199.033 247.231C196.664 248.845 194.359 250.603 192.053 252.362L192.537 251.555C193.359 250.168 194.246 248.812 195.116 247.441C196.841 244.676 198.799 242.063 200.968 239.631C201.048 239.534 200.968 239.405 200.823 239.502C198.679 241.97 196.535 244.423 194.584 247.053C193.649 248.312 192.779 249.603 191.957 250.926C191.538 251.604 191.118 252.298 190.715 253.008L190.312 253.718C186.75 256.525 183.268 259.446 179.963 262.528C177.916 264.432 175.95 266.417 174.047 268.45C175.111 265.11 176.03 261.737 177.271 258.446C177.271 258.333 177.126 258.284 177.094 258.446C175.885 261.899 174.579 265.368 173.644 268.902C171.495 271.193 169.485 273.565 167.616 276.018L167.712 275.566C168.035 274.275 168.357 272.968 168.696 271.677C169.373 269.192 170.098 266.708 170.952 264.255C172.534 259.174 175.043 254.43 178.351 250.265C178.432 250.168 178.351 250.039 178.206 250.135C173.045 256.579 169.437 264.128 167.664 272.194C167.358 273.372 167.084 274.55 166.81 275.728C166.681 276.357 166.503 277.002 166.407 277.648C165.568 278.761 164.795 279.907 163.972 281.069C159.271 288.259 155.359 295.936 152.302 303.966C148.866 312.994 145.918 322.2 143.468 331.543C143.468 331.721 143.693 331.785 143.758 331.543C149.142 315.407 154.655 299.029 163.876 284.587C165.826 281.545 167.93 278.604 170.179 275.776C174.807 275.499 179.377 274.604 183.768 273.114C188.502 271.536 193.019 269.367 197.212 266.659C199.592 265.039 201.89 263.299 204.095 261.447C204.114 261.43 204.126 261.406 204.128 261.38C204.129 261.354 204.12 261.329 204.103 261.31C204.086 261.291 204.062 261.279 204.036 261.277C204.011 261.276 203.985 261.285 203.966 261.302C200.125 264.412 195.878 266.986 191.344 268.95C186.885 270.999 182.222 272.567 177.433 273.63C175.401 274.066 173.338 274.405 171.275 274.679C173.803 271.534 176.493 268.523 179.335 265.659C180.27 264.739 181.221 263.851 182.188 262.948C185.397 260.691 188.808 258.736 192.376 257.106C196.889 254.912 201.339 252.604 205.804 250.329C208.335 249.038 210.833 247.731 213.38 246.489C213.477 246.489 213.38 246.279 213.283 246.327C208.754 248.522 204.143 250.555 199.565 252.653C195.261 254.638 190.909 256.622 186.782 258.93L186.266 259.252C189.99 256.025 193.859 252.895 197.824 249.91C201.457 247.091 205.159 244.386 208.931 241.793Z" fill="#263238"/>
<path d="M207.368 256.025C205.127 257.01 202.838 257.881 200.614 258.914C198.389 259.946 196.181 261.237 194.004 262.512C193.908 262.512 194.004 262.706 194.101 262.657C196.293 261.608 198.518 260.624 200.694 259.527C202.87 258.43 205.127 257.203 207.416 256.203C207.529 256.154 207.481 255.977 207.368 256.025Z" fill="#263238"/>
<path d="M70.3799 149.703C75.4717 156.279 78.3549 164.3 78.6172 172.616C78.6172 175.085 78.3109 178.538 78.0208 182.589C84.9021 186.583 90.9984 191.8 96.0107 197.983C90.5125 194.779 84.1949 193.264 77.8434 193.626C77.9791 196.397 78.3294 199.154 78.8912 201.872C82.8995 201.875 86.8688 202.659 90.5782 204.179C86.9573 204.144 83.3681 204.858 80.0358 206.277C84.9524 221.929 99.5571 238.001 139.889 244.827C144.171 225.638 141.646 205.555 132.748 188.027C120.658 164.225 70.3799 149.703 70.3799 149.703Z" fill="#CC00FF"/>
<path d="M153.849 311.841C153.156 305.16 152.237 298.48 151.238 291.848C149.223 278.547 146.533 265.357 143.178 252.33C141.603 246.215 139.66 240.201 137.359 234.322C137.476 233.25 137.53 232.172 137.52 231.094C137.52 229.804 137.52 228.513 137.52 227.222C137.52 224.64 137.359 222.058 137.149 219.476C136.741 214.371 135.911 209.308 134.666 204.34C133.925 201.468 133.054 198.628 132.232 195.788C132.225 195.771 132.212 195.756 132.197 195.746C132.181 195.735 132.163 195.73 132.144 195.73C132.125 195.73 132.106 195.735 132.091 195.746C132.075 195.756 132.063 195.771 132.055 195.788C133.39 200.754 134.381 205.806 135.021 210.908C135.744 215.931 136.201 220.989 136.391 226.06C136.391 227.448 136.391 228.835 136.391 230.223C136.391 230.804 136.391 231.401 136.391 231.998C134.414 227.175 132.148 222.477 129.605 217.927C125.496 210.715 120.868 203.812 115.758 197.273C115.734 196.514 115.621 195.761 115.419 195.03L114.839 192.319C114.42 190.479 113.952 188.64 113.453 186.816C112.453 183.153 111.131 179.62 109.987 176.005C109.987 175.892 109.777 176.005 109.809 176.005C110.873 179.571 111.583 183.282 112.405 186.929C112.808 188.72 113.195 190.528 113.598 192.335C113.791 193.222 113.985 194.126 114.162 195.03V195.239C112.55 193.174 110.938 191.141 109.165 189.14C101.459 180.104 93.0446 171.761 84.5172 163.483C83.4694 162.467 82.4054 161.482 81.2932 160.466C81.2126 160.385 81.0836 160.466 81.1642 160.611C89.2242 169.099 97.2842 177.667 104.861 186.655C106.666 188.785 108.423 190.947 110.164 193.11L107.424 191.286C105.07 189.753 102.701 188.252 100.25 186.881C97.8 185.509 95.4143 184.17 92.819 182.927C90.2236 181.685 87.4671 180.604 84.9685 179.135C84.8718 179.135 84.7751 179.264 84.8879 179.313C87.4344 180.492 89.8912 181.857 92.2386 183.395C94.705 184.848 97.0746 186.316 99.5571 187.849C102.04 189.382 104.313 190.834 106.666 192.367C108.633 193.642 110.567 195.03 112.598 196.208C117.271 202.22 121.577 208.508 125.494 215.039C127.939 219.149 130.172 223.383 132.184 227.722L130.733 227.093L127.042 225.479L119.901 222.365C115.387 220.396 110.793 218.589 106.344 216.427C103.841 215.251 101.423 213.903 99.1058 212.392C99.009 212.392 98.9284 212.489 99.1058 212.57C107.375 218.266 116.644 222.252 125.8 226.35L129.766 228.093C130.846 228.577 131.942 229.126 132.99 229.545C135.694 235.613 137.973 241.862 139.809 248.247C143.415 261.106 146.342 274.147 148.578 287.314C150.899 300.497 152.463 313.777 153.672 327.106C153.817 328.72 153.962 330.43 154.156 332.092C154.177 332.215 154.242 332.327 154.337 332.408C154.433 332.488 154.554 332.532 154.679 332.532C154.805 332.532 154.926 332.488 155.021 332.408C155.117 332.327 155.182 332.215 155.203 332.092C155.252 325.299 154.559 318.521 153.849 311.841Z" fill="#263238"/>
<path d="M129.315 200.306C128.573 196.192 127.477 192.238 126.381 188.156C126.381 188.043 126.171 188.156 126.204 188.156C127.219 192.093 127.945 196.111 128.686 200.129C129.428 204.147 130.105 208.294 130.685 212.409H130.798C130.528 208.35 130.033 204.31 129.315 200.306Z" fill="#263238"/>
<path d="M111.937 211.424C109.131 209.579 106.201 207.929 103.168 206.487C101.685 205.728 100.202 205.002 98.7187 204.276C97.2356 203.55 95.4947 202.92 94.06 202.146C94.0365 202.133 94.0088 202.13 93.9831 202.138C93.9574 202.145 93.9358 202.163 93.923 202.186C93.9102 202.21 93.9072 202.237 93.9147 202.263C93.9223 202.289 93.9398 202.311 93.9633 202.323C95.4463 203.05 96.8488 203.937 98.2996 204.744C99.7504 205.551 101.266 206.357 102.765 207.197C105.715 208.81 108.616 210.537 111.711 211.828C111.765 211.858 111.828 211.865 111.887 211.849C111.946 211.832 111.996 211.792 112.026 211.739C112.056 211.685 112.063 211.622 112.047 211.563C112.03 211.504 111.991 211.454 111.937 211.424Z" fill="#263238"/>
<path opacity="0.1" d="M160.426 240.954C160.426 240.954 185.928 234.854 197.647 217.734C208.819 201.371 212.446 173.488 212.72 171.035C212.268 173.278 206.997 197.66 189.636 209.004C176.337 217.701 163.489 224.85 160.426 240.954Z" fill="#263238"/>
<path d="M183.961 196.837C179.43 201.015 176.172 206.391 174.563 212.344C176.432 206.528 179.672 201.248 184.01 196.95C184.171 196.902 184.042 196.756 183.961 196.837Z" fill="#263238"/>
<path d="M160.426 240.954C160.426 240.954 185.928 234.854 197.647 217.734C208.819 201.371 212.446 173.488 212.72 171.035C212.727 170.976 212.727 170.916 212.72 170.857C212.72 170.857 200.501 188.269 187.637 192.706C174.773 197.144 156.735 212.505 160.426 240.954Z" fill="#CC00FF"/>
<path d="M208.238 180.459C205.949 185.15 203.314 189.664 200.356 193.965C197.377 198.035 193.845 201.668 189.862 204.76C186.396 207.519 182.737 210.02 179.222 212.715C179.225 212.672 179.225 212.629 179.222 212.586C179.878 211.618 180.571 210.666 181.302 209.73C182.769 207.858 184.365 206.099 185.977 204.357C189.201 200.92 192.425 197.547 195.213 193.819C196.799 191.765 198.171 189.553 199.308 187.22C199.308 187.107 199.179 187.058 199.131 187.22C194.988 195.853 186.734 201.371 180.834 208.665C179.991 209.696 179.205 210.774 178.481 211.892C177.889 212.696 177.397 213.568 177.014 214.49C173.782 217.075 170.861 220.026 168.309 223.284C168.533 221.612 168.872 219.956 169.325 218.331C169.925 216.064 170.836 213.892 172.033 211.876C172.033 211.779 171.936 211.682 171.872 211.779C170.635 213.808 169.64 215.974 168.906 218.234C168.372 220.029 168.058 221.882 167.971 223.752C166.714 225.464 165.568 227.253 164.537 229.11C164.634 228.561 164.747 228.029 164.843 227.496C165.359 224.947 165.923 222.413 166.568 219.896C167.767 214.783 169.845 209.918 172.71 205.518C172.72 205.508 172.728 205.495 172.733 205.481C172.737 205.468 172.739 205.453 172.737 205.438C172.735 205.424 172.73 205.41 172.722 205.397C172.714 205.385 172.703 205.375 172.691 205.367C172.678 205.36 172.664 205.355 172.65 205.354C172.635 205.353 172.62 205.355 172.607 205.36C172.593 205.365 172.581 205.373 172.571 205.384C172.561 205.395 172.553 205.408 172.549 205.422C169.617 209.758 167.331 214.498 165.762 219.492C164.94 221.994 164.295 224.543 163.715 227.109C163.441 228.367 163.183 229.626 162.941 230.901C162.828 231.546 162.683 232.208 162.57 232.886C160.047 238.45 158.076 244.249 156.687 250.2C154.185 260.83 152.371 271.609 151.254 282.473C149.96 293.828 149.395 305.254 149.562 316.682C149.562 318.118 149.674 319.554 149.739 320.974C149.739 321.345 150.319 321.41 150.335 320.974C150.593 315.31 150.738 309.679 151.077 303.966C151.415 298.254 151.899 292.671 152.495 287.007C153.663 275.913 155.439 264.891 157.815 253.992C159.878 244.665 162.57 235.274 167.664 227.093C170.196 223.02 173.295 219.331 176.869 216.136C180.448 212.909 184.349 210.101 188.153 207.132C191.969 204.229 195.436 200.893 198.486 197.192C201.588 193.066 204.287 188.651 206.546 184.009C207.142 182.847 207.771 181.701 208.384 180.555C208.448 180.459 208.287 180.362 208.238 180.459Z" fill="#263238"/>
<path d="M203.837 184.202C202.159 187.641 200.258 190.967 198.147 194.158C198.147 194.158 198.147 194.304 198.26 194.239C200.447 191.078 202.371 187.742 204.015 184.267C204.063 184.154 203.886 184.105 203.837 184.202Z" fill="#263238"/>
<path d="M66.8174 229.658C66.8174 229.658 66.4144 265.949 88.0958 276.454C109.777 286.959 121.384 278.197 136.117 281.714C135.537 280.843 125.027 265.723 108.31 261.56C91.0941 257.219 72.0403 244.778 66.8174 229.658Z" fill="#CC00FF"/>
<path opacity="0.1" d="M66.8174 229.658C66.8174 229.658 66.4144 265.949 88.0958 276.454C109.777 286.959 121.384 278.197 136.117 281.714C128.336 278.004 120.017 275.548 111.47 274.437C97.7839 272.742 71.6695 263.819 66.8174 229.658Z" fill="black"/>
<path d="M137.536 282.327C134.974 279.976 132.085 278.008 128.96 276.486C128.492 276.26 128.025 276.083 127.541 275.873C127.317 275.584 127.074 275.309 126.816 275.05C126.171 274.372 125.494 273.711 124.785 273.097C123.406 271.904 121.928 270.83 120.368 269.886C116.789 267.772 112.856 266.304 109.181 264.335C109.068 264.335 108.971 264.448 109.084 264.497C110.905 265.449 112.662 266.482 114.42 267.514C116.177 268.547 117.901 269.483 119.562 270.564C121.069 271.532 122.502 272.611 123.85 273.791C124.237 274.13 124.607 274.485 124.978 274.856C122.588 274.063 120.149 273.427 117.676 272.952C113.71 272.162 109.616 271.581 105.731 270.742C103.792 270.301 101.877 269.762 99.9921 269.128C98.1867 267.676 96.3974 266.24 94.6887 264.658C92.6212 262.823 90.737 260.791 89.0628 258.591C89.0628 258.494 88.821 258.591 88.9016 258.688C91.5291 262.245 94.5045 265.532 97.7837 268.499C96.8487 268.144 95.9299 267.772 95.011 267.353C87.5705 264.004 81.1835 258.688 76.5375 251.975C76.5375 251.878 76.3119 251.975 76.3763 252.072C80.326 257.83 85.4115 262.717 91.3196 266.433C94.2869 268.28 97.4564 269.78 100.766 270.903C104.61 272.095 108.531 273.023 112.501 273.678C116.384 274.297 120.22 275.186 123.979 276.341C127.45 277.514 130.715 279.229 133.651 281.424C139.137 285.733 143.551 291.256 146.547 297.56C150.427 305.929 152.848 314.902 153.704 324.088C153.704 324.476 154.349 324.476 154.317 324.088C153.349 308.791 149.287 292.913 137.536 282.327Z" fill="#263238"/>
<path d="M112.389 270.5C111.279 268.812 109.774 267.421 108.004 266.449C105.945 265.387 104.141 263.889 102.717 262.06C102.636 261.963 102.475 262.06 102.556 262.157C103.85 263.825 105.433 265.246 107.23 266.353C109.199 267.399 110.932 268.838 112.324 270.58C112.308 270.661 112.437 270.58 112.389 270.5Z" fill="#263238"/>
<path d="M123.882 309.114L124.866 329.058L127.896 390.022H173.355L176.385 329.058L177.368 309.114H123.882Z" fill="#455A64"/>
<path d="M123.882 309.114L124.866 329.058H176.385L177.368 309.114H123.882Z" fill="#263238"/>
<path d="M120.707 319.812H180.56V300.771H120.707V319.812Z" fill="#455A64"/>
</svg>
