<svg width="45" height="502" viewBox="0 0 45 502" fill="none" xmlns="http://www.w3.org/2000/svg">
<path d="M27.1078 35.6863L41.9578 0H47.3078L32.4578 35.6863H27.1078Z" fill="#33FF00"/>
<path d="M13.7289 35.6863L28.5789 0H33.9289L19.0789 35.6863H13.7289Z" fill="#33FF00"/>
<path d="M0.349976 35.6863L15.2 0H20.55L5.69998 35.6863H0.349976Z" fill="#33FF00"/>
<path d="M27.1078 107.457L41.9578 71.7712H47.3078L32.4578 107.457H27.1078Z" fill="#33FF00"/>
<path d="M13.7289 107.457L28.5789 71.7712H33.9289L19.0789 107.457H13.7289Z" fill="#33FF00"/>
<path d="M0.349976 107.457L15.2 71.7712H20.55L5.69998 107.457H0.349976Z" fill="#33FF00"/>
<path d="M27.1078 179.229L41.9578 143.542H47.3078L32.4578 179.229H27.1078Z" fill="#33FF00"/>
<path d="M13.7289 179.229L28.5789 143.542H33.9289L19.0789 179.229H13.7289Z" fill="#33FF00"/>
<path d="M0.349976 179.229L15.2 143.542H20.55L5.69998 179.229H0.349976Z" fill="#33FF00"/>
<path d="M27.1078 251L41.9578 215.314H47.3078L32.4578 251H27.1078Z" fill="#33FF00"/>
<path d="M13.7289 251L28.5789 215.314H33.9289L19.0789 251H13.7289Z" fill="#33FF00"/>
<path d="M0.349976 251L15.2 215.314H20.55L5.69998 251H0.349976Z" fill="#33FF00"/>
<path d="M27.1078 322.771L41.9578 287.085H47.3078L32.4578 322.771H27.1078Z" fill="#33FF00"/>
<path d="M13.7289 322.771L28.5789 287.085H33.9289L19.0789 322.771H13.7289Z" fill="#33FF00"/>
<path d="M0.349976 322.771L15.2 287.085H20.55L5.69998 322.771H0.349976Z" fill="#33FF00"/>
<path d="M27.1078 394.542L41.9578 358.856H47.3078L32.4578 394.542H27.1078Z" fill="#33FF00"/>
<path d="M13.7289 394.542L28.5789 358.856H33.9289L19.0789 394.542H13.7289Z" fill="#33FF00"/>
<path d="M0.349976 394.542L15.2 358.856H20.55L5.69998 394.542H0.349976Z" fill="#33FF00"/>
<path d="M27.1078 466.314L41.9578 430.627H47.3078L32.4578 466.314H27.1078Z" fill="#33FF00"/>
<path d="M13.7289 466.314L28.5789 430.627H33.9289L19.0789 466.314H13.7289Z" fill="#33FF00"/>
<path d="M0.349976 466.314L15.2 430.627H20.55L5.69998 466.314H0.349976Z" fill="#33FF00"/>
<path d="M27.1078 35.6864L41.9578 71.3727H47.3078L32.4578 35.6864H27.1078Z" fill="#33FF00"/>
<path d="M13.7289 35.6864L28.5789 71.3727H33.9289L19.0789 35.6864H13.7289Z" fill="#33FF00"/>
<path d="M0.349976 35.6864L15.2 71.3727H20.55L5.69998 35.6864H0.349976Z" fill="#33FF00"/>
<path d="M27.1078 107.458L41.9578 143.144H47.3078L32.4578 107.458H27.1078Z" fill="#33FF00"/>
<path d="M13.7289 107.458L28.5789 143.144H33.9289L19.0789 107.458H13.7289Z" fill="#33FF00"/>
<path d="M0.349976 107.458L15.2 143.144H20.55L5.69998 107.458H0.349976Z" fill="#33FF00"/>
<path d="M27.1078 179.229L41.9578 214.915H47.3078L32.4578 179.229H27.1078Z" fill="#33FF00"/>
<path d="M13.7289 179.229L28.5789 214.915H33.9289L19.0789 179.229H13.7289Z" fill="#33FF00"/>
<path d="M0.349976 179.229L15.2 214.915H20.55L5.69998 179.229H0.349976Z" fill="#33FF00"/>
<path d="M27.1078 251L41.9578 286.686H47.3078L32.4578 251H27.1078Z" fill="#33FF00"/>
<path d="M13.7289 251L28.5789 286.686H33.9289L19.0789 251H13.7289Z" fill="#33FF00"/>
<path d="M0.349976 251L15.2 286.686H20.55L5.69998 251H0.349976Z" fill="#33FF00"/>
<path d="M27.1078 394.543L41.9578 430.229H47.3078L32.4578 394.543H27.1078Z" fill="#33FF00"/>
<path d="M13.7289 394.543L28.5789 430.229H33.9289L19.0789 394.543H13.7289Z" fill="#33FF00"/>
<path d="M0.349976 394.543L15.2 430.229H20.55L5.69998 394.543H0.349976Z" fill="#33FF00"/>
<path d="M27.1078 322.771L41.9578 358.458H47.3078L32.4578 322.771H27.1078Z" fill="#33FF00"/>
<path d="M13.7289 322.771L28.5789 358.458H33.9289L19.0789 322.771H13.7289Z" fill="#33FF00"/>
<path d="M0.349976 322.771L15.2 358.458H20.55L5.69998 322.771H0.349976Z" fill="#33FF00"/>
<path d="M27.1078 466.314L41.9578 502H47.3078L32.4578 466.314H27.1078Z" fill="#33FF00"/>
<path d="M13.7289 466.314L28.5789 502H33.9289L19.0789 466.314H13.7289Z" fill="#33FF00"/>
<path d="M0.349976 466.314L15.2 502H20.55L5.69998 466.314H0.349976Z" fill="#33FF00"/>
</svg>
