<svg width="147" height="49" viewBox="0 0 147 49" fill="none" xmlns="http://www.w3.org/2000/svg">
<g clip-path="url(#clip0_194_963)">
<path d="M-570.457 39.64C-571.657 39.64 -572.791 39.4667 -573.857 39.12C-574.924 38.8 -575.884 38.3067 -576.737 37.64C-577.591 36.9467 -578.311 36.0933 -578.897 35.08C-579.484 34.0667 -579.884 32.88 -580.098 31.52L-574.938 29.44C-574.884 30.16 -574.737 30.8267 -574.497 31.44C-574.257 32.0533 -573.924 32.5867 -573.497 33.04C-573.071 33.4933 -572.564 33.8533 -571.977 34.12C-571.364 34.3867 -570.671 34.52 -569.897 34.52C-568.511 34.52 -567.337 34.1867 -566.377 33.52C-565.417 32.8267 -564.937 31.8933 -564.937 30.72C-564.937 29.7333 -565.284 28.9067 -565.977 28.24C-566.671 27.5733 -567.871 26.9067 -569.577 26.24L-570.977 25.68C-571.751 25.3867 -572.497 25.0267 -573.217 24.6C-573.911 24.1467 -574.524 23.6133 -575.057 23C-575.591 22.3867 -576.017 21.68 -576.337 20.88C-576.657 20.0533 -576.817 19.12 -576.817 18.08C-576.817 16.88 -576.564 15.7733 -576.057 14.76C-575.524 13.72 -574.804 12.84 -573.897 12.12C-572.991 11.3733 -571.924 10.7867 -570.697 10.36C-569.444 9.93333 -568.097 9.72 -566.657 9.72C-565.191 9.72 -563.937 9.92 -562.897 10.32C-561.857 10.72 -561.004 11.2267 -560.337 11.84C-559.644 12.4533 -559.111 13.12 -558.737 13.84C-558.364 14.5333 -558.111 15.2 -557.977 15.84L-562.937 17.72C-563.124 16.8667 -563.564 16.1467 -564.257 15.56C-564.924 14.9733 -565.911 14.68 -567.217 14.68C-567.751 14.68 -568.271 14.76 -568.777 14.92C-569.284 15.0533 -569.737 15.2533 -570.137 15.52C-570.537 15.7867 -570.857 16.12 -571.097 16.52C-571.337 16.92 -571.457 17.3733 -571.457 17.88C-571.457 18.76 -571.137 19.4933 -570.497 20.08C-569.831 20.64 -568.817 21.1733 -567.457 21.68L-565.777 22.28C-563.857 23 -562.337 23.9733 -561.217 25.2C-560.071 26.4267 -559.497 28.0667 -559.497 30.12C-559.497 31.5067 -559.764 32.7867 -560.297 33.96C-560.831 35.1067 -561.577 36.1067 -562.537 36.96C-563.497 37.7867 -564.657 38.44 -566.017 38.92C-567.351 39.4 -568.831 39.64 -570.457 39.64ZM-528.89 10.68L-541.37 22.6L-532.85 38.68L-532.93 39H-539.25L-545.69 26.72L-549.73 30.6L-551.21 39H-556.61L-551.53 10.36H-546.13L-548.29 22.48H-547.97L-535.49 10.36H-528.81L-528.89 10.68ZM-524.772 10.36H-519.372L-524.452 39H-529.852L-524.772 10.36ZM-513.6 10.36H-508.2L-512.4 33.88H-500.24L-501.16 39H-518.68L-513.6 10.36ZM-492.233 10.36H-486.833L-491.033 33.88H-478.873L-479.793 39H-497.313L-492.233 10.36ZM-415.271 39H-420.511L-422.591 25.16L-422.871 22.04H-423.191L-424.551 25.16L-431.431 39H-436.711L-439.551 10.36H-433.911L-432.471 27.08L-432.351 30.16H-432.031L-430.631 27.08L-424.351 14.2H-419.231L-417.351 27.08L-417.071 30.12H-416.751L-415.631 27.08L-408.471 10.36H-402.671L-415.271 39ZM-390.297 39.64C-392.217 39.64 -394.004 39.32 -395.657 38.68C-397.284 38.04 -398.697 37.1467 -399.897 36C-401.097 34.8267 -402.044 33.4267 -402.737 31.8C-403.404 30.1467 -403.737 28.32 -403.737 26.32C-403.737 24.08 -403.324 21.96 -402.497 19.96C-401.671 17.9333 -400.511 16.1733 -399.017 14.68C-397.524 13.16 -395.737 11.96 -393.657 11.08C-391.551 10.1733 -389.231 9.72 -386.697 9.72C-384.697 9.72 -382.871 10.0533 -381.217 10.72C-379.564 11.3867 -378.151 12.32 -376.977 13.52C-375.804 14.6933 -374.897 16.0933 -374.257 17.72C-373.591 19.3467 -373.257 21.12 -373.257 23.04C-373.257 25.28 -373.671 27.4 -374.497 29.4C-375.324 31.4 -376.484 33.16 -377.977 34.68C-379.471 36.2 -381.271 37.4133 -383.377 38.32C-385.457 39.2 -387.764 39.64 -390.297 39.64ZM-389.737 34.52C-388.217 34.52 -386.791 34.2267 -385.457 33.64C-384.124 33.0267 -382.964 32.2133 -381.977 31.2C-380.964 30.1867 -380.164 29.0133 -379.577 27.68C-378.991 26.3467 -378.697 24.9333 -378.697 23.44C-378.697 22.1333 -378.924 20.96 -379.377 19.92C-379.804 18.8533 -380.404 17.9467 -381.177 17.2C-381.951 16.4533 -382.857 15.88 -383.897 15.48C-384.937 15.0533 -386.057 14.84 -387.257 14.84C-388.831 14.84 -390.284 15.1467 -391.617 15.76C-392.951 16.3733 -394.124 17.2 -395.137 18.24C-396.124 19.2533 -396.897 20.4267 -397.457 21.76C-398.017 23.0933 -398.297 24.48 -398.297 25.92C-398.297 27.2267 -398.084 28.4133 -397.657 29.48C-397.204 30.52 -396.591 31.4133 -395.817 32.16C-395.044 32.9067 -394.137 33.4933 -393.097 33.92C-392.057 34.32 -390.937 34.52 -389.737 34.52ZM-366.647 10.36H-357.207C-355.847 10.36 -354.607 10.5733 -353.487 11C-352.367 11.4 -351.407 11.96 -350.607 12.68C-349.807 13.4 -349.194 14.24 -348.767 15.2C-348.34 16.16 -348.127 17.2 -348.127 18.32C-348.127 19.5467 -348.327 20.68 -348.727 21.72C-349.127 22.7333 -349.674 23.64 -350.367 24.44C-351.034 25.24 -351.82 25.9067 -352.727 26.44C-353.634 26.9733 -354.607 27.36 -355.647 27.6L-355.727 27.88L-350.127 38.68L-350.207 39H-356.087L-361.607 28.24H-364.407L-366.327 39H-371.727L-366.647 10.36ZM-358.527 23.28C-357.087 23.28 -355.9 22.92 -354.967 22.2C-354.034 21.4533 -353.567 20.3333 -353.567 18.84C-353.567 17.8267 -353.914 16.9867 -354.607 16.32C-355.274 15.6533 -356.207 15.32 -357.407 15.32H-362.167L-363.567 23.28H-358.527ZM-319.202 10.68L-331.682 22.6L-323.162 38.68L-323.242 39H-329.562L-336.002 26.72L-340.042 30.6L-341.522 39H-346.922L-341.842 10.36H-336.442L-338.602 22.48H-338.282L-325.802 10.36H-319.122L-319.202 10.68ZM-271.139 10.36H-265.739L-269.939 33.88H-257.779L-258.699 39H-276.219L-271.139 10.36ZM-249.772 10.36H-244.372L-249.452 39H-254.852L-249.772 10.36ZM-238.6 10.36H-220.44L-221.36 15.48H-234.12L-235.36 22.44H-223.88L-224.76 27.56H-236.24L-238.28 39H-243.68L-238.6 10.36ZM-215.295 39L-211.135 15.48H-219.135L-218.215 10.36H-196.815L-197.735 15.48H-205.735L-209.895 39H-215.295ZM-146.161 39.64C-147.361 39.64 -148.494 39.4667 -149.561 39.12C-150.627 38.8 -151.587 38.3067 -152.441 37.64C-153.294 36.9467 -154.014 36.0933 -154.601 35.08C-155.187 34.0667 -155.587 32.88 -155.801 31.52L-150.641 29.44C-150.587 30.16 -150.441 30.8267 -150.201 31.44C-149.961 32.0533 -149.627 32.5867 -149.201 33.04C-148.774 33.4933 -148.267 33.8533 -147.681 34.12C-147.067 34.3867 -146.374 34.52 -145.601 34.52C-144.214 34.52 -143.041 34.1867 -142.081 33.52C-141.121 32.8267 -140.641 31.8933 -140.641 30.72C-140.641 29.7333 -140.987 28.9067 -141.681 28.24C-142.374 27.5733 -143.574 26.9067 -145.281 26.24L-146.681 25.68C-147.454 25.3867 -148.201 25.0267 -148.921 24.6C-149.614 24.1467 -150.227 23.6133 -150.761 23C-151.294 22.3867 -151.721 21.68 -152.041 20.88C-152.361 20.0533 -152.521 19.12 -152.521 18.08C-152.521 16.88 -152.267 15.7733 -151.761 14.76C-151.227 13.72 -150.507 12.84 -149.601 12.12C-148.694 11.3733 -147.627 10.7867 -146.401 10.36C-145.147 9.93333 -143.801 9.72 -142.361 9.72C-140.894 9.72 -139.641 9.92 -138.601 10.32C-137.561 10.72 -136.707 11.2267 -136.041 11.84C-135.347 12.4533 -134.814 13.12 -134.441 13.84C-134.067 14.5333 -133.814 15.2 -133.681 15.84L-138.641 17.72C-138.827 16.8667 -139.267 16.1467 -139.961 15.56C-140.627 14.9733 -141.614 14.68 -142.921 14.68C-143.454 14.68 -143.974 14.76 -144.481 14.92C-144.987 15.0533 -145.441 15.2533 -145.841 15.52C-146.241 15.7867 -146.561 16.12 -146.801 16.52C-147.041 16.92 -147.161 17.3733 -147.161 17.88C-147.161 18.76 -146.841 19.4933 -146.201 20.08C-145.534 20.64 -144.521 21.1733 -143.161 21.68L-141.481 22.28C-139.561 23 -138.041 23.9733 -136.921 25.2C-135.774 26.4267 -135.201 28.0667 -135.201 30.12C-135.201 31.5067 -135.467 32.7867 -136.001 33.96C-136.534 35.1067 -137.281 36.1067 -138.241 36.96C-139.201 37.7867 -140.361 38.44 -141.721 38.92C-143.054 39.4 -144.534 39.64 -146.161 39.64ZM-106.073 34.48C-106.979 35.4133 -107.886 36.2 -108.793 36.84C-109.699 37.48 -110.646 38.0133 -111.633 38.44C-112.619 38.8667 -113.673 39.1733 -114.793 39.36C-115.913 39.5467 -117.126 39.64 -118.433 39.64C-120.246 39.64 -121.939 39.3333 -123.513 38.72C-125.086 38.1067 -126.459 37.2267 -127.633 36.08C-128.806 34.9333 -129.739 33.5467 -130.433 31.92C-131.099 30.2667 -131.433 28.4133 -131.433 26.36C-131.433 24.12 -131.006 22 -130.153 20C-129.299 17.9733 -128.113 16.2 -126.593 14.68C-125.073 13.16 -123.259 11.96 -121.153 11.08C-119.046 10.1733 -116.726 9.72 -114.193 9.72C-111.766 9.72 -109.686 10.16 -107.953 11.04C-106.219 11.92 -104.833 13.12 -103.793 14.64L-108.113 18.16C-108.886 17.12 -109.806 16.3067 -110.873 15.72C-111.939 15.1333 -113.286 14.84 -114.913 14.84C-116.433 14.84 -117.859 15.1333 -119.193 15.72C-120.526 16.3067 -121.699 17.1067 -122.713 18.12C-123.726 19.1333 -124.526 20.32 -125.113 21.68C-125.699 23.04 -125.993 24.5067 -125.993 26.08C-125.993 27.36 -125.793 28.52 -125.393 29.56C-124.966 30.6 -124.393 31.4933 -123.673 32.24C-122.953 32.96 -122.099 33.52 -121.113 33.92C-120.126 34.32 -119.046 34.52 -117.873 34.52C-116.166 34.52 -114.646 34.1733 -113.313 33.48C-111.979 32.76 -110.713 31.8 -109.513 30.6L-106.073 34.48ZM-89.6978 10.36H-83.3778L-77.6578 39H-83.4178L-84.6578 32.16H-95.5778L-99.1778 39H-105.298L-89.6978 10.36ZM-85.5778 27.2L-86.8978 20L-87.2978 16.56H-87.6178L-89.2178 20L-93.0178 27.2H-85.5778ZM-69.225 10.36H-63.825L-68.025 33.88H-55.865L-56.785 39H-74.305L-69.225 10.36ZM-43.3778 15.48L-44.5378 22.12H-33.0578L-33.9778 27.24H-45.4578L-46.6578 33.88H-33.8578L-34.7778 39H-52.9378L-47.8578 10.36H-29.6978L-30.6178 15.48H-43.3778ZM20.9622 23.28H35.0022V24.48C35.0022 26.7733 34.5489 28.88 33.6422 30.8C32.7622 32.72 31.6022 34.3333 30.1622 35.64C28.7489 36.92 27.1089 37.9067 25.2422 38.6C23.4022 39.2933 21.4289 39.64 19.3222 39.64C17.2689 39.64 15.3889 39.3067 13.6822 38.64C12.0022 37.9733 10.5489 37.04 9.32219 35.84C8.12219 34.64 7.17552 33.2133 6.48219 31.56C5.81552 29.88 5.48219 28.04 5.48219 26.04C5.48219 23.88 5.89552 21.8133 6.72219 19.84C7.54885 17.8667 8.72219 16.1333 10.2422 14.64C11.7622 13.1467 13.5755 11.96 15.6822 11.08C17.8155 10.1733 20.1889 9.72 22.8022 9.72C25.2022 9.72 27.3089 10.1467 29.1222 11C30.9355 11.8267 32.4022 12.96 33.5222 14.4L29.2422 18.04C28.5755 17.1067 27.6422 16.3467 26.4422 15.76C25.2422 15.1467 23.8289 14.84 22.2022 14.84C20.6555 14.84 19.1889 15.1067 17.8022 15.64C16.4422 16.1467 15.2555 16.88 14.2422 17.84C13.2289 18.8 12.4155 19.96 11.8022 21.32C11.2155 22.6533 10.9222 24.1467 10.9222 25.8C10.9222 27.16 11.1355 28.3867 11.5622 29.48C12.0155 30.5467 12.6289 31.4533 13.4022 32.2C14.2022 32.9467 15.1222 33.52 16.1622 33.92C17.2289 34.32 18.3755 34.52 19.6022 34.52C22.3222 34.52 24.5489 33.76 26.2822 32.24C26.9222 31.7067 27.4555 31.08 27.8822 30.36C28.3089 29.6133 28.6689 28.7867 28.9622 27.88H20.1622L20.9622 23.28ZM42.025 10.36H51.465C52.825 10.36 54.065 10.5733 55.185 11C56.305 11.4 57.265 11.96 58.065 12.68C58.865 13.4 59.4783 14.24 59.905 15.2C60.3317 16.16 60.545 17.2 60.545 18.32C60.545 19.5467 60.345 20.68 59.945 21.72C59.545 22.7333 58.9983 23.64 58.305 24.44C57.6383 25.24 56.8517 25.9067 55.945 26.44C55.0383 26.9733 54.065 27.36 53.025 27.6L52.945 27.88L58.545 38.68L58.465 39H52.585L47.065 28.24H44.265L42.345 39H36.945L42.025 10.36ZM50.145 23.28C51.585 23.28 52.7717 22.92 53.705 22.2C54.6383 21.4533 55.105 20.3333 55.105 18.84C55.105 17.8267 54.7583 16.9867 54.065 16.32C53.3983 15.6533 52.465 15.32 51.265 15.32H46.505L45.105 23.28H50.145ZM74.9897 10.36H81.3097L87.0297 39H81.2697L80.0297 32.16H69.1097L65.5097 39H59.3897L74.9897 10.36ZM79.1097 27.2L77.7897 20L77.3897 16.56H77.0697L75.4697 20L71.6697 27.2H79.1097ZM95.4625 10.36H104.583C106.689 10.36 108.556 10.68 110.183 11.32C111.809 11.9333 113.169 12.8 114.263 13.92C115.356 15.0133 116.183 16.3333 116.743 17.88C117.303 19.4 117.583 21.08 117.583 22.92C117.583 25.0533 117.183 27.0933 116.383 29.04C115.609 30.96 114.476 32.6667 112.983 34.16C111.516 35.6267 109.729 36.8 107.623 37.68C105.516 38.56 103.129 39 100.463 39H90.3825L95.4625 10.36ZM100.743 33.88C102.449 33.88 104.009 33.6133 105.423 33.08C106.836 32.5467 108.036 31.8133 109.023 30.88C110.036 29.9467 110.809 28.8533 111.343 27.6C111.903 26.3467 112.183 24.9867 112.183 23.52C112.183 20.9333 111.503 18.9467 110.143 17.56C108.809 16.1733 106.769 15.48 104.023 15.48H99.9425L96.6625 33.88H100.743ZM128.693 15.48L127.533 22.12H139.012L138.093 27.24H126.613L125.413 33.88H138.213L137.293 39H119.133L124.213 10.36H142.373L141.453 15.48H128.693Z" fill="#33FF00"/>
</g>
<defs>
<clipPath id="clip0_194_963">
<rect width="147" height="49" fill="white"/>
</clipPath>
</defs>
</svg>
