<svg width="52" height="41" viewBox="0 0 52 41" fill="none" xmlns="http://www.w3.org/2000/svg">
<path d="M1 1V33.5C1 34.0523 1.44772 34.5 2 34.5H41.5M46 30V1" stroke="black" stroke-width="1.5" stroke-linecap="round"/>
<path d="M52 34.5C46 34.5 46 34.5 46 40.5C46 34.5 46 34.5 40 34.5C46 34.5 46 34.5 46 28.5C46 34.5 46 34.5 52 34.5Z" fill="black"/>
<path d="M30.0328 15.092L20.4191 10.6549C19.7564 10.3491 19 10.8331 19 11.5629V20.4371C19 21.1669 19.7564 21.6509 20.4191 21.345L30.0328 16.908C30.8073 16.5505 30.8073 15.4495 30.0328 15.092Z" stroke="black" stroke-width="1.5" stroke-linecap="round"/>
</svg>
