<svg width="49" height="37" viewBox="0 0 49 37" fill="none" xmlns="http://www.w3.org/2000/svg">
<path d="M21.5788 0V11.7805M21.5788 11.7805H34.2656M21.5788 11.7805H18.9541C18.4018 11.7805 17.9541 12.2282 17.9541 12.7805V14.4053C17.9541 14.9576 18.4018 15.4053 18.9541 15.4053H22.485M34.2656 11.7805V0M34.2656 11.7805H35.9842C36.5364 11.7805 36.9842 12.2282 36.9842 12.7805V14.4053C36.9842 14.9576 36.5364 15.4053 35.9842 15.4053H32.4532M22.485 15.4053L20.8394 19.5193C20.7334 19.7845 20.7457 20.0825 20.8735 20.3379L27.9222 34.4354L34.9263 20.4273C35.0792 20.1215 35.0652 19.7587 34.8893 19.4656L32.4532 15.4053M22.485 15.4053H32.4532" stroke="black" stroke-width="1.5"/>
<path d="M26.5889 21.7487C26.5889 22.4851 27.1858 23.082 27.9222 23.082C28.6586 23.082 29.2555 22.4851 29.2555 21.7487C29.2555 21.0123 28.6586 20.4153 27.9222 20.4153C27.1858 20.4153 26.5889 21.0123 26.5889 21.7487ZM27.6722 15.4053V21.7487H28.1722V15.4053H27.6722Z" fill="black"/>
<path d="M1 0V22.6146C1 23.1669 1.44772 23.6146 2 23.6146H13.3211C13.8733 23.6146 14.3211 23.1669 14.3211 22.6146V19.3761M14.3211 0V2.42201M14.3211 2.42201H8.87153M14.3211 2.42201V6.05502M14.3211 6.05502H11.899M14.3211 6.05502V9.68804M14.3211 9.68804H8.87153M14.3211 9.68804V12.7155M14.3211 12.7155H11.899M14.3211 12.7155V16.3486M14.3211 16.3486H8.87153M14.3211 16.3486V19.3761M14.3211 19.3761H11.899" stroke="black" stroke-width="1.5"/>
<path d="M40.9632 0V9.68804M40.9632 9.68804L41.5687 9.08253C41.9031 8.74812 42.4453 8.74812 42.7797 9.08253V9.08253C43.1141 9.41694 43.6563 9.41694 43.9907 9.08253V9.08253C44.3251 8.74812 44.8673 8.74812 45.2017 9.08253V9.08253C45.5361 9.41694 46.0783 9.41694 46.4127 9.08253V9.08253C46.7471 8.74812 47.2893 8.74812 47.6237 9.08253L48.2292 9.68804M40.9632 9.68804L42.7797 13.3211M48.2292 9.68804V0M48.2292 9.68804L46.4127 13.3211M42.7797 13.3211L44.5962 16.9541L46.4127 13.3211M42.7797 13.3211H44.5962H46.4127" stroke="black" stroke-width="1.5"/>
<path d="M44.5962 16.3486L43.023 13.5027L46.1693 13.5027L44.5962 16.3486Z" fill="black"/>
</svg>
