<svg width="38" height="38" viewBox="0 0 38 38" fill="none" xmlns="http://www.w3.org/2000/svg">
<path d="M1 1V26.5C1 27.0523 1.44772 27.5 2 27.5H10.5M28 1V26.5C28 27.0523 27.5523 27.5 27 27.5H18.5M10.5 27.5L5.86902 35.499C5.48306 36.1656 5.96411 37 6.73445 37H22.6857C23.4732 37 23.9517 36.1319 23.5312 35.466L18.5 27.5M10.5 27.5H18.5" stroke="black" stroke-width="1.5" stroke-linecap="round"/>
<path d="M7 19.5V6C7 5.44772 7.44772 5 8 5H15.5C16.0523 5 16.5 5.44772 16.5 6V19.5C16.5 20.0523 16.0523 20.5 15.5 20.5H8C7.44772 20.5 7 20.0523 7 19.5Z" stroke="black" stroke-width="1.5" stroke-linecap="round"/>
<circle cx="19" cy="8" r="1" fill="black"/>
<circle cx="19" cy="19" r="1" fill="black"/>
<circle cx="19" cy="16" r="1" fill="black"/>
<circle cx="33" cy="18" r="4.25" stroke="black" stroke-width="1.5"/>
<circle cx="32" cy="8" r="3.25" stroke="black" stroke-width="1.5"/>
</svg>
