<svg width="147" height="49" viewBox="0 0 147 49" fill="none" xmlns="http://www.w3.org/2000/svg">
<g clip-path="url(#clip0_194_959)">
<path d="M-259.457 39.64C-260.657 39.64 -261.791 39.4667 -262.857 39.12C-263.924 38.8 -264.884 38.3067 -265.737 37.64C-266.591 36.9467 -267.311 36.0933 -267.897 35.08C-268.484 34.0667 -268.884 32.88 -269.098 31.52L-263.938 29.44C-263.884 30.16 -263.737 30.8267 -263.497 31.44C-263.257 32.0533 -262.924 32.5867 -262.497 33.04C-262.071 33.4933 -261.564 33.8533 -260.977 34.12C-260.364 34.3867 -259.671 34.52 -258.897 34.52C-257.511 34.52 -256.337 34.1867 -255.377 33.52C-254.417 32.8267 -253.937 31.8933 -253.937 30.72C-253.937 29.7333 -254.284 28.9067 -254.977 28.24C-255.671 27.5733 -256.871 26.9067 -258.577 26.24L-259.977 25.68C-260.751 25.3867 -261.497 25.0267 -262.217 24.6C-262.911 24.1467 -263.524 23.6133 -264.057 23C-264.591 22.3867 -265.017 21.68 -265.337 20.88C-265.657 20.0533 -265.817 19.12 -265.817 18.08C-265.817 16.88 -265.564 15.7733 -265.057 14.76C-264.524 13.72 -263.804 12.84 -262.897 12.12C-261.991 11.3733 -260.924 10.7867 -259.697 10.36C-258.444 9.93333 -257.097 9.72 -255.657 9.72C-254.191 9.72 -252.937 9.92 -251.897 10.32C-250.857 10.72 -250.004 11.2267 -249.337 11.84C-248.644 12.4533 -248.111 13.12 -247.737 13.84C-247.364 14.5333 -247.111 15.2 -246.977 15.84L-251.937 17.72C-252.124 16.8667 -252.564 16.1467 -253.257 15.56C-253.924 14.9733 -254.911 14.68 -256.217 14.68C-256.751 14.68 -257.271 14.76 -257.777 14.92C-258.284 15.0533 -258.737 15.2533 -259.137 15.52C-259.537 15.7867 -259.857 16.12 -260.097 16.52C-260.337 16.92 -260.457 17.3733 -260.457 17.88C-260.457 18.76 -260.137 19.4933 -259.497 20.08C-258.831 20.64 -257.817 21.1733 -256.457 21.68L-254.777 22.28C-252.857 23 -251.337 23.9733 -250.217 25.2C-249.071 26.4267 -248.497 28.0667 -248.497 30.12C-248.497 31.5067 -248.764 32.7867 -249.297 33.96C-249.831 35.1067 -250.577 36.1067 -251.537 36.96C-252.497 37.7867 -253.657 38.44 -255.017 38.92C-256.351 39.4 -257.831 39.64 -259.457 39.64ZM-217.89 10.68L-230.37 22.6L-221.85 38.68L-221.93 39H-228.25L-234.69 26.72L-238.73 30.6L-240.21 39H-245.61L-240.53 10.36H-235.13L-237.29 22.48H-236.97L-224.49 10.36H-217.81L-217.89 10.68ZM-213.772 10.36H-208.372L-213.452 39H-218.852L-213.772 10.36ZM-202.6 10.36H-197.2L-201.4 33.88H-189.24L-190.16 39H-207.68L-202.6 10.36ZM-181.233 10.36H-175.833L-180.033 33.88H-167.873L-168.793 39H-186.313L-181.233 10.36ZM-104.271 39H-109.511L-111.591 25.16L-111.871 22.04H-112.191L-113.551 25.16L-120.431 39H-125.711L-128.551 10.36H-122.911L-121.471 27.08L-121.351 30.16H-121.031L-119.631 27.08L-113.351 14.2H-108.231L-106.351 27.08L-106.071 30.12H-105.751L-104.631 27.08L-97.4709 10.36H-91.6709L-104.271 39ZM-79.2975 39.64C-81.2175 39.64 -83.0042 39.32 -84.6575 38.68C-86.2842 38.04 -87.6975 37.1467 -88.8975 36C-90.0975 34.8267 -91.0442 33.4267 -91.7375 31.8C-92.4042 30.1467 -92.7375 28.32 -92.7375 26.32C-92.7375 24.08 -92.3242 21.96 -91.4975 19.96C-90.6708 17.9333 -89.5108 16.1733 -88.0175 14.68C-86.5242 13.16 -84.7375 11.96 -82.6575 11.08C-80.5508 10.1733 -78.2308 9.72 -75.6975 9.72C-73.6975 9.72 -71.8708 10.0533 -70.2175 10.72C-68.5642 11.3867 -67.1508 12.32 -65.9775 13.52C-64.8042 14.6933 -63.8975 16.0933 -63.2575 17.72C-62.5908 19.3467 -62.2575 21.12 -62.2575 23.04C-62.2575 25.28 -62.6708 27.4 -63.4975 29.4C-64.3242 31.4 -65.4842 33.16 -66.9775 34.68C-68.4708 36.2 -70.2708 37.4133 -72.3775 38.32C-74.4575 39.2 -76.7642 39.64 -79.2975 39.64ZM-78.7375 34.52C-77.2175 34.52 -75.7908 34.2267 -74.4575 33.64C-73.1242 33.0267 -71.9642 32.2133 -70.9775 31.2C-69.9642 30.1867 -69.1642 29.0133 -68.5775 27.68C-67.9908 26.3467 -67.6975 24.9333 -67.6975 23.44C-67.6975 22.1333 -67.9242 20.96 -68.3775 19.92C-68.8042 18.8533 -69.4042 17.9467 -70.1775 17.2C-70.9508 16.4533 -71.8575 15.88 -72.8975 15.48C-73.9375 15.0533 -75.0575 14.84 -76.2575 14.84C-77.8308 14.84 -79.2842 15.1467 -80.6175 15.76C-81.9508 16.3733 -83.1242 17.2 -84.1375 18.24C-85.1242 19.2533 -85.8975 20.4267 -86.4575 21.76C-87.0175 23.0933 -87.2975 24.48 -87.2975 25.92C-87.2975 27.2267 -87.0842 28.4133 -86.6575 29.48C-86.2042 30.52 -85.5908 31.4133 -84.8175 32.16C-84.0442 32.9067 -83.1375 33.4933 -82.0975 33.92C-81.0575 34.32 -79.9375 34.52 -78.7375 34.52ZM-55.6469 10.36H-46.2069C-44.8469 10.36 -43.6069 10.5733 -42.4869 11C-41.3669 11.4 -40.4069 11.96 -39.6069 12.68C-38.8069 13.4 -38.1935 14.24 -37.7669 15.2C-37.3402 16.16 -37.1269 17.2 -37.1269 18.32C-37.1269 19.5467 -37.3269 20.68 -37.7269 21.72C-38.1269 22.7333 -38.6735 23.64 -39.3669 24.44C-40.0335 25.24 -40.8202 25.9067 -41.7269 26.44C-42.6335 26.9733 -43.6069 27.36 -44.6469 27.6L-44.7269 27.88L-39.1269 38.68L-39.2069 39H-45.0869L-50.6069 28.24H-53.4069L-55.3269 39H-60.7269L-55.6469 10.36ZM-47.5269 23.28C-46.0869 23.28 -44.9002 22.92 -43.9669 22.2C-43.0335 21.4533 -42.5669 20.3333 -42.5669 18.84C-42.5669 17.8267 -42.9135 16.9867 -43.6069 16.32C-44.2735 15.6533 -45.2069 15.32 -46.4069 15.32H-51.1669L-52.5669 23.28H-47.5269ZM-8.20219 10.68L-20.6822 22.6L-12.1622 38.68L-12.2422 39H-18.5622L-25.0022 26.72L-29.0422 30.6L-30.5222 39H-35.9222L-30.8422 10.36H-25.4422L-27.6022 22.48H-27.2822L-14.8022 10.36H-8.12219L-8.20219 10.68ZM39.8609 10.36H45.2609L41.0609 33.88H53.2209L52.3009 39H34.7809L39.8609 10.36ZM61.2281 10.36H66.6281L61.5481 39H56.1481L61.2281 10.36ZM72.4 10.36H90.56L89.64 15.48H76.88L75.64 22.44H87.12L86.24 27.56H74.76L72.72 39H67.32L72.4 10.36ZM95.7047 39L99.8647 15.48H91.8647L92.7847 10.36H114.185L113.265 15.48H105.265L101.105 39H95.7047ZM164.839 39.64C163.639 39.64 162.506 39.4667 161.439 39.12C160.373 38.8 159.413 38.3067 158.559 37.64C157.706 36.9467 156.986 36.0933 156.399 35.08C155.813 34.0667 155.413 32.88 155.199 31.52L160.359 29.44C160.413 30.16 160.559 30.8267 160.799 31.44C161.039 32.0533 161.373 32.5867 161.799 33.04C162.226 33.4933 162.733 33.8533 163.319 34.12C163.933 34.3867 164.626 34.52 165.399 34.52C166.786 34.52 167.959 34.1867 168.919 33.52C169.879 32.8267 170.359 31.8933 170.359 30.72C170.359 29.7333 170.013 28.9067 169.319 28.24C168.626 27.5733 167.426 26.9067 165.719 26.24L164.319 25.68C163.546 25.3867 162.799 25.0267 162.079 24.6C161.386 24.1467 160.773 23.6133 160.239 23C159.706 22.3867 159.279 21.68 158.959 20.88C158.639 20.0533 158.479 19.12 158.479 18.08C158.479 16.88 158.733 15.7733 159.239 14.76C159.773 13.72 160.493 12.84 161.399 12.12C162.306 11.3733 163.373 10.7867 164.599 10.36C165.853 9.93333 167.199 9.72 168.639 9.72C170.106 9.72 171.359 9.92 172.399 10.32C173.439 10.72 174.293 11.2267 174.959 11.84C175.653 12.4533 176.186 13.12 176.559 13.84C176.933 14.5333 177.186 15.2 177.319 15.84L172.359 17.72C172.173 16.8667 171.733 16.1467 171.039 15.56C170.373 14.9733 169.386 14.68 168.079 14.68C167.546 14.68 167.026 14.76 166.519 14.92C166.013 15.0533 165.559 15.2533 165.159 15.52C164.759 15.7867 164.439 16.12 164.199 16.52C163.959 16.92 163.839 17.3733 163.839 17.88C163.839 18.76 164.159 19.4933 164.799 20.08C165.466 20.64 166.479 21.1733 167.839 21.68L169.519 22.28C171.439 23 172.959 23.9733 174.079 25.2C175.226 26.4267 175.799 28.0667 175.799 30.12C175.799 31.5067 175.533 32.7867 174.999 33.96C174.466 35.1067 173.719 36.1067 172.759 36.96C171.799 37.7867 170.639 38.44 169.279 38.92C167.946 39.4 166.466 39.64 164.839 39.64ZM204.927 34.48C204.021 35.4133 203.114 36.2 202.207 36.84C201.301 37.48 200.354 38.0133 199.367 38.44C198.381 38.8667 197.327 39.1733 196.207 39.36C195.087 39.5467 193.874 39.64 192.567 39.64C190.754 39.64 189.061 39.3333 187.487 38.72C185.914 38.1067 184.541 37.2267 183.367 36.08C182.194 34.9333 181.261 33.5467 180.567 31.92C179.901 30.2667 179.567 28.4133 179.567 26.36C179.567 24.12 179.994 22 180.847 20C181.701 17.9733 182.887 16.2 184.407 14.68C185.927 13.16 187.741 11.96 189.847 11.08C191.954 10.1733 194.274 9.72 196.807 9.72C199.234 9.72 201.314 10.16 203.047 11.04C204.781 11.92 206.167 13.12 207.207 14.64L202.887 18.16C202.114 17.12 201.194 16.3067 200.127 15.72C199.061 15.1333 197.714 14.84 196.087 14.84C194.567 14.84 193.141 15.1333 191.807 15.72C190.474 16.3067 189.301 17.1067 188.287 18.12C187.274 19.1333 186.474 20.32 185.887 21.68C185.301 23.04 185.007 24.5067 185.007 26.08C185.007 27.36 185.207 28.52 185.607 29.56C186.034 30.6 186.607 31.4933 187.327 32.24C188.047 32.96 188.901 33.52 189.887 33.92C190.874 34.32 191.954 34.52 193.127 34.52C194.834 34.52 196.354 34.1733 197.687 33.48C199.021 32.76 200.287 31.8 201.487 30.6L204.927 34.48ZM221.302 10.36H227.622L233.342 39H227.582L226.342 32.16H215.422L211.822 39H205.702L221.302 10.36ZM225.422 27.2L224.102 20L223.702 16.56H223.382L221.782 20L217.982 27.2H225.422ZM241.775 10.36H247.175L242.975 33.88H255.135L254.215 39H236.695L241.775 10.36ZM267.622 15.48L266.462 22.12H277.942L277.022 27.24H265.542L264.342 33.88H277.142L276.222 39H258.062L263.142 10.36H281.302L280.382 15.48H267.622ZM331.962 23.28H346.002V24.48C346.002 26.7733 345.549 28.88 344.642 30.8C343.762 32.72 342.602 34.3333 341.162 35.64C339.749 36.92 338.109 37.9067 336.242 38.6C334.402 39.2933 332.429 39.64 330.322 39.64C328.269 39.64 326.389 39.3067 324.682 38.64C323.002 37.9733 321.549 37.04 320.322 35.84C319.122 34.64 318.176 33.2133 317.482 31.56C316.816 29.88 316.482 28.04 316.482 26.04C316.482 23.88 316.896 21.8133 317.722 19.84C318.549 17.8667 319.722 16.1333 321.242 14.64C322.762 13.1467 324.576 11.96 326.682 11.08C328.816 10.1733 331.189 9.72 333.802 9.72C336.202 9.72 338.309 10.1467 340.122 11C341.936 11.8267 343.402 12.96 344.522 14.4L340.242 18.04C339.576 17.1067 338.642 16.3467 337.442 15.76C336.242 15.1467 334.829 14.84 333.202 14.84C331.656 14.84 330.189 15.1067 328.802 15.64C327.442 16.1467 326.256 16.88 325.242 17.84C324.229 18.8 323.416 19.96 322.802 21.32C322.216 22.6533 321.922 24.1467 321.922 25.8C321.922 27.16 322.136 28.3867 322.562 29.48C323.016 30.5467 323.629 31.4533 324.402 32.2C325.202 32.9467 326.122 33.52 327.162 33.92C328.229 34.32 329.376 34.52 330.602 34.52C333.322 34.52 335.549 33.76 337.282 32.24C337.922 31.7067 338.456 31.08 338.882 30.36C339.309 29.6133 339.669 28.7867 339.962 27.88H331.162L331.962 23.28ZM353.025 10.36H362.465C363.825 10.36 365.065 10.5733 366.185 11C367.305 11.4 368.265 11.96 369.065 12.68C369.865 13.4 370.478 14.24 370.905 15.2C371.332 16.16 371.545 17.2 371.545 18.32C371.545 19.5467 371.345 20.68 370.945 21.72C370.545 22.7333 369.998 23.64 369.305 24.44C368.638 25.24 367.852 25.9067 366.945 26.44C366.038 26.9733 365.065 27.36 364.025 27.6L363.945 27.88L369.545 38.68L369.465 39H363.585L358.065 28.24H355.265L353.345 39H347.945L353.025 10.36ZM361.145 23.28C362.585 23.28 363.772 22.92 364.705 22.2C365.638 21.4533 366.105 20.3333 366.105 18.84C366.105 17.8267 365.758 16.9867 365.065 16.32C364.398 15.6533 363.465 15.32 362.265 15.32H357.505L356.105 23.28H361.145ZM385.99 10.36H392.31L398.03 39H392.27L391.03 32.16H380.11L376.51 39H370.39L385.99 10.36ZM390.11 27.2L388.79 20L388.39 16.56H388.07L386.47 20L382.67 27.2H390.11ZM406.463 10.36H415.583C417.689 10.36 419.556 10.68 421.183 11.32C422.809 11.9333 424.169 12.8 425.263 13.92C426.356 15.0133 427.183 16.3333 427.743 17.88C428.303 19.4 428.583 21.08 428.583 22.92C428.583 25.0533 428.183 27.0933 427.383 29.04C426.609 30.96 425.476 32.6667 423.983 34.16C422.516 35.6267 420.729 36.8 418.623 37.68C416.516 38.56 414.129 39 411.463 39H401.383L406.463 10.36ZM411.743 33.88C413.449 33.88 415.009 33.6133 416.423 33.08C417.836 32.5467 419.036 31.8133 420.023 30.88C421.036 29.9467 421.809 28.8533 422.343 27.6C422.903 26.3467 423.183 24.9867 423.183 23.52C423.183 20.9333 422.503 18.9467 421.143 17.56C419.809 16.1733 417.769 15.48 415.023 15.48H410.943L407.663 33.88H411.743ZM439.693 15.48L438.533 22.12H450.012L449.093 27.24H437.613L436.413 33.88H449.213L448.293 39H430.133L435.213 10.36H453.373L452.453 15.48H439.693Z" fill="#33FF00"/>
</g>
<defs>
<clipPath id="clip0_194_959">
<rect width="147" height="49" fill="white"/>
</clipPath>
</defs>
</svg>
