<svg width="98" height="98" viewBox="0 0 98 98" fill="none" xmlns="http://www.w3.org/2000/svg">
<mask id="mask0_83_1112" style="mask-type:alpha" maskUnits="userSpaceOnUse" x="0" y="0" width="98" height="98">
<circle cx="49" cy="49" r="49" fill="white"/>
</mask>
<g mask="url(#mask0_83_1112)">
<path d="M51.9386 116.546C27.0816 158.969 -11.945 196.873 -22.294 200.73C-33.578 204.925 -75.5706 192.048 -96.446 184.513C-103.281 182.044 -89.3049 133.845 -81.938 131.36C-74.5712 128.875 -42.0249 148.658 -34.1905 146.738C-31.7242 146.14 11.6386 120.822 35.4478 104.88C57.629 90.0182 59.4828 103.669 51.9386 116.546Z" fill="#AD6359"/>
<path d="M-93.3993 193.42L-74.555 129.907C-74.555 129.907 -41.7831 145.414 -36.3507 144.188C-30.9182 142.961 19.3601 112.012 37.6724 101.814C55.9847 91.6155 69.8318 98.1023 46.5706 130.036C21.4718 164.503 -7.60868 197.406 -18.9894 202.069C-33.981 208.185 -93.3993 193.42 -93.3993 193.42Z" fill="#CC00FF"/>
<path opacity="0.1" d="M-63.8836 199.665C-46.6514 202.763 -26.8076 205.248 -19.0056 202.053C-7.60872 197.406 21.4718 164.52 46.5867 130.036C61.3526 109.737 61.0947 99.7323 54.3243 97.7637L-63.8836 199.665Z" fill="black"/>
<path d="M0.290146 230.437L124.769 244.814C124.769 242.265 100.008 116.885 67.8652 97.4247C61.6912 93.6811 50.6168 93.907 40.7352 102.943C22.7614 119.354 -1.32185 228.742 0.290146 230.437Z" fill="#CC00FF"/>
<path d="M79.3265 108.946C77.3402 109.813 75.4846 110.954 73.8135 112.335C76.0419 112.008 78.2128 111.367 80.2615 110.431H80.3582C79.9874 109.963 79.665 109.414 79.3265 108.946ZM57.1776 195.05C55.1184 195.939 53.1968 197.118 51.4711 198.551C53.7012 198.233 55.8732 197.591 57.9191 196.647C59.9799 195.752 61.9059 194.573 63.6417 193.146C61.4064 193.464 59.2291 194.106 57.1776 195.05ZM112.356 191.403C111.887 191.734 111.435 192.089 111.002 192.468C111.534 192.468 112.05 192.307 112.614 192.194C112.501 191.936 112.437 191.661 112.356 191.403ZM6.06111 200.407C5.85155 201.327 5.64196 202.214 5.4324 203.102C6.1363 204.448 6.99075 205.709 7.97934 206.862C7.65574 204.629 7.0096 202.454 6.06111 200.407ZM81.406 161.761C80.5141 159.7 79.3424 157.772 77.924 156.032C78.2439 158.264 78.8845 160.438 79.8262 162.487C80.7123 164.545 81.8845 166.469 83.3081 168.199C82.9881 165.972 82.3474 163.803 81.406 161.761ZM51.2132 96.5212L50.9069 96.6342L51.3099 97.1183C51.2934 96.917 51.2611 96.7174 51.2132 96.5212ZM31.6919 170.668C29.6321 169.82 27.4601 169.276 25.2439 169.054C28.8828 171.735 33.1649 173.405 37.6563 173.895C35.8322 172.54 33.8237 171.453 31.6919 170.668ZM122.335 232.244L120.884 231.631C118.821 230.792 116.65 230.249 114.436 230.017C116.227 231.379 118.209 232.467 120.32 233.245C121.126 233.551 121.932 233.826 122.77 234.068C122.609 233.487 122.48 232.874 122.335 232.244ZM85.0491 215.269C84.205 217.332 83.6621 219.506 83.4371 221.723C86.1003 218.079 87.7672 213.802 88.2731 209.314C86.9174 211.133 85.8315 213.139 85.0491 215.269ZM34.2872 224.531C33.4414 226.593 32.8984 228.767 32.6752 230.986C35.3176 227.331 36.9572 223.047 37.4306 218.561C36.1045 220.391 35.046 222.401 34.2872 224.531ZM47.8119 134.894C46.9515 136.979 46.4082 139.182 46.1999 141.429C47.5325 139.613 48.6167 137.626 49.4239 135.523C50.2609 133.458 50.8035 131.285 51.0359 129.068C49.6954 130.856 48.6103 132.822 47.8119 134.91V134.894Z" fill="white"/>
<path d="M81.5027 106.429C104.635 124.179 165.585 196.228 152.834 213.316C140.083 230.405 52.7768 224.708 27.2911 217.35C19.7147 215.172 39.1716 166.892 47.2477 164.504C53.9859 162.519 91.7872 172.782 92.4804 170.587C93.2542 168.118 84.8718 152.159 71.3632 122.985C55.7913 89.3566 71.2826 98.5543 81.5027 106.429Z" fill="#AD6359"/>
<path d="M58.0803 165.085L40.4934 226.145C40.4934 226.145 149.674 232.373 155.719 212.526C161.764 192.678 109.068 127.713 87.2414 109.866C61.8846 89.1792 60.5305 97.8605 68.784 118.563C77.4243 140.235 92.3031 171.168 92.3031 171.168L58.0803 165.085Z" fill="#CC00FF"/>
<path d="M46.5223 122.291C53.6473 123.905 65.8663 113.013 70.7023 104.17C71.0247 103.557 70.0897 97.1827 69.2998 89.3727C68.8324 84.6447 68.4294 79.352 68.4133 74.495C68.4133 73.5107 38.0432 81.9984 38.0432 81.9984C39.8022 88.0594 40.8145 94.3129 41.0576 100.62C41.048 101.286 40.9778 101.951 40.848 102.605V102.943C40.1388 106.735 39.639 120.693 46.5223 122.291Z" fill="#AD6359"/>
<path d="M66.4788 74.6401C65.1086 82.8374 60.0308 102.669 43.9108 103.105C42.8712 103.128 41.8313 103.074 40.7996 102.943C40.7813 102.831 40.7813 102.717 40.7996 102.604C40.9294 101.951 40.9996 101.286 41.0092 100.62C40.7679 94.3126 39.7555 88.059 37.9948 81.9984C37.9948 81.9984 59.8374 75.8665 66.4788 74.6401Z" fill="#263238"/>
<path d="M77.8595 42.8193C79.3587 53.9372 68.7678 83.5959 60.1275 89.179C47.5862 97.2472 29.4995 95.2786 23.3094 80.772C17.2483 66.7172 31.7402 28.2965 41.1704 23.4879C55.0014 16.3718 75.6511 26.3925 77.8595 42.8193Z" fill="#AD6359"/>
<path d="M45.0392 55.8091C45.0392 55.8091 45.1682 55.9704 45.1359 56.0511C44.2977 58.0036 43.6851 60.3918 45.2326 61.7311C45.2326 61.7311 45.2326 61.8763 45.2326 61.8441C43.1048 60.6984 43.9431 57.5357 45.0392 55.8091Z" fill="#263238"/>
<path d="M47.6023 54.4213C50.8263 55.4056 48.6824 61.9085 45.6357 60.9888C42.589 60.069 44.8619 53.5983 47.6023 54.4213Z" fill="#263238"/>
<path d="M33.3039 52.1783C33.3039 52.0976 33.1104 52.1783 33.0943 52.3074C32.4656 54.3406 31.4823 56.5674 29.3706 56.6158V56.7288C31.6757 57.1645 33.0459 54.2115 33.3039 52.1783Z" fill="#263238"/>
<path d="M32.2238 49.4674C29.0804 48.1281 26.6302 54.5181 29.5318 55.7767C32.4334 57.0354 34.8675 50.597 32.2238 49.4674Z" fill="#263238"/>
<path d="M50.9714 52.2105C50.1518 51.7559 49.3556 51.2605 48.5856 50.726C47.6829 50.1451 46.9736 49.7739 46.4417 48.7412C46.3579 48.442 46.3722 48.1238 46.4825 47.8334C46.5927 47.5429 46.7931 47.2956 47.0542 47.1276C47.6398 46.8733 48.282 46.7782 48.916 46.8519C49.55 46.9255 50.1533 47.1654 50.6651 47.5471C51.8122 48.1759 52.6895 49.2034 53.1315 50.4355C53.1781 50.7153 53.1503 51.0025 53.0507 51.2681C52.9511 51.5337 52.7833 51.7684 52.5643 51.9484C52.3452 52.1284 52.0826 52.2474 51.803 52.2934C51.5233 52.3395 51.2365 52.3108 50.9714 52.2105Z" fill="#263238"/>
<path d="M30.8214 45.0622C31.7522 45.1801 32.6883 45.2502 33.6263 45.272C34.6045 45.4792 35.6236 45.3602 36.5279 44.9331C36.7879 44.7468 36.9783 44.4789 37.0688 44.172C37.1593 43.865 37.1448 43.5366 37.0276 43.2388C36.7032 42.6754 36.2318 42.2111 35.6638 41.8956C35.0958 41.5801 34.4528 41.4252 33.8036 41.4477C32.5072 41.2583 31.1874 41.5698 30.1121 42.319C29.9007 42.5171 29.7464 42.7687 29.6656 43.0472C29.5849 43.3256 29.5806 43.6207 29.6531 43.9014C29.7257 44.1821 29.8726 44.4381 30.0781 44.6423C30.2837 44.8466 30.5405 44.9916 30.8214 45.0622Z" fill="#263238"/>
<path d="M40.4934 75.1081C39.8853 75.5445 39.1444 75.7556 38.3978 75.7051C37.6546 75.44 36.978 75.016 36.4151 74.4626C36.4151 74.4626 36.27 74.4626 36.2861 74.5433C36.4362 75.0366 36.7183 75.4795 37.1019 75.8237C37.4856 76.1679 37.956 76.4003 38.4623 76.4958C38.9083 76.534 39.3555 76.4376 39.7462 76.219C40.137 76.0004 40.4534 75.6697 40.6546 75.2695C40.7836 75.1565 40.6385 75.0597 40.4934 75.1081Z" fill="#263238"/>
<path d="M40.4934 68.3632C39.713 68.9884 38.8114 69.4445 37.8458 69.7028C36.8802 69.9611 35.8715 70.016 34.8836 69.8639C34.0207 69.7411 33.1795 69.4966 32.385 69.1378C32.227 69.0788 32.0757 69.003 31.9337 68.9119L31.5307 68.7021C31.431 68.6459 31.3521 68.559 31.3056 68.4544C31.2592 68.3498 31.2476 68.2329 31.2728 68.1212C31.2952 68.0472 31.3277 67.9766 31.3695 67.9114V67.7501C31.8531 66.1364 32.8042 63.8773 32.8042 63.8773C32.1433 63.9742 28.8225 64.2808 29.1449 63.4901C31.6941 56.5758 34.9346 49.9369 38.8169 43.6746C38.8444 43.6376 38.8842 43.6116 38.9291 43.6013C38.974 43.591 39.0211 43.5972 39.0619 43.6186C39.1028 43.64 39.1346 43.6752 39.1517 43.718C39.1689 43.7609 39.1702 43.8084 39.1555 43.8521C36.8342 50.3066 33.4006 56.2125 30.9665 62.6025C32.1542 62.4803 33.3532 62.5238 34.529 62.7317C34.7224 62.8608 32.6107 67.153 32.4495 67.863C32.4533 67.8898 32.4533 67.9169 32.4495 67.9437C33.6752 68.5008 34.9999 68.8064 36.3455 68.8424C37.6911 68.8784 39.0302 68.6441 40.2838 68.1535C40.4934 68.0082 40.6707 68.2503 40.4934 68.3632Z" fill="#263238"/>
<path d="M33.5779 68.6535C34.0495 70.0483 34.871 71.2984 35.9637 72.2842C36.5759 72.7971 37.329 73.1121 38.1237 73.1879C39.8808 73.3008 40.4128 71.8486 40.5579 70.477C40.6434 69.7587 40.6434 69.0329 40.5579 68.3147C38.328 69.1753 35.8805 69.2942 33.5779 68.6535Z" fill="#263238"/>
<path d="M35.9637 72.2843C36.5759 72.7971 37.329 73.1122 38.1238 73.1879C39.8808 73.3009 40.4128 71.8486 40.5579 70.477C39.7005 70.22 38.7818 70.2584 37.9489 70.5861C37.1159 70.9138 36.4169 71.5118 35.9637 72.2843Z" fill="#FF9ABB"/>
<path d="M70.0897 65.1036C65.2537 64.2161 66.6401 53.0336 66.6401 53.0336C66.6401 53.0336 53.9697 54.034 56.9681 37.8815C56.9681 37.8815 41.9281 39.7534 34.126 33.2827C27.4684 27.764 26.066 14.2579 32.9976 7.8195C36.9309 4.17268 46.3611 1.99423 56.8713 17.114C56.8713 17.114 76.038 8.85222 78.2948 30.4588C78.2948 30.4588 86.8062 33.2504 86.1614 41.9479C85.1458 55.68 74.3454 65.8782 70.0897 65.1036Z" fill="#263238"/>
<path d="M57.1776 36.7519C57.185 36.736 57.1955 36.7217 57.2084 36.7099C57.2213 36.6981 57.2365 36.6889 57.2529 36.6829C57.2694 36.6769 57.2868 36.6742 57.3043 36.6749C57.3218 36.6757 57.339 36.6799 57.3549 36.6873C57.3708 36.6948 57.385 36.7052 57.3969 36.7182C57.4087 36.7311 57.4179 36.7463 57.4239 36.7627C57.4299 36.7792 57.4326 36.7967 57.4318 36.8142C57.431 36.8318 57.4268 36.849 57.4194 36.8649C55.888 40.6408 54.276 44.7555 56.7423 48.5476C57.8517 50.3427 59.5168 51.7258 61.484 52.4861C63.4512 53.2464 65.6128 53.3423 67.6395 52.7592C67.8813 52.6785 68.0264 53.0658 67.7685 53.1303C65.7891 53.7115 63.682 53.6921 61.7136 53.0746C59.7453 52.4571 58.004 51.2691 56.7101 49.661C53.5184 45.7076 54.7596 40.7376 57.1776 36.7519Z" fill="#263238"/>
<path d="M70.2187 62.554C77.5372 60.4563 83.695 55.8413 85.8067 48.1765C86.9769 44.5583 86.7527 40.6327 85.178 37.1716C83.566 34.0572 80.6322 32.4436 78.1175 30.2329C78.1175 30.2329 78.1175 30.0554 78.1981 30.1038C94.9145 38.0591 86.6127 60.9727 70.4121 63.4416C70.3078 63.4386 70.2074 63.4008 70.127 63.3341C70.0467 63.2674 69.9909 63.1756 69.9686 63.0735C69.9464 62.9714 69.9589 62.8648 70.0042 62.7707C70.0496 62.6765 70.125 62.6002 70.2187 62.554Z" fill="#263238"/>
<path d="M30.7247 7.51289C40.1549 -1.45893 53.2927 8.48104 57.2098 18.0176C53.4055 10.6756 44.0881 2.33312 35.335 5.80244C24.7602 9.99789 25.2438 27.764 35.738 31.6206C36.0442 31.7336 35.8831 32.2822 35.5445 32.1854C25.6791 29.4099 23.7286 14.1772 30.7247 7.51289Z" fill="#263238"/>
<path d="M66.9624 66.5882C66.9624 66.5882 75.6672 58.0037 79.6972 61.2955C83.7272 64.5873 75.8929 77.9159 70.2832 78.8841C69.5722 79.0598 68.8331 79.0898 68.1103 78.9723C67.3875 78.8548 66.6958 78.5922 66.077 78.2003C65.4581 77.8084 64.9248 77.2953 64.5091 76.6918C64.0933 76.0884 63.8038 75.407 63.6578 74.6887L66.9624 66.5882Z" fill="#AD6359"/>
<path d="M77.3598 65.0553V65.2005C73.3943 66.0073 70.8313 69.0732 68.8163 72.365C69.0992 72.0372 69.4494 71.7741 69.843 71.5939C70.2366 71.4136 70.6644 71.3203 71.0972 71.3203C71.53 71.3203 71.9578 71.4136 72.3514 71.5939C72.745 71.7741 73.0952 72.0372 73.3782 72.365C73.3945 72.3843 73.4039 72.4085 73.4049 72.4338C73.4058 72.4591 73.3982 72.484 73.3834 72.5044C73.3685 72.5249 73.3472 72.5398 73.3229 72.5467C73.2986 72.5536 73.2726 72.5521 73.2493 72.5425C72.6375 72.2191 71.9411 72.0921 71.2547 72.1787C70.5683 72.2653 69.9252 72.5613 69.4127 73.0266C68.5721 73.8115 67.8157 74.6823 67.1559 75.6246C66.9141 75.9311 66.3499 75.6246 66.5433 75.2857V75.205C67.3654 70.4932 72.2337 64.6034 77.3598 65.0553Z" fill="#263238"/>
</g>
</svg>
