<svg width="98" height="98" viewBox="0 0 98 98" fill="none" xmlns="http://www.w3.org/2000/svg">
<mask id="mask0_83_726" style="mask-type:alpha" maskUnits="userSpaceOnUse" x="0" y="0" width="98" height="98">
<circle cx="49" cy="49" r="49" fill="#D9D9D9"/>
</mask>
<g mask="url(#mask0_83_726)">
<path d="M280.579 309.786V286.176L143.422 280.526L70.9852 86.6755H-95L-36.2708 309.786L104.038 349.259H112.828L280.579 309.786Z" fill="#455A64"/>
<path d="M-95 86.6755H-76.0078L-14.8196 290.043L109.323 325.295L280.579 286.176V309.786L112.828 349.259H104.038L-36.2708 309.786L-95 86.6755Z" fill="#37474F"/>
<path d="M33.2364 104.845C42.5886 141.552 61.1752 185.442 68.814 192.443C78.4932 201.305 137.68 212.933 140.754 213.235C145.881 213.746 156.45 160.797 151.676 160.98C139.014 161.255 100.01 157.283 97.2106 154.543C94.4115 151.803 74.4907 127.826 54.0466 100.794C40.0118 82.192 27.4419 82.0609 33.2364 104.845Z" fill="#EB9481"/>
<path d="M147.582 157.427L129.793 219.042C129.793 219.042 77.329 205.395 67.5582 195.327C57.7875 185.259 38.9392 132.532 33.1448 106.89C27.3503 81.2481 40.378 81.589 52.7648 97.5432C65.1515 113.497 95.7718 152.144 97.4591 152.957C99.1464 153.77 147.582 157.427 147.582 157.427Z" fill="#CC00FF"/>
<path opacity="0.1" d="M122.233 216.958C107.334 212.75 75.0007 202.97 67.5451 195.301C57.7875 185.233 38.9392 132.506 33.1447 106.877C30.3849 94.5674 31.9283 88.2224 35.6692 86.7542C36.0779 86.9501 36.4753 87.1689 36.8594 87.4096C56.1394 113.93 96.0857 177.262 122.233 216.958Z" fill="black"/>
<path d="M-26.984 226.043C-26.6962 226.344 84.196 201.987 85.2424 200.702C86.6812 198.88 66.8519 115.293 46.0024 90.3461C40.7704 84.106 24.1196 84.5386 16.664 90.8311C-20.3132 122.032 -28.0304 224.968 -26.984 226.043Z" fill="#CC00FF"/>
<path d="M7.99193 96.8092C-14.1264 113.852 -72.4108 182.808 -60.2334 199.155C-48.0559 215.503 35.473 210.075 59.841 203.088C67.0874 200.99 48.4876 154.766 40.7442 152.485C34.3089 150.571 -1.84424 160.416 -2.49824 158.306C-3.2438 155.933 4.77424 140.66 17.6842 112.724C32.5954 80.4748 17.7627 89.2844 7.99193 96.8092Z" fill="#EB9481"/>
<path d="M30.3849 152.97L47.1665 211.504C47.1665 211.504 -57.2511 217.482 -63.0325 198.473C-68.8138 179.465 -18.3774 117.194 2.55064 100.152C26.801 80.3436 28.0959 88.655 20.2086 108.477C11.9421 129.229 -2.28896 158.856 -2.28896 158.856L30.3849 152.97Z" fill="#CC00FF"/>
<path d="M37.5527 117.076C37.5527 117.076 18.0243 97.6612 5.25824 97.9496L-5.6374 107.493C-5.6374 107.493 -9.20823 108.634 -10.2808 106.366C-12.8968 100.755 -13.3938 87.2522 -1.72647 78.5869C8.9468 70.6425 26.317 71.3897 40.7835 75.3357C54.6745 79.1244 66.6688 88.4452 62.3263 97.5432C57.9837 106.641 37.5527 117.076 37.5527 117.076Z" fill="#CC00FF"/>
<path opacity="0.1" d="M38.9784 112.816C38.9784 112.816 55.0407 101.528 56.7411 94.7508C58.4415 87.9732 44.9691 81.4054 36.2447 78.7966C22.7592 74.7589 13.5378 75.5585 5.89909 82.7294C-1.73963 89.9003 38.9784 112.816 38.9784 112.816Z" fill="black"/>
<path d="M38.9784 112.816C38.9784 112.816 23.4394 85.8628 3.72784 83.0967L5.2582 97.9497C5.2582 97.9497 17.0302 98.0808 37.5527 117.077L38.9784 112.816Z" fill="#CC00FF"/>
<path d="M-0.104614 98.1725C3.48638 97.9118 7.09124 98.4305 10.464 99.6932C13.847 100.851 17.086 102.395 20.1171 104.295C23.1708 106.162 26.0984 108.229 28.8807 110.482L32.9747 113.983L36.8987 117.666L37.3434 118.086L37.8405 117.824C41.5391 115.961 45.1053 113.846 48.5137 111.492C50.232 110.339 51.8788 109.082 53.4449 107.729C55.0268 106.395 56.4767 104.911 57.7744 103.298C54.7719 106.084 51.4683 108.524 47.9251 110.574C46.1855 111.636 44.3935 112.632 42.5885 113.576C40.7835 114.52 38.9653 115.477 37.1341 116.329L38.0628 116.5L34.1388 112.685C32.8308 111.465 31.3789 110.286 29.9925 109.106C28.606 107.926 27.0756 106.877 25.5714 105.828C24.0672 104.78 22.5238 103.796 20.8888 102.944C17.7047 101.107 14.2976 99.6881 10.7518 98.7231C9.87543 98.4609 8.95983 98.3035 8.13579 98.1069C7.31175 97.9103 6.31766 97.8447 5.40206 97.7923C3.55822 97.6083 1.69665 97.7369 -0.104614 98.1725Z" fill="#263238"/>
<path d="M-5.63745 107.493C-1.62504 104.777 2.0349 101.571 5.25819 97.9497C1.25379 100.677 -2.40494 103.881 -5.63745 107.493Z" fill="#263238"/>
<path d="M40.6135 109.801C35.5515 109.46 26.1077 98.8674 22.8901 90.4511C22.6808 89.8743 24.198 84.329 25.8854 77.4989C26.8402 73.3432 27.8212 68.7024 28.3967 64.3894L54.4259 74.6148C52.1599 79.7799 50.5346 85.204 49.5863 90.7657C49.5282 91.363 49.5282 91.9645 49.5863 92.5617C49.5863 92.6404 49.5863 92.7453 49.5863 92.8632C49.5994 96.3504 48.553 110.312 40.6135 109.801Z" fill="#EB9481"/>
<path d="M49.5209 92.5748C49.5287 92.6751 49.5287 92.7759 49.5209 92.8763C48.5832 92.8699 47.6474 92.791 46.7218 92.6403C31.4705 90.2019 30.2672 71.0096 30.2672 65.1104L54.4259 74.5885C52.1698 79.7744 50.5492 85.2152 49.5994 90.7919C49.5281 91.3833 49.5018 91.9793 49.5209 92.5748Z" fill="#263238"/>
<path d="M33.6941 30.8029C28.2398 39.2978 25.5584 67.5095 30.4503 75.3752C37.5527 86.7673 52.961 92.0374 63.5689 82.6116C73.8497 73.435 76.6489 36.6366 70.8806 29.1118C62.3001 17.9687 41.7514 18.2309 33.6941 30.8029Z" fill="#EB9481"/>
<path d="M51.2606 51.3324C52.0938 51.2043 52.9191 51.0292 53.7327 50.808C54.6283 50.738 55.4772 50.3792 56.1525 49.7854C56.3285 49.5562 56.424 49.275 56.424 48.9857C56.424 48.6965 56.3285 48.4153 56.1525 48.1861C55.7338 47.7944 55.2196 47.5204 54.6616 47.3915C54.1035 47.2626 53.5215 47.2834 52.974 47.4519C51.8001 47.6199 50.7339 48.2292 49.9918 49.1562C49.8351 49.3724 49.7446 49.6297 49.7314 49.8967C49.7182 50.1636 49.7828 50.4286 49.9174 50.6594C50.0519 50.8902 50.2505 51.0766 50.4891 51.1961C50.7276 51.3156 50.9957 51.363 51.2606 51.3324Z" fill="#263238"/>
<path d="M70.3443 53.9542C69.5481 53.6804 68.7666 53.3653 68.003 53.0103C67.1304 52.7959 66.3531 52.2981 65.7925 51.5944C65.659 51.3385 65.6135 51.0456 65.6632 50.7611C65.7129 50.4767 65.8549 50.2166 66.0671 50.0213C66.5443 49.7031 67.097 49.5172 67.6691 49.4827C68.2412 49.4481 68.8123 49.5661 69.3241 49.8247C70.4329 50.2038 71.364 50.9783 71.9401 52.0008C72.0561 52.2397 72.1015 52.5069 72.0707 52.7708C72.0399 53.0346 71.9343 53.2842 71.7663 53.4897C71.5984 53.6953 71.3752 53.8483 71.1232 53.9306C70.8711 54.0129 70.6008 54.0211 70.3443 53.9542Z" fill="#263238"/>
<path d="M49.8087 73.5266C50.2011 74.0248 50.5804 74.6934 51.2606 74.8376C51.9651 74.9177 52.6786 74.8462 53.3534 74.6278C53.3534 74.6278 53.458 74.6278 53.3534 74.7327C53.0333 75.0652 52.6312 75.3069 52.1879 75.4335C51.7446 75.5602 51.2758 75.5671 50.8289 75.4537C50.4514 75.3083 50.1255 75.0537 49.8926 74.7223C49.6597 74.3908 49.5303 73.9975 49.5209 73.5922C49.5994 73.4742 49.7433 73.448 49.8087 73.5266Z" fill="#263238"/>
<path d="M52.5162 68.1126C52.9035 68.9191 53.4514 69.6376 54.1263 70.2238C54.8011 70.81 55.5886 71.2515 56.4402 71.521C57.1837 71.7683 57.9593 71.9052 58.7423 71.9274H59.6187C59.7211 71.9166 59.8176 71.8743 59.8949 71.8062C59.9722 71.7381 60.0265 71.6476 60.0503 71.5472C60.0568 71.4819 60.0568 71.416 60.0503 71.3506V71.1802C60.2727 69.725 60.4166 67.4964 60.4166 67.4964C60.9136 67.8242 63.4642 69.3973 63.5165 68.6238C63.9482 62.2788 64.419 55.2128 63.5165 48.7892C63.5165 48.5794 63.1764 48.5925 63.1634 48.7892C62.5224 54.872 62.941 61.0334 62.3916 67.1425C61.4842 66.5643 60.497 66.1226 59.4617 65.8315C59.2524 65.8315 59.2655 70.1576 59.1216 70.8C56.6364 70.8 54.8837 69.8299 52.7255 67.8766C52.5817 67.8373 52.4247 67.9421 52.5162 68.1126Z" fill="#263238"/>
<path d="M57.9837 71.0752C57.0518 72.0169 55.8943 72.703 54.6221 73.0679C53.9218 73.2353 53.1873 73.185 52.5162 72.9237C51.0643 72.3338 51.2082 70.9442 51.6268 69.7905C51.8626 69.1819 52.1653 68.6015 52.5293 68.0601C53.981 69.6211 55.8918 70.6774 57.9837 71.0752Z" fill="#263238"/>
<path d="M54.6221 73.0679C53.9218 73.2353 53.1873 73.185 52.5162 72.9237C51.0643 72.3338 51.2082 70.9442 51.6268 69.7905C52.4215 69.9185 53.1499 70.3118 53.6936 70.9067C54.2373 71.5016 54.5645 72.2632 54.6221 73.0679Z" fill="#FF9ABB"/>
<path d="M54.9753 56.4976C54.9753 56.4976 54.8184 56.5631 54.8053 56.6418C54.5698 58.5295 53.9812 60.5746 52.1893 60.9941V61.099C54.2952 61.1383 55.0538 58.3329 54.9753 56.4976Z" fill="#263238"/>
<path d="M53.615 54.282C50.6458 53.5741 49.4555 59.5258 52.2023 60.2337C54.9491 60.9416 56.1394 54.8719 53.615 54.282Z" fill="#263238"/>
<path d="M65.9102 57.9395C65.9102 57.9395 66.041 58.0575 66.0279 58.1361C65.5832 59.9714 65.387 62.1607 66.9304 63.1308V63.2357C64.903 62.5147 65.2039 59.6437 65.9102 57.9395Z" fill="#263238"/>
<path d="M67.9768 56.34C70.9983 56.7333 69.9911 62.7768 67.192 62.4097C64.3929 62.0427 65.4393 56.0123 67.9768 56.34Z" fill="#263238"/>
<path d="M36.3756 48.9332C40.2996 44.0827 40.4303 33.6869 44.0797 32.2055C51.9277 29.0068 60.4558 43.7288 68.814 46.8226C76.9105 49.8247 81.5146 45.5903 82.4302 38.4587C83.3458 31.3272 79.3695 24.8511 70.7498 20.1841C61.8423 15.3467 51.8753 16.0284 46.1201 17.3262C46.1201 17.3262 49.364 14.783 48.9716 13.472C48.5792 12.1611 43.4518 13.9046 41.7514 14.783C40.4337 15.6337 39.2813 16.7176 38.3506 17.9817C37.2501 17.2349 36.0473 16.652 34.7798 16.2512C32.9282 15.7257 30.9511 15.8696 29.1946 16.6577C28.8676 17.0903 31.6798 18.5454 33.7203 19.3975C33.7203 19.3975 27.9913 23.1337 26.4871 27.5647C24.9829 31.9958 24.2504 55.3569 25.8069 56.1828C27.8081 57.2578 34.806 50.8997 36.3756 48.9332Z" fill="#455A64"/>
<path d="M34.7143 19.1877C34.7928 19.1877 34.8582 19.3057 34.7143 19.3451C32.1184 20.2348 29.8218 21.8329 28.0828 23.9596C26.1746 26.615 25.0095 29.7335 24.7082 32.9921C23.9103 39.2322 24.8259 45.4985 25.3491 51.7124C25.3491 51.896 25.0482 51.9353 25.0221 51.7124C24.0542 45.1577 23.2039 38.1179 24.3288 31.5369C25.336 25.9654 28.7499 20.3152 34.7143 19.1877Z" fill="#455A64"/>
<path d="M44.5375 29.9639C47.1095 30.5504 49.5466 31.6227 51.7184 33.1233C53.6834 34.6994 55.4414 36.5186 56.9504 38.5375C60.652 42.7325 65.0077 46.5081 70.4489 48.1205C70.4489 48.1205 70.4489 48.2516 70.4489 48.2254C65.3477 47.0718 61.1229 43.8862 57.5782 40.1631C55.9513 38.112 54.2042 36.1596 52.3462 34.3162C49.9582 32.5909 47.3082 31.2629 44.4982 30.3834C44.4613 30.3601 44.4316 30.3271 44.4123 30.2879C44.393 30.2488 44.385 30.205 44.389 30.1615C44.3931 30.118 44.4091 30.0765 44.4353 30.0416C44.4615 30.0067 44.4969 29.9798 44.5375 29.9639Z" fill="#455A64"/>
<path d="M51.9669 16.8411C55.8476 16.3995 59.7712 16.5099 63.6211 17.1689C67.339 17.6967 70.9372 18.8677 74.2552 20.6298C79.9057 23.7892 84.0521 29.636 83.215 36.3612C82.8398 39.8201 81.1883 43.0136 78.5847 45.315C78.55 45.3463 78.5043 45.3625 78.4577 45.36C78.4111 45.3575 78.3674 45.3366 78.3361 45.3018C78.3049 45.2671 78.2888 45.2213 78.2912 45.1746C78.2937 45.1279 78.3145 45.0841 78.3492 45.0528C80.5716 42.883 82.0347 40.0513 82.5203 36.9801C83.0059 33.9088 82.4879 30.7625 81.0437 28.0104C77.6691 21.9276 70.8675 19.0828 64.3536 17.8374C60.2661 17.117 56.1146 16.8271 51.9669 16.9722V16.8411Z" fill="#455A64"/>
<path d="M48.2914 65.8314C46.712 65.3895 45.288 64.5123 44.1813 63.2997C43.0746 62.087 42.3295 60.5874 42.0308 58.9714C41.7321 57.3555 41.8918 55.6879 42.4917 54.1584C43.0915 52.6288 44.1075 51.2986 45.4242 50.319C46.7408 49.3394 48.3052 48.7497 49.9396 48.6169C51.5741 48.4841 53.2128 48.8135 54.6697 49.5678C56.1266 50.322 57.3431 51.4708 58.181 52.8835C59.0189 54.2962 59.4445 55.9162 59.4094 57.5593C59.3839 58.7128 59.1319 59.85 58.6678 60.9059C58.2037 61.9618 57.5366 62.9157 56.7045 63.7132C55.8725 64.5106 54.8918 65.1358 53.8186 65.5533C52.7453 65.9707 51.6005 66.1722 50.4496 66.146C49.7197 66.1352 48.9942 66.0294 48.2914 65.8314ZM52.6732 50.0213C52.0644 49.8483 51.4356 49.7557 50.8028 49.746C48.8697 49.7051 46.9937 50.4043 45.5569 51.7011C44.1201 52.9979 43.2306 54.7949 43.0694 56.726C42.9082 58.6572 43.4875 60.5773 44.6894 62.0953C45.8912 63.6134 47.6252 64.6152 49.5382 64.8968C51.4513 65.1783 53.3994 64.7185 54.986 63.6108C56.5726 62.5032 57.6782 60.8311 58.0778 58.9351C58.4774 57.039 58.1409 55.0616 57.1368 53.4055C56.1326 51.7494 54.5364 50.5392 52.6732 50.0213Z" fill="#37474F"/>
<path d="M68.1991 68.8203C64.9684 67.9157 62.9671 63.7731 63.6604 59.2503C63.9569 57.0756 64.9268 55.049 66.4333 53.4559C67.0386 52.7363 67.8187 52.185 68.6983 51.8553C69.5779 51.5256 70.5274 51.4285 71.4553 51.5734C72.3832 51.7183 73.2583 52.1003 73.9961 52.6826C74.7339 53.2649 75.3097 54.0279 75.6678 54.898C76.6202 56.8721 76.9312 59.0956 76.5573 61.2561C75.8117 66.0542 72.3193 69.4888 68.7093 68.9383C68.5368 68.9103 68.3664 68.8709 68.1991 68.8203ZM71.7177 52.8267L71.2729 52.7218C70.5281 52.643 69.7752 52.7434 69.0768 53.0148C68.3784 53.2861 67.7547 53.7205 67.2574 54.2818C65.9351 55.7026 65.0812 57.4968 64.8114 59.4208C64.1705 63.5765 66.0148 67.2865 68.9447 67.7715C71.8746 68.2566 74.7522 65.2283 75.4062 61.0725C75.7371 59.1588 75.4675 57.1892 74.6345 55.4355C74.3539 54.8241 73.9498 54.2778 73.4477 53.831C72.9457 53.3842 72.3566 53.0467 71.7177 52.8398V52.8267Z" fill="#37474F"/>
<path d="M58.9647 58.5162L58.363 57.5068C59.8411 56.6022 63.1111 55.5928 64.903 58.1885L63.9351 58.8571C62.3263 56.5236 59.0955 58.4376 58.9647 58.5162Z" fill="#37474F"/>
<path d="M19.9994 54.7277L19.0576 54.0329C19.3715 53.5872 22.2884 49.7067 24.9305 49.6936C27.5727 49.6805 42.7194 53.6265 43.3734 53.7314L43.0856 54.8719C38.6907 53.7576 26.8533 50.8604 24.9436 50.8735C23.0339 50.8866 20.8234 53.6527 19.9994 54.7277Z" fill="#37474F"/>
<path d="M33.2364 54.2427C33.2364 54.2427 29.4301 43.9255 24.9175 45.0661C20.4049 46.2066 21.6736 60.0502 25.8592 62.9999C26.3698 63.4137 26.9587 63.7198 27.5904 63.8995C28.2221 64.0792 28.8835 64.1289 29.5349 64.0456C30.1863 63.9624 30.8141 63.7478 31.3806 63.4149C31.947 63.0819 32.4403 62.6375 32.8309 62.1084L33.2364 54.2427Z" fill="#EB9481"/>
<path d="M25.3752 49.0249V49.1429C28.279 51.3191 29.1946 54.78 29.5739 58.2278C29.4812 57.8458 29.304 57.4897 29.0555 57.1857C28.8069 56.8816 28.4933 56.6375 28.1379 56.4713C27.7824 56.3052 27.3943 56.2212 27.0021 56.2257C26.61 56.2302 26.2238 56.3231 25.8723 56.4973C25.7677 56.4973 25.8723 56.694 25.8723 56.694C26.4915 56.6602 27.1059 56.8199 27.6307 57.151C28.1555 57.4821 28.5648 57.9682 28.8022 58.5424C29.1961 59.5038 29.4813 60.5063 29.6524 61.5314C29.7309 61.8722 30.2933 61.846 30.2672 61.5314V61.4527C31.4182 57.2708 29.7178 50.6112 25.3752 49.0249Z" fill="#263238"/>
</g>
</svg>
