<svg width="604" height="582" viewBox="0 0 604 582" fill="none" xmlns="http://www.w3.org/2000/svg">
<g clip-path="url(#clip0_194_162)">
<path d="M574.657 296.758C613.669 435.794 398.314 413.245 259.59 452.345C120.866 491.445 -30.2263 471.157 -69.2384 332.12C-108.25 193.084 -84.1059 91.2668 54.6177 52.1667C193.341 13.0667 535.645 157.721 574.657 296.758Z" fill="#33FF00" fill-opacity="0.2"/>
<path d="M548.973 317.306H383V340.916H548.973V317.306Z" fill="#455A64"/>
<path d="M545.023 340.916H386.964V348.585H545.023V340.916Z" fill="#455A64"/>
<path d="M545.023 340.916H386.964V343.46H545.023V340.916Z" fill="#263238"/>
<path d="M388.52 510.501H382.203L400.593 348.572H416.721L388.52 510.501Z" fill="#455A64"/>
<path d="M416.721 348.585L414.837 359.414H399.364L400.593 348.585H416.721Z" fill="#263238"/>
<path d="M543.466 510.501H549.784L531.393 348.572H515.252L543.466 510.501Z" fill="#455A64"/>
<path d="M515.252 348.585L517.149 359.414H532.61L531.38 348.585H515.252Z" fill="#263238"/>
<path d="M506.672 412.979C505.396 417.655 504.551 422.438 504.147 427.269C504.278 427.504 504.252 428.383 504.147 428.147C504.147 428.933 502.931 428.789 502.931 428.016C502.931 427.504 502.931 427.006 502.931 426.508C500.145 423.047 496.103 420.858 492.833 417.843C490.201 415.479 488.285 412.422 487.3 409.02C484.593 399.647 487.13 389.723 483.873 380.389C481.061 372.34 476.025 365.339 471.748 358.103C467.249 350.381 463.9 342.28 463.586 333.195C463.324 326.273 464.149 317.044 469.407 311.866C474.979 306.36 481.898 310.489 486.162 315.392C498.536 329.629 504.265 347.615 506.58 366.008C507.888 376.181 509.196 386.432 508.869 396.71C508.681 402.193 507.945 407.643 506.672 412.979Z" fill="#CC00FF"/>
<path d="M504.213 431.005C504.885 421.398 504.771 411.752 503.873 402.164C503.873 402.164 503.873 402.098 503.873 402.059C504.03 394.259 504.644 386.498 504.344 378.685C503.968 370.247 502.821 361.861 500.917 353.632C500.922 353.62 500.924 353.607 500.923 353.594C500.922 353.581 500.917 353.569 500.91 353.558C500.903 353.547 500.893 353.538 500.882 353.532C500.871 353.526 500.858 353.522 500.845 353.522C500.832 353.522 500.819 353.526 500.807 353.532C500.796 353.538 500.786 353.547 500.779 353.558C500.772 353.569 500.768 353.581 500.767 353.594C500.765 353.607 500.768 353.62 500.773 353.632C502.283 361.721 503.188 369.911 503.48 378.134C503.637 382.504 503.602 386.909 503.376 391.349C503.297 392.777 503.166 394.219 503.062 395.662C499.829 373.776 491.938 352.843 479.923 334.283C479.766 334.034 479.308 334.283 479.465 334.571C488.067 348.685 494.438 364.047 498.353 380.114C492.402 369.062 483.403 359.977 476.732 349.359C476.732 349.359 476.601 349.359 476.64 349.424C482.631 361.223 492.519 370.57 498.876 382.198C499.962 386.944 500.864 391.742 501.492 396.553C502.383 403.168 502.864 409.831 502.931 416.506C499.308 409.715 495.541 403.226 492.572 396.042C492.493 395.845 492.218 395.976 492.284 396.173C494.808 403.632 498.196 411.668 502.944 418.026C502.944 422.746 502.826 427.478 502.552 432.185C501.819 444.783 499.674 457.198 498.628 469.756C498.619 469.833 498.641 469.91 498.689 469.97C498.737 470.03 498.806 470.069 498.883 470.078C498.959 470.086 499.036 470.064 499.096 470.016C499.156 469.968 499.194 469.898 499.203 469.822C501.742 457.01 503.415 444.042 504.213 431.005Z" fill="#263238"/>
<path d="M490.871 333.903C490.871 333.811 490.688 333.903 490.727 333.968C493.016 340.326 494.324 346.763 495.959 353.279C495.97 353.341 496.004 353.397 496.056 353.434C496.107 353.471 496.171 353.486 496.234 353.475C496.296 353.465 496.352 353.43 496.389 353.378C496.426 353.327 496.44 353.262 496.43 353.2C495.776 346.593 493.422 339.999 490.871 333.903Z" fill="#263238"/>
<path d="M549.13 360.554C547.621 364.286 545.873 367.916 543.898 371.422C539.764 378.934 535.461 385.842 534.742 394.586C534.61 398.503 534.053 402.393 533.08 406.188C531.995 409.428 530.439 412.489 528.463 415.273C523.99 421.828 518.392 427.452 514.232 434.23C509.919 441.309 506.733 449.018 504.788 457.079C504.684 457.512 503.99 457.394 504.095 456.961C504.095 456.961 504.095 456.896 504.095 456.857C504.089 456.842 504.086 456.826 504.086 456.811C504.086 456.795 504.089 456.779 504.095 456.765C503.441 437.992 504.932 419.062 510.635 401.076C513.157 393.165 516.189 385.427 519.713 377.911C522.773 371.356 526.58 365.116 531.955 360.253C535.448 357.106 543.008 351.076 547.978 354.288C550.254 355.809 550.071 358.208 549.13 360.554Z" fill="#CC00FF"/>
<path d="M530.308 403.121C527.009 408.585 523.374 413.839 519.425 418.852C517.607 421.225 515.763 423.585 513.958 425.958C513.094 427.085 512.139 428.199 511.342 429.405L512.833 423.375C515.253 413.897 517.581 404.327 521.178 395.203C524.867 386.367 529.213 377.822 534.179 369.639C534.31 369.429 533.957 369.272 533.839 369.482C529.915 376.037 525.86 382.513 522.525 389.395C520.693 393.229 519.09 397.169 517.725 401.194C519.25 392.63 521.387 384.188 524.121 375.932C524.121 375.866 524.042 375.814 524.003 375.932C520.435 384.269 518.197 393.117 517.371 402.151C516.561 404.589 515.811 407.049 515.122 409.531C512.166 420.019 509.576 430.651 507.182 441.309C507.136 434.307 507.74 427.315 508.987 420.425C508.979 420.399 508.962 420.376 508.94 420.36C508.917 420.344 508.891 420.335 508.863 420.335C508.835 420.335 508.809 420.344 508.786 420.36C508.764 420.376 508.747 420.399 508.739 420.425C506.912 427.609 506.302 435.05 506.934 442.436C506.018 446.487 505.142 450.538 504.318 454.602C502.473 463.254 500.211 472.064 499.086 480.821C499.081 480.843 499.081 480.866 499.086 480.889C499.091 480.911 499.1 480.932 499.112 480.951C499.125 480.97 499.141 480.986 499.16 480.999C499.179 481.011 499.201 481.02 499.223 481.024C499.245 481.028 499.268 481.028 499.291 481.024C499.313 481.019 499.334 481.01 499.353 480.997C499.372 480.984 499.388 480.968 499.4 480.949C499.413 480.93 499.421 480.909 499.426 480.886C500.734 476.141 501.492 471.238 502.539 466.466C503.585 461.694 504.684 456.857 505.796 452.045C507.418 445.058 509.131 438.084 510.858 431.07C512.022 428.527 514.272 426.259 515.946 424.122C517.79 421.776 519.634 419.416 521.426 417.03C524.796 412.616 527.813 407.943 530.451 403.055C530.53 403.095 530.36 403.016 530.308 403.121Z" fill="#263238"/>
<path d="M531.105 395.085C526.979 400.361 523.407 406.05 520.445 412.062C520.445 412.127 520.536 412.219 520.576 412.14C524.16 406.503 527.691 400.827 531.275 395.19C531.327 395.098 531.17 395.006 531.105 395.085Z" fill="#263238"/>
<path d="M451.356 378.357C453.789 382.552 456.589 387.534 455.516 392.607C454.849 395.793 452.521 398.375 452.102 401.626C451.16 408.797 458.302 413.543 463.455 416.925C476.326 425.394 493.958 432.932 496.299 450.21C496.391 450.813 497.45 450.669 497.372 450.066C497.378 450.027 497.378 449.987 497.372 449.948C497.372 449.948 497.437 449.948 497.437 449.856C499.121 441.132 499.037 432.157 497.189 423.467C495.279 414.565 491.394 406.555 486.816 398.742C479.073 385.502 470.885 371.946 459.178 361.8C455.934 359.007 449.303 353.934 446.713 360.292C444.123 366.65 448.348 373.244 451.356 378.357Z" fill="#CC00FF"/>
<path d="M463.128 406.424C471.656 415.68 485.22 420.845 492.558 431.227C488.46 415.451 480.712 400.865 469.943 388.648C469.912 388.617 469.887 388.58 469.871 388.54C469.854 388.499 469.845 388.456 469.845 388.412C469.845 388.368 469.854 388.325 469.871 388.284C469.887 388.244 469.912 388.207 469.943 388.176C469.974 388.145 470.011 388.12 470.051 388.104C470.091 388.087 470.135 388.078 470.178 388.078C470.222 388.078 470.265 388.087 470.306 388.104C470.346 388.12 470.383 388.145 470.414 388.176C478.262 395.822 484.541 404.934 488.896 414.998C486.867 407.969 484.201 401.141 480.93 394.6C480.91 394.55 480.909 394.495 480.926 394.445C480.944 394.394 480.978 394.352 481.024 394.325C481.07 394.298 481.124 394.288 481.176 394.298C481.229 394.307 481.276 394.335 481.309 394.377C485.359 401.522 488.255 409.265 489.89 417.318C499.569 440.784 500.459 468.314 498.431 493.052C498.431 493.406 497.869 493.419 497.882 493.052C498.431 473.558 498.117 453.723 493.461 434.675L493.147 433.495C485.168 422.339 471.67 417.161 462.984 406.568C462.893 406.464 463.037 406.333 463.128 406.424Z" fill="#263238"/>
<path d="M461.153 398.467C465.627 402.583 470.035 406.805 474.521 410.908C474.521 410.908 474.521 411.039 474.456 411C469.383 407.572 464.817 403.445 460.892 398.742C460.869 398.705 460.859 398.662 460.864 398.619C460.868 398.576 460.887 398.535 460.917 398.504C460.947 398.472 460.986 398.452 461.029 398.445C461.072 398.438 461.115 398.446 461.153 398.467Z" fill="#263238"/>
<path d="M460.447 380.638C464.408 387.142 468.887 393.315 473.841 399.096C473.906 399.175 473.841 399.293 473.723 399.214C468.165 393.914 463.586 387.669 460.198 380.769C460.19 380.737 460.192 380.704 460.205 380.674C460.218 380.644 460.241 380.619 460.27 380.604C460.299 380.588 460.332 380.584 460.365 380.59C460.397 380.596 460.426 380.613 460.447 380.638Z" fill="#263238"/>
<path d="M480.604 510.501H519.817L514.533 457.617H486.646L480.604 510.501Z" fill="#455A64"/>
<path d="M485.652 466.217H515.396L514.533 457.617H486.633L485.652 466.217Z" fill="#263238"/>
<path d="M481.833 460.199H518.587V451.757H481.833V460.199Z" fill="#455A64"/>
<path d="M55.1631 149.924H48.0999V503.422H55.1631V149.924Z" fill="#263238"/>
<path d="M172.076 24.9205L4.21655 193.158L9.211 198.164L177.07 29.9262L172.076 24.9205Z" fill="#263238"/>
<path d="M13.3333 503.422V510.501H89.9166V503.422H13.3333Z" fill="#263238"/>
<path d="M177.788 51.0127L201.463 28.7266L179.174 10.583L161.438 27.2845L177.788 51.0127Z" fill="#CC00FF"/>
<path opacity="0.1" d="M201.463 28.7266L177.788 51.0127L171.287 41.5739L191.574 20.6904L201.463 28.7266Z" fill="black"/>
<path d="M175.342 88.2307L239.225 28.0581L208.709 11.5925L160.836 56.6892L175.342 88.2307Z" fill="#CC00FF"/>
<path opacity="0.6" d="M424.555 278.594C424.555 278.594 401.861 268.106 401.861 254.066C401.861 240.025 431.291 230.98 431.291 219.981C431.291 208.982 418.46 202.545 418.46 202.545C418.46 202.545 438.734 209.493 438.734 223.376C438.734 237.259 419.323 246.685 417.479 255.573C414.889 267.791 424.555 278.594 424.555 278.594Z" fill="#DBDBDB"/>
<path opacity="0.6" d="M423.496 278.594C423.496 278.594 446.202 270.361 446.202 259.31C446.202 248.258 416.694 241.153 416.694 232.527C416.694 223.901 429.539 218.867 429.539 218.867C429.539 218.867 409.251 224.32 409.251 235.24C409.251 246.161 431.487 253.672 433.136 262.534C434.784 271.396 423.496 278.594 423.496 278.594Z" fill="#DBDBDB"/>
<path d="M435.111 313.924H413.516V317.306H435.111V313.924Z" fill="#CC00FF"/>
<path opacity="0.1" d="M435.111 313.924H413.516V316.152H435.111V313.924Z" fill="black"/>
<path d="M460.748 304.839C459.436 306.791 457.592 308.324 455.435 309.253C453.278 310.183 450.899 310.471 448.583 310.083C447.837 309.944 447.105 309.733 446.399 309.453C445.323 309.03 444.296 308.49 443.338 307.841L446.085 303.764C446.596 304.124 447.139 304.436 447.707 304.695C449.276 305.421 451.054 305.556 452.714 305.074C454.375 304.592 455.806 303.527 456.745 302.073C459.701 297.904 460.761 288.386 457.766 284.716C457.569 284.454 456.693 284.021 453.214 284.716C452.573 284.86 451.906 285.017 451.029 285.24C450.389 285.457 449.727 285.602 449.054 285.673L448.963 283.221L448.727 280.783C448.95 280.783 449.303 280.639 449.761 280.508C451.366 280.039 453.006 279.697 454.666 279.485C457.282 279.223 459.898 279.485 461.559 281.556C466.425 287.521 464.449 299.621 460.748 304.839Z" fill="#CC00FF"/>
<path opacity="0.1" d="M446.085 303.738C446.596 304.098 447.139 304.41 447.707 304.668L446.399 309.427C445.323 309.004 444.296 308.463 443.338 307.815L446.085 303.738Z" fill="black"/>
<path opacity="0.1" d="M454.665 279.472L453.213 284.716C452.573 284.86 451.905 285.017 451.029 285.24C450.389 285.457 449.726 285.602 449.054 285.673L448.962 283.221L448.727 280.783C448.949 280.783 449.303 280.639 449.76 280.508C451.366 280.034 453.006 279.688 454.665 279.472Z" fill="black"/>
<path d="M395.596 273.101C395.596 273.101 395.779 274.713 396.146 277.257C396.211 277.637 396.263 278.069 396.329 278.489C396.59 280.232 396.93 282.304 397.31 284.519C397.318 284.65 397.318 284.782 397.31 284.913C397.885 288.098 398.618 291.559 399.389 294.836C399.389 294.981 399.481 295.125 399.507 295.256C399.729 296.134 399.965 296.999 400.2 297.878C400.436 298.756 400.697 299.53 400.946 300.303C401.409 301.73 401.96 303.126 402.594 304.485C407.067 313.767 413.32 314.802 417.191 314.802H431.344C435.268 314.802 441.468 313.767 445.928 304.485L446.333 303.58C446.438 303.358 446.53 303.122 446.621 302.886C446.713 302.65 446.817 302.401 446.909 302.151L447.105 301.627C448.035 298.992 448.808 296.304 449.42 293.578C449.457 293.466 449.488 293.352 449.512 293.237C449.512 293.237 449.512 293.158 449.512 293.106C449.787 291.952 450.035 290.786 450.271 289.632C450.676 287.744 451.042 285.87 451.343 284.1C451.474 283.287 451.618 282.487 451.749 281.727C451.749 281.504 451.814 281.307 451.853 281.098C451.932 280.586 452.023 280.088 452.089 279.603C452.154 279.118 452.22 278.672 452.285 278.292C452.35 277.912 452.403 277.427 452.468 276.981C452.808 274.635 452.978 273.153 452.978 273.153L395.596 273.101Z" fill="#CC00FF"/>
<path opacity="0.1" d="M397.336 284.912C397.911 288.098 398.644 291.559 399.416 294.836C399.782 294.836 400.135 294.954 400.488 295.033C402.217 295.437 403.861 296.148 405.341 297.13C406.793 298.136 408.151 299.272 409.396 300.526C410.601 301.76 411.914 302.883 413.32 303.882C414.723 304.819 416.357 305.35 418.042 305.416C418.863 305.392 419.67 305.198 420.413 304.846C421.156 304.494 421.818 303.992 422.358 303.371C423.551 302.122 424.632 300.771 425.589 299.333C426.572 297.866 427.633 296.452 428.767 295.098C429.36 294.418 430.026 293.807 430.755 293.276C431.173 293.026 431.61 292.811 432.063 292.634C432.514 292.479 432.987 292.4 433.463 292.398C434.404 292.379 435.334 292.61 436.157 293.066C436.947 293.509 437.676 294.051 438.329 294.679C439.637 295.885 440.762 297.301 441.926 298.546C442.954 299.896 444.341 300.928 445.928 301.522C446.329 301.607 446.744 301.607 447.145 301.522C448.074 298.887 448.847 296.199 449.46 293.473C449.002 293.355 448.531 293.237 448.073 293.093C446.382 292.512 444.812 291.623 443.443 290.471C442.099 289.331 440.856 288.077 439.728 286.721C438.642 285.376 437.443 284.126 436.144 282.985C434.833 281.916 433.254 281.227 431.579 280.993C430.76 280.942 429.94 281.06 429.168 281.34C428.396 281.619 427.69 282.054 427.093 282.618C425.785 283.735 424.585 284.973 423.509 286.315C422.358 287.626 421.22 288.937 419.925 290.248C419.272 290.873 418.547 291.418 417.767 291.874C417.348 292.089 416.91 292.264 416.459 292.398C415.987 292.504 415.502 292.54 415.02 292.503C414.083 292.414 413.183 292.089 412.404 291.559C411.659 291.043 410.987 290.43 410.403 289.737C409.199 288.426 408.232 286.944 407.185 285.555C406.294 284.108 405.016 282.941 403.497 282.186C401.914 281.622 400.227 282.513 398.906 283.562C398.395 284.047 397.885 284.414 397.336 284.912Z" fill="black"/>
<path d="M397.336 284.519C397.344 284.65 397.344 284.782 397.336 284.913C397.846 284.467 398.356 284.047 398.879 283.602C400.187 282.553 401.888 281.661 403.47 282.225C404.99 282.981 406.268 284.148 407.159 285.594C408.205 286.984 409.173 288.465 410.377 289.776C410.96 290.47 411.633 291.082 412.378 291.598C413.157 292.128 414.057 292.453 414.994 292.542C415.476 292.579 415.961 292.544 416.433 292.437C416.884 292.304 417.322 292.128 417.741 291.913C418.521 291.458 419.246 290.912 419.899 290.287C421.207 289.055 422.332 287.666 423.483 286.355C424.559 285.012 425.759 283.774 427.067 282.658C427.664 282.094 428.37 281.659 429.142 281.379C429.914 281.1 430.734 280.981 431.553 281.032C433.228 281.266 434.807 281.955 436.118 283.025C437.417 284.165 438.616 285.415 439.702 286.761C440.83 288.116 442.073 289.371 443.417 290.51C444.786 291.663 446.356 292.552 448.047 293.132C448.505 293.276 448.976 293.394 449.434 293.512C449.47 293.4 449.501 293.287 449.525 293.171C449.08 293.04 448.623 292.909 448.217 292.739C444.998 291.442 442.225 289.232 440.238 286.381C439.154 284.976 437.936 283.681 436.602 282.513C435.196 281.35 433.5 280.593 431.697 280.324C430.772 280.252 429.842 280.371 428.965 280.673C428.088 280.975 427.281 281.454 426.596 282.081C425.241 283.223 423.993 284.486 422.868 285.856C421.717 287.167 420.618 288.478 419.389 289.724C418.159 290.969 416.694 291.979 415.086 291.782C414.268 291.666 413.482 291.388 412.772 290.965C412.063 290.542 411.444 289.982 410.952 289.317C409.801 288.006 408.807 286.604 407.721 285.214C406.724 283.696 405.318 282.491 403.667 281.74C402.77 281.465 401.805 281.521 400.946 281.897C400.121 282.246 399.353 282.719 398.67 283.3C398.186 283.706 397.754 284.1 397.336 284.519Z" fill="white"/>
<path d="M399.455 294.902C399.455 295.046 399.546 295.19 399.572 295.321L400.422 295.505C403.749 296.494 406.722 298.419 408.99 301.05C410.177 302.346 411.492 303.519 412.914 304.55C414.428 305.572 416.192 306.157 418.015 306.242C418.94 306.23 419.853 306.026 420.695 305.643C421.537 305.259 422.29 304.704 422.907 304.013C424.15 302.743 425.279 301.365 426.282 299.897C427.226 298.442 428.256 297.045 429.369 295.715C430.467 294.404 431.815 293.211 433.423 293.224C435.088 293.314 436.651 294.052 437.779 295.282C439.087 296.436 440.186 297.773 441.402 299.044C442.534 300.461 444.045 301.525 445.758 302.112C446.134 302.184 446.52 302.184 446.896 302.112L447.092 301.588C446.691 301.673 446.277 301.673 445.875 301.588C444.288 300.993 442.901 299.962 441.873 298.612C440.709 297.301 439.597 295.99 438.276 294.744C437.624 294.117 436.894 293.575 436.105 293.132C435.281 292.675 434.351 292.445 433.41 292.463C432.934 292.465 432.461 292.545 432.011 292.699C431.558 292.877 431.12 293.091 430.703 293.342C429.974 293.872 429.307 294.484 428.715 295.164C427.581 296.518 426.52 297.931 425.536 299.398C424.579 300.836 423.498 302.188 422.305 303.436C421.766 304.057 421.104 304.56 420.361 304.911C419.618 305.263 418.81 305.457 417.989 305.481C416.304 305.415 414.67 304.885 413.267 303.947C411.861 302.949 410.548 301.826 409.343 300.591C408.098 299.338 406.741 298.201 405.288 297.196C403.808 296.213 402.165 295.503 400.436 295.098C400.174 294.902 399.821 294.902 399.455 294.902Z" fill="white"/>
<path d="M170.908 429.13L71.0293 509.845H76.6537L192.006 429.13H170.908Z" fill="#C7C7C7"/>
<path d="M180.286 429.13L130.936 509.845H136.56L197.055 429.13H180.286Z" fill="#C7C7C7"/>
<path d="M204.484 429.13L253.835 509.845H248.211L187.716 429.13H204.484Z" fill="#C7C7C7"/>
<path d="M213.104 429.13L312.97 509.845H307.346L192.006 429.13H213.104Z" fill="#C7C7C7"/>
<path d="M379.796 399.529V375.919L242.639 370.268L170.202 176.418H4.21655L62.9457 399.529L203.255 439.002H212.045L379.796 399.529Z" fill="#455A64"/>
<path d="M4.21655 176.418H23.2087L84.3969 379.786L208.539 415.037L379.796 375.919V399.529L212.045 439.002H203.255L62.9457 399.529L4.21655 176.418Z" fill="#37474F"/>
<path d="M480.655 509.032C476.221 509.137 361.457 473.637 357.939 469.455C357.56 468.996 359.352 451.967 362.321 438.451C362.451 437.795 321.55 384.099 321.55 384.099L395.492 355.258L430.873 428.671L440.029 447.772C440.029 447.772 478.314 486.353 481.715 491.295C485.116 496.238 485.076 508.928 480.655 509.032Z" fill="#EBEBEB"/>
<path d="M483.886 509.688C479.269 509.806 359.456 473.152 355.768 468.852C354.355 467.239 356.5 459.806 362.308 438.451L440.788 447.929C440.788 447.929 481.336 486.078 484.867 491.19C488.399 496.303 488.49 509.557 483.886 509.688Z" fill="#CC00FF"/>
<path d="M483.664 504.352C463.73 497.719 382.699 472.89 362.491 467.777C362.334 467.777 362.295 467.842 362.491 467.908C382.111 474.922 463.338 499.148 483.612 504.615C483.952 504.798 484.043 504.497 483.664 504.352Z" fill="#263238"/>
<path d="M478.563 484.544C476.347 483.803 474.002 483.531 471.677 483.745C469.351 483.96 467.095 484.656 465.051 485.789C461.355 487.795 458.572 491.153 457.282 495.163C457.282 495.281 457.478 495.359 457.53 495.241C461.075 487.703 470.336 482.971 478.458 484.754C478.483 484.754 478.506 484.747 478.527 484.734C478.548 484.721 478.564 484.703 478.575 484.681C478.586 484.659 478.591 484.635 478.589 484.611C478.586 484.587 478.577 484.563 478.563 484.544Z" fill="#263238"/>
<path d="M448.976 455.873C440.971 453.252 430.795 453.252 423.784 458.351C423.509 458.548 423.784 458.928 424.072 458.876C432.227 457.338 440.523 456.674 448.819 456.896C448.943 456.895 449.062 456.849 449.156 456.768C449.249 456.686 449.311 456.574 449.33 456.451C449.349 456.329 449.323 456.203 449.259 456.097C449.194 455.992 449.094 455.912 448.976 455.873Z" fill="#263238"/>
<path d="M454.443 460.186C446.438 457.565 436.262 457.565 429.251 462.677C428.976 462.874 429.251 463.254 429.539 463.202C437.694 461.658 445.99 460.995 454.286 461.222C454.42 461.236 454.554 461.198 454.66 461.115C454.766 461.033 454.837 460.912 454.857 460.779C454.877 460.646 454.845 460.51 454.768 460.4C454.691 460.29 454.575 460.213 454.443 460.186Z" fill="#263238"/>
<path d="M459.911 464.513C451.906 461.891 441.729 461.891 434.718 467.003C434.444 467.2 434.718 467.58 435.006 467.528C443.161 465.984 451.458 465.32 459.754 465.548C459.887 465.562 460.021 465.524 460.127 465.441C460.234 465.359 460.304 465.239 460.324 465.105C460.344 464.972 460.313 464.836 460.236 464.726C460.159 464.616 460.042 464.539 459.911 464.513Z" fill="#263238"/>
<path d="M465.352 468.839C457.347 466.217 447.171 466.217 440.16 471.316C439.885 471.513 440.16 471.906 440.448 471.854C448.602 470.31 456.899 469.646 465.195 469.874C465.329 469.888 465.462 469.85 465.569 469.767C465.675 469.685 465.745 469.565 465.766 469.432C465.786 469.298 465.754 469.163 465.677 469.052C465.6 468.942 465.484 468.865 465.352 468.839Z" fill="#263238"/>
<path d="M464.214 437.022C461.18 432.394 455.058 434.138 451.461 436.878C445.409 441.698 440.727 448.027 437.884 455.231C437.819 455.401 437.884 455.506 438.067 455.546C438.067 456.175 438.59 456.857 439.31 456.634C446.242 454.418 453.933 452.911 459.976 448.624C463.508 446.133 467.092 441.401 464.214 437.022ZM449.133 451.128C445.758 452.308 442.331 453.304 438.996 454.602C441.538 450.949 444.262 447.427 447.158 444.049C448.586 442.436 450.12 440.921 451.749 439.513C454.365 437.389 464.253 433.063 462.383 442.135C461.35 447.051 453.175 449.738 449.133 451.128Z" fill="#263238"/>
<path d="M416.956 452.124C423.627 455.349 431.449 455.559 438.656 456.594C439.401 456.699 439.807 455.926 439.702 455.284C439.737 455.275 439.769 455.258 439.796 455.234C439.823 455.211 439.843 455.181 439.856 455.147C439.869 455.114 439.873 455.078 439.869 455.042C439.865 455.007 439.853 454.972 439.833 454.943C435.861 448.325 430.228 442.865 423.496 439.106C419.507 436.996 413.176 436.301 410.939 441.361C408.794 446.172 413.11 450.249 416.956 452.124ZM413.49 446.054C410.154 437.481 420.684 440.09 423.548 441.755C425.374 442.876 427.122 444.12 428.78 445.478C432.194 448.327 435.464 451.346 438.577 454.523C435.072 453.802 431.527 453.383 427.996 452.78C423.901 452.072 415.386 450.787 413.542 446.054H413.49Z" fill="#263238"/>
<path d="M434.614 432.145L353.099 444.219C353.099 444.219 308.627 363.268 290.655 343.132C289.649 341.97 288.551 340.892 287.372 339.907C285.515 339.065 283.521 338.567 281.486 338.439C257.38 335.502 176.271 343.407 120.21 339.75L146.37 304.682L157.972 289.121C221.122 281.91 298.621 256.032 333.584 273.612C371.477 292.686 434.614 432.145 434.614 432.145Z" fill="#263238"/>
<path d="M424.398 418.275C410.547 420.071 414.497 419.364 400.658 421.304C393.883 422.248 359.849 426.928 353.675 428.868C353.64 428.868 353.607 428.882 353.582 428.906C353.558 428.931 353.544 428.964 353.544 428.999C353.544 429.034 353.558 429.067 353.582 429.092C353.607 429.116 353.64 429.13 353.675 429.13C360.136 429.13 394.079 423.768 400.828 422.693C414.628 420.504 410.638 420.989 424.372 418.656C424.401 418.665 424.431 418.668 424.46 418.664C424.49 418.66 424.518 418.649 424.543 418.632C424.568 418.615 424.589 418.593 424.603 418.567C424.618 418.541 424.627 418.512 424.629 418.482C424.631 418.453 424.627 418.423 424.615 418.395C424.604 418.367 424.587 418.342 424.564 418.322C424.542 418.302 424.516 418.288 424.487 418.28C424.458 418.271 424.428 418.27 424.398 418.275Z" fill="#37474F"/>
<path d="M353.518 427.727C344.296 412.271 302.297 335.961 293.938 332.972C286.326 330.232 134.088 333.405 131.838 333.418C131.681 333.418 131.668 333.667 131.838 333.667C149.862 333.444 289.007 332.946 292.984 334.519C301.237 337.783 351.451 426.285 352.694 428.134C353.008 428.619 353.832 428.252 353.518 427.727Z" fill="#37474F"/>
<path d="M77.53 307.815C77.53 307.815 72.7165 353.895 96.012 376.705C123.885 404.091 307.908 397.182 336.357 387.94C364.806 378.698 365.748 332.605 334.591 321.92C304.952 311.761 173.498 305.914 170.385 304.668C167.272 303.423 158.155 288.845 158.155 288.845L77.53 307.815Z" fill="#263238"/>
<path d="M116.456 306.517C116.456 306.294 116.077 306.373 116.077 306.582C116.08 312.552 113.982 318.332 110.151 322.904C105.783 327.964 99.3473 330.77 93.5136 333.745C92.9511 334.034 93.3828 334.912 93.9583 334.742C97.5442 333.633 101 332.138 104.265 330.284C107.259 328.687 109.894 326.492 112.009 323.835C113.908 321.415 115.285 318.626 116.051 315.645C116.816 312.663 116.954 309.555 116.456 306.517Z" fill="#37474F"/>
<path d="M169.129 301.798C167.821 300.133 166.408 298.546 165.048 296.934C161.844 293.093 158.613 289.252 155.251 285.555C154.924 285.201 154.309 285.699 154.597 286.079C156.86 289.055 159.267 291.926 161.621 294.823L165.271 299.267C166.545 300.592 167.684 302.042 168.671 303.594C169.561 305.245 168.397 306.648 166.696 306.832C165.186 306.867 163.719 306.329 162.589 305.324C159.973 303.279 157.841 300.355 155.644 297.865C154.336 296.344 152.936 294.81 151.563 293.316C150.189 291.821 148.541 290.183 147.089 288.596C146.998 288.491 146.815 288.596 146.893 288.74C148.201 290.497 149.339 292.319 150.621 294.076C151.903 295.833 153.237 297.563 154.545 299.32C155.853 301.077 157.069 302.545 158.469 304.105C159.576 305.483 160.902 306.67 162.393 307.618C164.839 309.06 169.064 309.362 170.372 306.202C170.581 305.424 170.576 304.604 170.358 303.828C170.139 303.052 169.714 302.351 169.129 301.798Z" fill="#37474F"/>
<path d="M332.459 388.11C322.636 388.294 312.839 388.871 303.016 389.08C293.193 389.29 283.54 389.343 273.795 389.251C254.236 389.067 234.695 388.307 215.171 386.97C195.446 385.659 174.178 383.627 154.597 380.913C145.219 379.602 135.723 378.527 126.449 376.535C118.107 374.951 110.391 371.007 104.213 365.169C91.5256 352.833 86.5945 334.702 84.5932 317.385C84.3185 315.051 84.0962 312.731 83.9131 310.397C83.9131 310.24 83.6515 310.24 83.6645 310.397C84.8156 328.161 87.5885 346.684 98.7196 360.961C103.423 367.193 109.686 372.068 116.875 375.093C125.651 378.619 135.383 379.445 144.643 380.704C164.263 383.325 185.662 385.436 205.439 386.983C225.216 388.53 245.307 389.487 265.267 389.788C285.227 390.09 305.201 389.788 325.134 388.818C327.58 388.7 330 388.556 332.433 388.333C332.59 388.333 332.59 388.11 332.459 388.11Z" fill="#37474F"/>
<path d="M358.659 345.124C356.788 337.412 352.097 330.684 345.513 326.273C338.45 321.435 330 319.233 321.629 318.014C312.172 316.637 302.585 315.929 293.062 315.012C273.538 313.107 253.997 311.359 234.438 309.768C214.896 308.156 172.805 304.878 170.437 304.786C170.241 304.786 170.189 305.127 170.437 305.153C189.299 307.251 206.473 309.086 225.373 310.777C244.274 312.469 263.305 314.317 282.337 316.205C291.789 317.131 301.246 318.084 310.707 319.063C319.458 319.967 328.47 320.859 336.684 324.306C343.734 327.217 350.078 331.897 353.688 338.727C357.027 345.504 358.017 353.203 356.5 360.607C355.182 367.492 352.017 373.887 347.344 379.104C342.859 384.249 336.882 387.861 330.249 389.434C328.522 389.815 326.442 390.077 324.847 390.405C324.729 390.405 324.598 390.68 324.729 390.68C338.855 391.047 351.922 380.703 357.024 367.764C359.865 360.563 360.436 352.661 358.659 345.124Z" fill="#37474F"/>
<path d="M132.453 194.588C141.805 231.294 160.392 275.185 168.031 282.186C177.71 291.048 236.897 302.676 239.971 302.977C245.098 303.489 255.667 250.539 250.892 250.723C238.231 250.998 199.226 247.026 196.427 244.286C193.628 241.546 173.707 217.569 153.263 190.537C139.228 171.935 126.658 171.804 132.453 194.588Z" fill="#EB9481"/>
<path d="M235.223 300.788C236.073 301.194 248.303 306.963 255.745 308.942C261.33 310.424 277.536 314.252 279.773 308.247C281.29 304.157 272.03 300.775 265.542 298.245C262.115 296.934 257.851 293.46 258.806 291.257C260.454 287.325 269.27 291.022 275.09 294.22C286.339 300.421 301.394 311.682 308.039 305.888C310.537 303.685 307.477 299.884 303.029 296.174C310.197 300.447 317.823 303.908 320.7 301.575C322.349 300.264 322.388 298.481 321.407 296.488C323.604 297.157 325.527 296.96 326.835 295.505C329.072 293.053 327.868 289.527 325.265 285.935C325.695 285.88 326.106 285.723 326.463 285.477C326.821 285.23 327.114 284.902 327.319 284.519C332.002 276.968 307.163 256.229 298.7 254.446C273.848 249.202 247.753 250.867 247.753 250.867C238.218 258.89 235.144 300.762 235.223 300.788Z" fill="#EB9481"/>
<path d="M271.061 277.073C276.98 277.874 282.661 279.93 287.725 283.103C294.108 287.102 298.385 291.86 303.761 296.632C303.905 296.763 303.761 296.986 303.578 296.855C300.962 294.587 290.407 286.092 287.673 284.178C282.731 280.627 277.045 278.255 271.048 277.243C271.048 277.243 271.009 277.06 271.061 277.073Z" fill="#263238"/>
<path d="M275.43 266.428C281.97 268.054 288.68 269.705 294.802 272.642C301.486 275.854 306.783 281.229 312.002 286.407C315.124 289.518 318.176 292.691 321.158 295.924C321.289 296.069 321.158 296.291 320.975 296.147C315.673 290.816 310.223 285.633 304.625 280.599C299.454 275.932 293.419 272.329 286.862 269.994C283.108 268.683 279.25 267.621 275.404 266.585L275.43 266.428Z" fill="#263238"/>
<path d="M282.153 257.055C288.51 258.208 294.043 259.192 299.733 262.443C307.241 266.769 314.579 274.163 317.155 276.784C319.994 279.682 322.74 282.684 325.435 285.712C325.553 285.83 325.33 286.027 325.226 285.909C319.054 279.263 312.461 273.023 305.488 267.228C302.202 264.422 298.505 262.141 294.527 260.463C290.506 258.991 286.366 257.868 282.153 257.107C282.153 257.107 282.127 257.055 282.153 257.055Z" fill="#263238"/>
<path d="M246.798 247.17L229.009 308.785C229.009 308.785 176.546 295.138 166.775 285.07C157.004 275.002 138.156 222.275 132.361 196.633C126.567 170.991 139.595 171.332 151.981 187.286C164.368 203.24 194.988 241.887 196.676 242.7C198.363 243.513 246.798 247.17 246.798 247.17Z" fill="#CC00FF"/>
<path d="M223.372 281.714C225.53 274.464 227.754 267.214 229.637 259.873C230.71 255.704 231.809 251.535 232.842 247.354C232.842 247.196 232.62 247.104 232.567 247.262C230.108 254.459 227.662 261.682 225.543 268.997C223.424 276.312 221.253 283.536 219.226 290.851C218.075 294.994 217.054 299.175 216.165 303.397C216.165 303.475 216.283 303.528 216.309 303.397C218.99 296.318 221.188 289.029 223.372 281.714Z" fill="#263238"/>
<path opacity="0.1" d="M221.449 306.7C206.551 302.492 174.217 292.713 166.762 285.044C157.004 274.975 138.156 222.249 132.361 196.62C129.601 184.31 131.145 177.965 134.886 176.497C135.294 176.693 135.692 176.912 136.076 177.152C155.356 203.673 195.302 267.005 221.449 306.7Z" fill="black"/>
<path d="M72.2326 315.785C72.5203 316.087 183.413 291.729 184.459 290.445C185.898 288.622 166.068 205.036 145.219 180.089C139.987 173.849 123.336 174.281 115.881 180.574C78.9034 211.774 71.1862 314.71 72.2326 315.785Z" fill="#CC00FF"/>
<path d="M107.208 186.552C85.0901 203.594 26.8057 272.55 38.9831 288.898C51.1606 305.245 134.689 299.818 159.058 292.831C166.304 290.733 147.704 244.509 139.961 242.228C133.525 240.314 97.3722 250.159 96.7183 248.049C95.9727 245.676 103.991 230.403 116.901 202.467C131.812 170.217 116.979 179.027 107.208 186.552Z" fill="#EB9481"/>
<path d="M173.956 236.787C190.07 237.194 194.151 239.79 207.964 232.855C217.002 228.332 223.764 232.186 217.617 240.72C207.571 254.695 186.656 258.549 179.031 257.763L173.956 236.787Z" fill="#EB9481"/>
<path d="M129.602 245.086C129.602 245.086 148.934 238.164 166.147 236.905C178.05 236.04 204.171 237.023 224.471 266.389C229.284 273.35 231.207 286.682 219.239 278.187C210.737 272.144 207.153 265.733 201.568 263.125C201.568 263.125 202.012 280.39 194.871 284.952C188.619 288.937 182.093 292.472 175.342 295.531C174.504 294.422 173.735 293.262 173.04 292.057C173.04 292.057 165.964 295.675 154.27 292.582L129.602 245.086Z" fill="#EB9481"/>
<path d="M177.592 237.849C182.588 241.625 193.066 249.792 199.305 259.454C206.237 270.177 216.714 292.739 208.748 297.786C202.915 301.483 198.167 293.224 198.167 293.224C198.167 293.224 200.534 303.462 194.531 305.652C189.063 307.644 185.767 301.037 185.767 301.037C185.767 301.037 186.133 307.5 180.535 308.405C173.759 309.493 174.1 295.78 166.278 290.93C164.512 289.842 177.592 237.849 177.592 237.849Z" fill="#EB9481"/>
<path d="M186.813 264.907C190.947 269.22 197.8 281.425 198.337 293.001C198.337 293.25 198.167 293.407 198.101 293.171C195.461 283.345 191.64 273.876 186.722 264.973L186.813 264.907Z" fill="#263238"/>
<path d="M176.206 272.236C179.384 276.326 185.898 289.278 186.042 300.959C186.042 301.234 185.846 301.365 185.793 301.129C183.666 291.178 180.415 281.501 176.101 272.288C176.101 272.288 176.166 272.183 176.206 272.236Z" fill="#263238"/>
<path d="M201.567 262.967C206.459 265.34 209.415 268.408 213.209 272.144C215.085 274.001 217.063 275.752 219.134 277.388C221.031 278.869 223.843 281.098 226.354 279.682C227.754 278.908 228.041 277.06 228.002 275.644C227.717 273.449 227.09 271.313 226.145 269.312C226.145 269.312 226.236 269.181 226.276 269.312C227.207 271.142 227.952 273.061 228.499 275.041C228.841 276.394 228.773 277.818 228.303 279.131C227.073 281.845 223.673 281.661 221.436 280.442C220.114 279.693 218.87 278.815 217.721 277.82C216.596 276.903 215.511 275.933 214.464 274.923C212.293 272.865 210.24 270.689 208.107 268.604C206.01 266.631 203.791 264.792 201.463 263.098C201.384 263.059 201.476 262.928 201.567 262.967Z" fill="#263238"/>
<path d="M209.337 282.854C207.149 276.098 204.527 269.49 201.489 263.072C201.484 263.064 201.48 263.055 201.479 263.046C201.477 263.037 201.477 263.028 201.479 263.019C201.48 263.01 201.484 263.001 201.489 262.993C201.494 262.985 201.501 262.979 201.509 262.974C201.516 262.968 201.525 262.965 201.534 262.963C201.543 262.961 201.553 262.961 201.562 262.963C201.571 262.965 201.58 262.968 201.587 262.974C201.595 262.979 201.602 262.986 201.607 262.993C204.981 267.45 209.743 278.62 210.763 282.107C211.783 285.594 212.751 289.907 212.162 293.473C211.273 298.848 207.545 299.28 206.185 299.32C204.579 299.347 203.013 298.819 201.751 297.825C200.284 296.553 199.095 294.991 198.258 293.237C198.258 293.158 198.324 293.066 198.376 293.158C199.88 295.583 202.627 298.179 205.609 298.284C206.263 298.324 206.919 298.235 207.538 298.022C208.157 297.808 208.729 297.474 209.219 297.039C210.228 295.874 210.785 294.385 210.789 292.844C210.877 289.455 210.386 286.077 209.337 282.854Z" fill="#263238"/>
<path d="M129.601 242.713L146.383 301.247C146.383 301.247 41.9655 307.225 36.1841 288.216C30.4028 269.207 80.8393 206.937 101.767 189.895C126.018 170.086 127.312 178.398 119.425 198.219C111.159 218.972 96.9277 248.599 96.9277 248.599L129.601 242.713Z" fill="#CC00FF"/>
<path d="M63.9399 257.933C69.1534 255.471 74.5392 253.395 80.0545 251.719C85.5075 250.085 91.0727 248.854 96.7053 248.035C99.9099 247.524 103.141 247.183 106.358 246.816C106.379 246.816 106.399 246.824 106.414 246.839C106.429 246.854 106.437 246.874 106.437 246.895C106.437 246.916 106.429 246.936 106.414 246.95C106.399 246.965 106.379 246.973 106.358 246.973C100.701 247.821 95.0974 248.998 89.5767 250.5C84.07 251.942 78.6157 253.476 73.1613 255.114C70.0875 256.045 67.053 257.12 64.0053 258.143C63.9904 258.155 63.9727 258.163 63.9539 258.167C63.9351 258.17 63.9157 258.169 63.8973 258.164C63.879 258.158 63.8623 258.148 63.8487 258.134C63.8351 258.121 63.825 258.104 63.8193 258.086C63.8136 258.068 63.8124 258.048 63.8159 258.029C63.8194 258.01 63.8275 257.993 63.8393 257.978C63.8512 257.962 63.8666 257.951 63.8841 257.943C63.9017 257.935 63.9208 257.932 63.9399 257.933Z" fill="#263238"/>
<path d="M129.366 242.464C128.83 242.464 99.7921 247.052 98.8241 247.328C99.0073 246.934 106.371 233.078 107.47 231.059C107.575 230.849 107.666 230.652 107.784 230.443C108.438 229.564 109.092 228.699 109.733 227.821L112.113 224.347L109.576 227.69C109.184 228.214 108.817 228.751 108.451 229.276C109.184 227.851 109.903 226.409 110.609 224.95C111.76 222.629 112.833 220.296 113.892 217.936H113.775C111.603 221.974 109.314 225.946 107.13 229.971C104.946 233.995 96.6659 248.809 96.7313 248.809C96.7967 248.809 128.83 243.106 129.431 242.962C129.497 242.953 129.557 242.919 129.597 242.866C129.638 242.813 129.656 242.746 129.647 242.68C129.638 242.614 129.604 242.554 129.551 242.514C129.499 242.473 129.432 242.455 129.366 242.464Z" fill="#263238"/>
<path d="M125.377 278.227C123.546 271.672 121.754 265.117 119.687 258.693C118.51 255.023 117.346 251.352 116.129 247.695C116.129 247.55 115.841 247.603 115.881 247.695C117.463 254.328 119.059 260.961 120.943 267.516C122.826 274.071 124.631 280.626 126.593 287.062C127.705 290.746 128.934 294.391 130.269 298.022C130.269 298.039 130.276 298.056 130.288 298.068C130.3 298.081 130.317 298.087 130.334 298.087C130.351 298.087 130.368 298.081 130.38 298.068C130.393 298.056 130.399 298.039 130.399 298.022C129.039 291.349 127.221 284.794 125.377 278.227Z" fill="#263238"/>
<path d="M147.508 302.322C146.775 300.487 145.899 297.865 145.088 296.055C144.879 295.584 144.526 295.61 144.683 296.055C145.193 297.694 145.546 299.503 145.991 301.181C144.526 301.181 143.074 301.247 141.609 301.312L136.547 301.535C133.233 301.666 129.924 301.762 126.619 301.824C119.905 301.946 113.203 301.946 106.515 301.824C93.1073 301.574 79.7214 300.624 66.412 298.979C62.6842 298.507 58.9564 297.956 55.2678 297.288C51.6017 296.681 47.9693 295.885 44.3853 294.902C44.2937 294.902 44.2414 295.046 44.3853 295.072C47.4143 296.259 50.5329 297.201 53.7113 297.891C57.0336 298.612 60.3952 299.202 63.7567 299.765C70.4668 300.801 77.216 301.47 83.9784 301.968C97.3985 302.938 110.84 303.344 124.304 303.187C128.071 303.187 131.838 303.056 135.605 302.938C137.502 302.872 139.411 302.807 141.308 302.702C143.205 302.597 147.665 302.636 147.508 302.322Z" fill="#263238"/>
<path d="M288.379 310.017H154.78V315.418H288.379V310.017Z" fill="#455A64"/>
<path d="M228.708 310.017H154.78V315.418H228.708V310.017Z" fill="#A6A6A6"/>
<path d="M226.459 315.418H343.551L360.097 235.712H243.005L226.459 315.418Z" fill="#A6A6A6"/>
<path d="M231.77 315.418H348.862L365.408 235.712H248.316L231.77 315.418Z" fill="#C7C7C7"/>
<path d="M290.786 277.348C290.648 278.34 290.726 279.351 291.016 280.309C291.305 281.268 291.799 282.152 292.464 282.9C293.128 283.648 293.947 284.243 294.863 284.642C295.78 285.042 296.772 285.237 297.771 285.214C299.914 285.168 301.967 284.346 303.552 282.9C305.136 281.454 306.145 279.482 306.391 277.348C306.53 276.356 306.451 275.346 306.162 274.387C305.872 273.429 305.378 272.545 304.714 271.796C304.049 271.048 303.23 270.454 302.314 270.054C301.397 269.655 300.405 269.46 299.406 269.483C297.264 269.531 295.213 270.354 293.629 271.8C292.044 273.245 291.035 275.216 290.786 277.348Z" fill="#EBEBEB"/>
<path d="M136.769 206.819C136.769 206.819 117.241 187.404 104.475 187.692L93.579 197.236C93.579 197.236 90.0082 198.377 88.9356 196.109C86.3196 190.498 85.8226 176.995 97.49 168.33C108.163 160.385 125.533 161.132 140 165.078C153.891 168.867 165.885 178.188 161.543 187.286C157.2 196.384 136.769 206.819 136.769 206.819Z" fill="#CC00FF"/>
<path opacity="0.1" d="M138.195 202.558C138.195 202.558 154.257 191.271 155.958 184.494C157.658 177.716 144.186 171.148 135.461 168.539C121.976 164.502 112.754 165.301 105.116 172.472C97.4769 179.643 138.195 202.558 138.195 202.558Z" fill="black"/>
<path d="M138.195 202.559C138.195 202.559 122.656 175.605 102.944 172.839L104.475 187.692C104.475 187.692 116.247 187.824 136.769 206.819L138.195 202.559Z" fill="#CC00FF"/>
<path d="M99.1118 187.915C102.703 187.654 106.308 188.173 109.68 189.436C113.063 190.594 116.302 192.138 119.334 194.037C122.387 195.904 125.315 197.972 128.097 200.225L132.191 203.725L136.115 207.409L136.56 207.828L137.057 207.566C140.756 205.704 144.322 203.588 147.73 201.234C149.448 200.082 151.095 198.825 152.661 197.472C154.243 196.138 155.693 194.654 156.991 193.041C153.988 195.826 150.685 198.267 147.142 200.317C145.402 201.379 143.61 202.375 141.805 203.319C140 204.263 138.182 205.22 136.351 206.072L137.279 206.242L133.355 202.427C132.047 201.208 130.595 200.028 129.209 198.848C127.822 197.669 126.292 196.62 124.788 195.571C123.284 194.522 121.74 193.539 120.105 192.687C116.921 190.849 113.514 189.431 109.968 188.466C109.092 188.204 108.176 188.046 107.352 187.85C106.528 187.653 105.534 187.587 104.618 187.535C102.775 187.351 100.913 187.48 99.1118 187.915Z" fill="#263238"/>
<path d="M93.5791 197.236C97.5915 194.52 101.251 191.314 104.475 187.692C100.47 190.419 96.8116 193.624 93.5791 197.236Z" fill="#263238"/>
<path d="M130.216 197.721C129.06 203.887 128.434 210.142 128.346 216.415C128.241 220.794 129.929 236.499 134.781 235.922C139.634 235.346 131.734 225.225 130.347 216.953C128.961 208.681 131.171 202.598 131.459 197.643L130.216 197.721Z" fill="#CC00FF"/>
<g opacity="0.1">
<path d="M130.216 197.721C129.06 203.887 128.434 210.142 128.346 216.415C128.241 220.794 129.929 236.499 134.781 235.922C139.634 235.346 131.734 225.225 130.347 216.953C128.961 208.681 131.171 202.598 131.459 197.643L130.216 197.721Z" fill="black"/>
</g>
<path d="M147.508 198.586C149.068 204.58 150.274 210.66 151.118 216.796C151.641 220.728 151.746 235.044 147.312 235.031C142.878 235.018 148.96 225.081 149.365 217.477C149.771 209.874 147.155 203.057 146.383 198.652L147.508 198.586Z" fill="#CC00FF"/>
<g opacity="0.1">
<path d="M147.508 198.586C149.068 204.58 150.274 210.66 151.118 216.796C151.641 220.728 151.746 235.044 147.312 235.031C142.878 235.018 148.96 225.081 149.365 217.477C149.771 209.874 147.155 203.057 146.383 198.652L147.508 198.586Z" fill="black"/>
</g>
<path d="M139.83 199.543C134.768 199.203 125.324 188.61 122.107 180.194C121.898 179.617 123.415 174.072 125.102 167.242C126.057 163.086 127.038 158.445 127.613 154.132L153.643 164.357C151.377 169.523 149.751 174.947 148.803 180.508C148.745 181.106 148.745 181.707 148.803 182.304C148.803 182.383 148.803 182.488 148.803 182.606C148.816 186.093 147.77 200.055 139.83 199.543Z" fill="#EB9481"/>
<path d="M148.738 182.317C148.745 182.418 148.745 182.519 148.738 182.619C147.8 182.613 146.864 182.534 145.939 182.383C130.687 179.945 129.484 160.752 129.484 154.853L153.643 164.331C151.387 169.517 149.766 174.958 148.816 180.535C148.745 181.126 148.719 181.722 148.738 182.317Z" fill="#263238"/>
<path d="M132.911 120.546C127.456 129.041 124.775 157.252 129.667 165.118C136.769 176.51 152.177 181.78 162.785 172.354C173.066 163.178 175.865 126.379 170.097 118.854C161.517 107.711 140.968 107.974 132.911 120.546Z" fill="#EB9481"/>
<path d="M150.477 141.075C151.31 140.947 152.136 140.772 152.949 140.551C153.845 140.481 154.694 140.122 155.369 139.528C155.545 139.299 155.641 139.018 155.641 138.728C155.641 138.439 155.545 138.158 155.369 137.929C154.95 137.537 154.436 137.263 153.878 137.134C153.32 137.005 152.738 137.026 152.191 137.195C151.017 137.363 149.95 137.972 149.208 138.899C149.052 139.115 148.961 139.372 148.948 139.639C148.935 139.906 148.999 140.171 149.134 140.402C149.268 140.633 149.467 140.819 149.706 140.939C149.944 141.058 150.212 141.106 150.477 141.075Z" fill="#263238"/>
<path d="M169.561 143.697C168.765 143.423 167.983 143.108 167.22 142.753C166.347 142.539 165.57 142.041 165.009 141.337C164.876 141.081 164.83 140.788 164.88 140.504C164.93 140.219 165.072 139.959 165.284 139.764C165.761 139.446 166.314 139.26 166.886 139.225C167.458 139.191 168.029 139.309 168.541 139.567C169.65 139.946 170.581 140.721 171.157 141.744C171.273 141.982 171.318 142.25 171.287 142.513C171.257 142.777 171.151 143.027 170.983 143.232C170.815 143.438 170.592 143.591 170.34 143.673C170.088 143.756 169.818 143.764 169.561 143.697Z" fill="#263238"/>
<path d="M149.025 163.269C149.417 163.767 149.797 164.436 150.477 164.58C151.181 164.66 151.895 164.589 152.57 164.371C152.57 164.371 152.674 164.371 152.57 164.475C152.25 164.808 151.848 165.05 151.404 165.176C150.961 165.303 150.492 165.31 150.045 165.196C149.668 165.051 149.342 164.796 149.109 164.465C148.876 164.134 148.747 163.74 148.737 163.335C148.816 163.217 148.96 163.191 149.025 163.269Z" fill="#263238"/>
<path d="M151.733 157.855C152.12 158.662 152.668 159.38 153.343 159.967C154.018 160.553 154.805 160.994 155.657 161.264C156.4 161.511 157.176 161.648 157.959 161.67H158.835C158.938 161.659 159.034 161.617 159.111 161.549C159.189 161.481 159.243 161.39 159.267 161.29C159.273 161.225 159.273 161.159 159.267 161.093V160.923C159.489 159.468 159.633 157.239 159.633 157.239C160.13 157.567 162.681 159.14 162.733 158.367C163.165 152.022 163.636 144.955 162.733 138.532C162.733 138.322 162.393 138.335 162.38 138.532C161.739 144.615 162.158 150.776 161.608 156.885C160.701 156.307 159.714 155.865 158.678 155.574C158.469 155.574 158.482 159.9 158.338 160.543C155.853 160.543 154.1 159.573 151.942 157.619C151.798 157.58 151.641 157.685 151.733 157.855Z" fill="#263238"/>
<path d="M157.2 160.818C156.268 161.76 155.111 162.446 153.838 162.811C153.138 162.978 152.404 162.928 151.733 162.666C150.281 162.076 150.425 160.687 150.843 159.533C151.079 158.925 151.382 158.344 151.746 157.803C153.197 159.364 155.108 160.42 157.2 160.818Z" fill="#263238"/>
<path d="M153.838 162.811C153.138 162.978 152.404 162.928 151.733 162.666C150.281 162.076 150.425 160.687 150.843 159.533C151.638 159.661 152.366 160.054 152.91 160.649C153.454 161.244 153.781 162.006 153.838 162.811Z" fill="#FF9ABB"/>
<path d="M154.192 146.24C154.192 146.24 154.035 146.306 154.022 146.384C153.786 148.272 153.198 150.317 151.406 150.737V150.842C153.512 150.881 154.27 148.076 154.192 146.24Z" fill="#263238"/>
<path d="M152.831 144.025C149.862 143.317 148.672 149.268 151.419 149.976C154.166 150.684 155.356 144.615 152.831 144.025Z" fill="#263238"/>
<path d="M165.127 147.682C165.127 147.682 165.257 147.8 165.244 147.879C164.8 149.714 164.603 151.903 166.147 152.873V152.978C164.119 152.257 164.42 149.386 165.127 147.682Z" fill="#263238"/>
<path d="M167.193 146.083C170.215 146.476 169.208 152.519 166.409 152.152C163.609 151.785 164.656 145.755 167.193 146.083Z" fill="#263238"/>
<path d="M135.592 138.676C139.516 133.825 139.647 123.43 143.296 121.948C151.144 118.749 159.672 133.471 168.03 136.565C176.127 139.567 180.731 135.333 181.647 128.201C182.562 121.07 178.586 114.594 169.966 109.927C161.059 105.089 151.092 105.771 145.337 107.069C145.337 107.069 148.58 104.526 148.188 103.215C147.796 101.904 142.668 103.647 140.968 104.526C139.65 105.376 138.498 106.46 137.567 107.724C136.467 106.978 135.264 106.395 133.996 105.994C132.145 105.468 130.168 105.612 128.411 106.4C128.084 106.833 130.896 108.288 132.937 109.14C132.937 109.14 127.208 112.876 125.704 117.307C124.199 121.738 123.467 145.1 125.023 145.925C127.025 147 134.022 140.642 135.592 138.676Z" fill="#455A64"/>
<path d="M133.931 108.93C134.009 108.93 134.075 109.048 133.931 109.088C131.335 109.977 129.038 111.576 127.299 113.702C125.391 116.358 124.226 119.476 123.925 122.735C123.127 128.975 124.042 135.241 124.565 141.455C124.565 141.639 124.265 141.678 124.238 141.455C123.271 134.9 122.42 127.861 123.545 121.28C124.552 115.708 127.966 110.058 133.931 108.93Z" fill="#455A64"/>
<path d="M143.754 119.707C146.326 120.293 148.763 121.365 150.935 122.866C152.9 124.442 154.658 126.261 156.167 128.28C159.868 132.475 164.224 136.251 169.665 137.863C169.665 137.863 169.665 137.994 169.665 137.968C164.564 136.814 160.339 133.629 156.795 129.906C155.168 127.855 153.421 125.902 151.563 124.059C149.175 122.334 146.525 121.006 143.715 120.126C143.678 120.103 143.648 120.07 143.629 120.031C143.609 119.991 143.601 119.948 143.606 119.904C143.61 119.861 143.626 119.819 143.652 119.784C143.678 119.749 143.713 119.722 143.754 119.707Z" fill="#455A64"/>
<path d="M151.184 106.584C155.064 106.142 158.988 106.253 162.838 106.912C166.556 107.439 170.154 108.61 173.472 110.372C179.122 113.532 183.269 119.379 182.432 126.104C182.056 129.563 180.405 132.756 177.801 135.058C177.767 135.089 177.721 135.105 177.674 135.103C177.628 135.1 177.584 135.079 177.553 135.045C177.522 135.01 177.505 134.964 177.508 134.917C177.51 134.871 177.531 134.827 177.566 134.795C179.788 132.626 181.251 129.794 181.737 126.723C182.223 123.652 181.705 120.505 180.26 117.753C176.886 111.67 170.084 108.826 163.57 107.58C159.483 106.86 155.331 106.57 151.184 106.715V106.584Z" fill="#455A64"/>
<path d="M147.508 155.574C145.928 155.132 144.504 154.255 143.398 153.042C142.291 151.83 141.546 150.33 141.247 148.714C140.949 147.098 141.108 145.431 141.708 143.901C142.308 142.371 143.324 141.041 144.641 140.062C145.957 139.082 147.522 138.492 149.156 138.36C150.79 138.227 152.429 138.556 153.886 139.31C155.343 140.065 156.56 141.213 157.397 142.626C158.235 144.039 158.661 145.659 158.626 147.302C158.6 148.456 158.348 149.593 157.884 150.649C157.42 151.705 156.753 152.658 155.921 153.456C155.089 154.253 154.108 154.879 153.035 155.296C151.962 155.713 150.817 155.915 149.666 155.889C148.936 155.878 148.211 155.772 147.508 155.574ZM151.89 139.764C151.281 139.591 150.652 139.498 150.019 139.489C148.086 139.448 146.21 140.147 144.773 141.444C143.336 142.741 142.447 144.538 142.286 146.469C142.125 148.4 142.704 150.32 143.906 151.838C145.108 153.356 146.842 154.358 148.755 154.639C150.668 154.921 152.616 154.461 154.202 153.354C155.789 152.246 156.895 150.574 157.294 148.678C157.694 146.782 157.357 144.804 156.353 143.148C155.349 141.492 153.753 140.282 151.89 139.764Z" fill="#37474F"/>
<path d="M167.416 158.563C164.185 157.658 162.184 153.516 162.877 148.993C163.173 146.818 164.143 144.792 165.65 143.199C166.255 142.479 167.035 141.928 167.915 141.598C168.794 141.268 169.744 141.171 170.672 141.316C171.6 141.461 172.475 141.843 173.213 142.425C173.95 143.008 174.526 143.771 174.884 144.641C175.837 146.615 176.148 148.838 175.774 150.999C175.028 155.797 171.536 159.232 167.926 158.681C167.753 158.653 167.583 158.614 167.416 158.563ZM170.934 142.569L170.489 142.464C169.744 142.386 168.992 142.486 168.293 142.757C167.595 143.029 166.971 143.463 166.474 144.025C165.152 145.445 164.298 147.239 164.028 149.163C163.387 153.319 165.231 157.029 168.161 157.514C171.091 157.999 173.969 154.971 174.623 150.815C174.954 148.901 174.684 146.932 173.851 145.178C173.57 144.567 173.166 144.02 172.664 143.574C172.162 143.127 171.573 142.789 170.934 142.582V142.569Z" fill="#37474F"/>
<path d="M158.181 148.259L157.58 147.249C159.058 146.345 162.328 145.335 164.12 147.931L163.152 148.6C161.543 146.266 158.312 148.18 158.181 148.259Z" fill="#37474F"/>
<path d="M119.216 144.47L118.274 143.776C118.588 143.33 121.505 139.449 124.147 139.436C126.789 139.423 141.936 143.369 142.59 143.474L142.302 144.615C137.907 143.5 126.07 140.603 124.16 140.616C122.25 140.629 120.04 143.395 119.216 144.47Z" fill="#37474F"/>
<path d="M132.453 143.985C132.453 143.985 128.647 133.668 124.134 134.809C119.621 135.949 120.89 149.793 125.076 152.743C125.586 153.156 126.175 153.462 126.807 153.642C127.438 153.822 128.1 153.872 128.751 153.788C129.403 153.705 130.031 153.49 130.597 153.158C131.163 152.825 131.657 152.38 132.047 151.851L132.453 143.985Z" fill="#EB9481"/>
<path d="M124.592 138.768V138.886C127.496 141.062 128.411 144.523 128.79 147.97C128.698 147.589 128.521 147.232 128.272 146.928C128.023 146.624 127.71 146.38 127.354 146.214C126.999 146.048 126.611 145.964 126.219 145.968C125.827 145.973 125.44 146.066 125.089 146.24C124.984 146.24 125.089 146.437 125.089 146.437C125.708 146.403 126.322 146.563 126.847 146.894C127.372 147.225 127.781 147.711 128.019 148.285C128.413 149.246 128.698 150.249 128.869 151.274C128.947 151.615 129.51 151.589 129.484 151.274V151.195C130.635 147.013 128.934 140.354 124.592 138.768Z" fill="#263238"/>
</g>
<defs>
<clipPath id="clip0_194_162">
<rect width="654" height="582" fill="white" transform="translate(-50)"/>
</clipPath>
</defs>
</svg>
