<svg width="26" height="46" viewBox="0 0 26 46" fill="none" xmlns="http://www.w3.org/2000/svg">
<path d="M11.398 41.4729C8.77172 41.0913 6.42559 40.0852 4.3596 38.4548C2.32862 36.8243 0.875421 34.4827 0 31.4299L6.0404 28.9842C6.39057 30.3718 7.03838 31.6207 7.98384 32.7308C8.92929 33.8062 10.0673 34.552 11.398 34.9683V25.0815L10.9253 24.8733C9.62963 24.3876 8.40404 23.8152 7.24848 23.1561C6.12795 22.497 5.12997 21.7338 4.25455 20.8665C3.41414 19.9992 2.73131 19.0279 2.20606 17.9525C1.71582 16.8424 1.47071 15.6109 1.47071 14.2579C1.47071 13.0091 1.69832 11.8296 2.15354 10.7195C2.60875 9.60935 3.25657 8.62066 4.09697 7.75339C4.97239 6.88612 6.02289 6.17496 7.24848 5.61991C8.47407 5.03017 9.85724 4.64857 11.398 4.47512V0H16.0727V4.57919C17.4734 4.78733 18.6815 5.15158 19.697 5.67195C20.7475 6.19231 21.6404 6.7994 22.3758 7.49321C23.1461 8.15234 23.7589 8.8635 24.2141 9.6267C24.6694 10.3899 25.0195 11.1357 25.2646 11.8643L19.3818 14.4661C19.1367 13.7722 18.7515 13.1131 18.2263 12.4887C17.701 11.8643 16.9832 11.3612 16.0727 10.9796V20.2941C17.5784 20.9186 18.9441 21.5603 20.1697 22.2195C21.3953 22.8786 22.4458 23.6244 23.3212 24.457C24.1966 25.2896 24.862 26.2436 25.3172 27.319C25.7724 28.3597 26 29.5739 26 30.9615C26 32.5226 25.7199 33.9103 25.1596 35.1244C24.6343 36.3386 23.9165 37.3793 23.0061 38.2466C22.0956 39.1139 21.0276 39.8077 19.802 40.3281C18.6114 40.8484 17.3683 41.2127 16.0727 41.4208V46H11.398V41.4729ZM7.93131 14.2579C7.93131 15.0905 8.19394 15.819 8.71919 16.4434C9.27946 17.0332 10.1724 17.6403 11.398 18.2647V10.6674C10.3475 10.9449 9.50707 11.3959 8.87677 12.0204C8.24646 12.6448 7.93131 13.3906 7.93131 14.2579ZM19.2768 31.0136C19.2768 30.1116 19.0316 29.3658 18.5414 28.776C18.0512 28.1863 17.2283 27.5965 16.0727 27.0068V34.9683C17.0182 34.6561 17.7886 34.1704 18.3838 33.5113C18.9791 32.8175 19.2768 31.9849 19.2768 31.0136Z" fill="#33FF00"/>
</svg>
