<svg width="62" height="66" viewBox="0 0 62 66" fill="none" xmlns="http://www.w3.org/2000/svg">
<path d="M62 5C62 2.23858 59.7614 8.6849e-08 57 8.6849e-08H12C9.23858 8.6849e-08 7 2.23858 7 5C7 7.76142 9.23858 10 12 10H52V50C52 52.7614 54.2386 55 57 55C59.7614 55 62 52.7614 62 50V5ZM-2.53553 57.4645C-4.48815 59.4171 -4.48816 62.5829 -2.53553 64.5355C-0.582912 66.4882 2.58291 66.4882 4.53553 64.5355L-2.53553 57.4645ZM53.4645 1.46447L-2.53553 57.4645L4.53553 64.5355L60.5355 8.53553L53.4645 1.46447Z" fill="#33FF00"/>
</svg>
