<svg width="86" height="18" viewBox="0 0 86 18" fill="none" xmlns="http://www.w3.org/2000/svg">
<path d="M8.5 1L10.4084 6.87336L16.584 6.87336L11.5878 10.5033L13.4962 16.3766L8.5 12.7467L3.50383 16.3766L5.41219 10.5033L0.416019 6.87336L6.59163 6.87336L8.5 1Z" fill="#FFB800"/>
<path d="M25.5 1L27.4084 6.87336L33.584 6.87336L28.5878 10.5033L30.4962 16.3766L25.5 12.7467L20.5038 16.3766L22.4122 10.5033L17.416 6.87336L23.5916 6.87336L25.5 1Z" fill="#FFB800"/>
<path d="M42.5 1L44.4084 6.87336L50.584 6.87336L45.5878 10.5033L47.4962 16.3766L42.5 12.7467L37.5038 16.3766L39.4122 10.5033L34.416 6.87336L40.5916 6.87336L42.5 1Z" fill="#FFB800"/>
<path d="M59.5 1L61.4084 6.87336L67.584 6.87336L62.5878 10.5033L64.4962 16.3766L59.5 12.7467L54.5038 16.3766L56.4122 10.5033L51.416 6.87336L57.5916 6.87336L59.5 1Z" fill="#FFB800"/>
<path d="M76.5 1L78.4084 6.87336L84.584 6.87336L79.5878 10.5033L81.4962 16.3766L76.5 12.7467L71.5038 16.3766L73.4122 10.5033L68.416 6.87336L74.5916 6.87336L76.5 1Z" fill="#FFB800"/>
<rect x="77" width="9" height="17" fill="#F5CCFF"/>
</svg>
