<svg width="626" height="369" viewBox="0 0 626 369" fill="none" xmlns="http://www.w3.org/2000/svg">
<path d="M771.212 253.702C762.137 214.111 726.659 188.578 692.841 199.135C684.367 201.78 676.409 205.316 669.91 211.249C648.656 173.893 608.56 154.166 569.494 166.361C539.955 175.582 517.594 200.408 507.424 231.437C503.679 231.632 499.852 232.133 496.077 233.311C470.494 241.297 454.427 269.946 457.422 299.855C454.231 300.128 451.009 300.685 447.801 301.687C420.197 310.303 404.865 348.014 412.272 380.33C419.679 412.646 449.101 436.38 476.701 427.765L728.206 349.256C763.087 338.367 780.269 293.216 771.212 253.702Z" stroke="#33FF00" stroke-width="2" stroke-miterlimit="10"/>
<path d="M694.212 140.506C685.137 100.914 649.659 75.3811 615.841 85.9379C607.367 88.583 599.409 92.1194 592.909 98.0524C571.656 60.6958 531.56 40.9692 492.494 53.1639C462.955 62.3847 440.594 87.2113 430.424 118.24C426.679 118.435 422.852 118.936 419.077 120.114C393.494 128.1 377.427 156.749 380.422 186.658C323 208.539 334.5 245.882 333.5 248.216" stroke="#33FF00" stroke-width="2" stroke-miterlimit="10"/>
<path d="M199.807 285.599C160.72 272.721 120.297 295.786 104.153 337.949C13.766 314.259 3.83897 374.003 0.953003 376.165" stroke="#33FF00" stroke-width="2" stroke-miterlimit="10"/>
<path d="M449 301.314C446 302.973 444 256.169 391.093 273.306C376.791 248.242 348.655 238.535 324.722 251.767C321.191 253.719 317.995 256.227 315.032 258.907C290.073 242.931 259.258 240.891 231.625 256.169C195.079 276.375 175.45 321.694 179.962 366.224C171.717 366.61 163.689 369.923 155.762 374.306C124.126 391.798 111.237 438.056 126.274 475.093C141.28 512.057 179.417 533.504 212.048 515.462L447.326 385.381" stroke="#33FF00" stroke-width="2" stroke-miterlimit="10"/>
</svg>
