<svg width="47" height="38" viewBox="0 0 47 38" fill="none" xmlns="http://www.w3.org/2000/svg">
<path d="M0 22.5C0 24.7091 1.79086 26.5 4 26.5C6.20914 26.5 8 24.7091 8 22.5C8 20.2909 6.20914 18.5 4 18.5C1.79086 18.5 0 20.2909 0 22.5ZM13.5 34C13.5 36.2091 15.2909 38 17.5 38C19.7091 38 21.5 36.2091 21.5 34C21.5 31.7909 19.7091 30 17.5 30C15.2909 30 13.5 31.7909 13.5 34ZM16.75 0V22.5H18.25V0H16.75ZM17.5 21.75H4V23.25H17.5V21.75ZM16.75 22.5V34H18.25V22.5H16.75Z" fill="black"/>
<path d="M22 14C22 16.2091 23.7909 18 26 18C28.2091 18 30 16.2091 30 14C30 11.7909 28.2091 10 26 10C23.7909 10 22 11.7909 22 14ZM25.25 0V14H26.75V0H25.25Z" fill="black"/>
<path d="M39 28.5C39 30.7091 40.7909 32.5 43 32.5C45.2091 32.5 47 30.7091 47 28.5C47 26.2909 45.2091 24.5 43 24.5C40.7909 24.5 39 26.2909 39 28.5ZM33.25 0V22.5H34.75V0H33.25ZM33.25 22.5V27.5H34.75V22.5H33.25ZM35 29.25H43V27.75H35V29.25ZM33.25 27.5C33.25 28.4665 34.0335 29.25 35 29.25V27.75C34.8619 27.75 34.75 27.6381 34.75 27.5H33.25Z" fill="black"/>
</svg>
