<svg width="50" height="50" viewBox="0 0 50 50" fill="none" xmlns="http://www.w3.org/2000/svg">
<path d="M23.5858 23.5858C22.8047 24.3668 22.8047 25.6332 23.5858 26.4142L36.3137 39.1421C37.0948 39.9232 38.3611 39.9232 39.1421 39.1421C39.9232 38.3611 39.9232 37.0948 39.1421 36.3137L27.8284 25L39.1421 13.6863C39.9232 12.9052 39.9232 11.6389 39.1421 10.8579C38.3611 10.0768 37.0948 10.0768 36.3137 10.8579L23.5858 23.5858ZM48 27C49.1046 27 50 26.1046 50 25C50 23.8954 49.1046 23 48 23V27ZM25 27H48V23H25V27Z" fill="#33FF00"/>
<path d="M23.5858 26.4142C24.3668 27.1953 25.6332 27.1953 26.4142 26.4142L39.1421 13.6863C39.9232 12.9052 39.9232 11.6389 39.1421 10.8579C38.3611 10.0768 37.0948 10.0768 36.3137 10.8579L25 22.1716L13.6863 10.8579C12.9052 10.0768 11.6389 10.0768 10.8579 10.8579C10.0768 11.6389 10.0768 12.9052 10.8579 13.6863L23.5858 26.4142ZM27 2C27 0.89543 26.1046 4.82823e-08 25 0C23.8954 -4.82823e-08 23 0.89543 23 2L27 2ZM27 25L27 2L23 2L23 25L27 25Z" fill="#33FF00"/>
<path d="M26.4142 26.4142C27.1953 25.6332 27.1953 24.3668 26.4142 23.5858L13.6863 10.8579C12.9052 10.0768 11.6389 10.0768 10.8579 10.8579C10.0768 11.6389 10.0768 12.9052 10.8579 13.6863L22.1716 25L10.8579 36.3137C10.0768 37.0948 10.0768 38.3611 10.8579 39.1421C11.6389 39.9232 12.9052 39.9232 13.6863 39.1421L26.4142 26.4142ZM2 23C0.89543 23 0 23.8954 0 25C0 26.1046 0.89543 27 2 27V23ZM25 23H2V27H25V23Z" fill="#33FF00"/>
<path d="M26.4142 23.5858C25.6332 22.8047 24.3668 22.8047 23.5858 23.5858L10.8579 36.3137C10.0768 37.0948 10.0768 38.3611 10.8579 39.1421C11.6389 39.9232 12.9052 39.9232 13.6863 39.1421L25 27.8284L36.3137 39.1421C37.0948 39.9232 38.3611 39.9232 39.1421 39.1421C39.9232 38.3611 39.9232 37.0948 39.1421 36.3137L26.4142 23.5858ZM23 48C23 49.1046 23.8954 50 25 50C26.1046 50 27 49.1046 27 48L23 48ZM23 25L23 48L27 48L27 25L23 25Z" fill="white"/>
</svg>
