<svg width="98" height="98" viewBox="0 0 98 98" fill="none" xmlns="http://www.w3.org/2000/svg">
<mask id="mask0_83_1333" style="mask-type:alpha" maskUnits="userSpaceOnUse" x="0" y="0" width="98" height="98">
<circle cx="49" cy="49" r="49" fill="#A6A6A6"/>
</mask>
<g mask="url(#mask0_83_1333)">
<path d="M48.5 100C76.9427 100 100 76.9427 100 48.5C100 20.0573 76.9427 -3 48.5 -3C20.0573 -3 -3 20.0573 -3 48.5C-3 76.9427 20.0573 100 48.5 100Z" fill="#A6A6A6"/>
<path d="M78.3821 90.4995C77.3157 91.2629 76.2251 91.9779 75.1103 92.6686C72.4132 94.2855 69.574 95.6524 66.6279 96.7522C65.9372 97.0188 65.2344 97.2612 64.5316 97.5035C62.9442 98.0246 61.3083 98.473 59.6846 98.8365C58.2304 99.1515 56.7521 99.4181 55.2495 99.612C53.2743 96.6674 51.6142 94.1106 50.5357 92.1354C49.7844 90.8267 48.7908 88.9969 47.785 86.9369C44.6708 80.6236 41.3869 72.1292 44.4284 69.8147L44.5981 69.6935L44.8404 69.5602L44.998 69.4875C45.2781 69.3626 45.577 69.2848 45.8825 69.2573C46.3089 69.202 46.7406 69.202 47.167 69.2573C49.3783 69.6109 51.5083 70.3578 53.4561 71.4627C54.0256 71.7414 54.6072 72.0565 55.2374 72.4079L55.4797 72.5412C60.6418 75.4252 69.4998 82.7927 78.3821 90.4995Z" fill="#FFC4C0"/>
<path d="M80.1998 89.0822C79.606 89.5548 78.988 90.0031 78.3821 90.4393C77.3158 91.2027 76.2252 91.9177 75.1103 92.6084C72.4133 94.2253 69.574 95.5922 66.628 96.692C65.9373 96.9586 65.2345 97.201 64.5316 97.4433C62.9442 97.9644 61.3084 98.4128 59.6846 98.7763C58.2305 99.0913 56.7521 99.3579 55.2495 99.5518L54.3528 99.6609C51.1901 94.6926 48.5242 90.2091 46.6702 86.7071L46.3552 86.1133C45.7008 84.845 45.1313 83.6333 44.6466 82.478C44.2831 81.6702 43.968 80.8624 43.7014 80.0545C43.5318 79.5456 43.3742 79.0487 43.2288 78.564C43.1076 78.1399 43.0107 77.74 42.9138 77.3523C42.8168 76.9645 42.7562 76.5646 42.6956 76.1405C42.5316 75.2456 42.4827 74.3334 42.5502 73.4262C42.5845 72.7689 42.7278 72.1219 42.9743 71.5116C43.0863 71.2304 43.2286 70.9623 43.3985 70.7118L43.6529 70.3725C43.7476 70.2616 43.8488 70.1565 43.9559 70.0575C44.057 69.9593 44.1664 69.8701 44.2831 69.7909L44.4285 69.6939L44.5981 69.5727L44.8405 69.4394L44.998 69.3667C45.2481 69.252 45.5076 69.1588 45.7735 69.088C47.9161 68.7412 50.1134 69.0232 52.0989 69.8999C53.2468 70.2914 54.368 70.7568 55.4555 71.2934C57.5891 72.3613 59.6459 73.576 61.6113 74.9287C67.1006 78.5277 73.7289 83.7504 80.1998 89.0822Z" fill="#CC00FF"/>
<path d="M57.6003 78.1158C57.3095 77.8371 57.0187 77.5705 56.7036 77.3039L56.3765 77.0373L56.1341 76.8556C56.0045 76.7517 55.8667 76.6585 55.7221 76.5768L55.3101 76.3103L55.0677 76.177L54.9102 76.1043L54.4013 75.874C54.5215 76.1647 54.6591 76.448 54.8133 76.7223C55.3246 77.6032 55.9433 78.4173 56.6552 79.1458L57.467 79.885L58.1335 80.406C58.6594 80.7907 59.2288 81.112 59.83 81.3633C59.3 80.1489 58.5432 79.0467 57.6003 78.1158ZM57.6003 78.1158C57.3095 77.8371 57.0187 77.5705 56.7036 77.3039L56.3765 77.0373L56.1341 76.8556C56.0045 76.7517 55.8667 76.6585 55.7221 76.5768L55.3101 76.3103L55.0677 76.177L54.9102 76.1043L54.4013 75.874C54.5215 76.1647 54.6591 76.448 54.8133 76.7223C55.3246 77.6032 55.9433 78.4173 56.6552 79.1458L57.467 79.885L58.1335 80.406C58.6594 80.7907 59.2288 81.112 59.83 81.3633C59.3 80.1489 58.5432 79.0467 57.6003 78.1158Z" fill="white"/>
<path opacity="0.1" d="M75.1225 92.6083C72.4254 94.2252 69.5861 95.5921 66.6401 96.692C65.9494 96.9585 65.2466 97.2009 64.5438 97.4432C62.9564 97.9643 61.3205 98.4127 59.6967 98.7762C58.2426 99.0912 56.7643 99.3578 55.2617 99.5517L54.365 99.6608C51.2022 94.6925 48.5364 90.209 46.6824 86.707L46.3673 86.1133C45.713 84.8449 45.1434 83.6332 44.6587 82.478C44.2952 81.6701 43.9801 80.8623 43.7135 80.0544C43.5439 79.5455 43.3864 79.0487 43.241 78.5639C43.1198 78.1398 43.0228 77.7399 42.9259 77.3522C42.8289 76.9644 42.7684 76.5645 42.7078 76.1404C42.5559 75.2441 42.5071 74.3334 42.5624 73.4261C42.5967 72.7688 42.74 72.1218 42.9865 71.5115C43.0985 71.2303 43.2407 70.9622 43.4106 70.7117L43.6651 70.3724C43.7598 70.2616 43.8609 70.1564 43.968 70.0574C44.0691 69.9592 44.1786 69.87 44.2952 69.7908L44.4406 69.6938L44.6103 69.5727L44.8526 69.4394L45.0101 69.3667C45.2648 69.2561 45.5283 69.1669 45.7978 69.1001C46.1511 69.0094 46.5122 68.9526 46.8763 68.9304L47.1428 69.1485L51.4325 72.7838L54.9103 75.6921L56.5704 77.0856L75.1225 92.6083Z" fill="black"/>
<path d="M64.5801 97.4432C62.9927 97.9642 61.3568 98.4126 59.733 98.7761C58.2789 99.0912 56.8006 99.3577 55.298 99.5516L54.4013 99.6607C46.8215 100.516 39.1462 99.689 31.923 97.2372H31.7897H31.6686L31.0869 97.0312C25.9942 95.1716 21.2261 92.5217 16.9577 89.1789C18.3997 86.6463 19.7327 84.4167 20.9808 82.4657C21.8775 81.0601 22.7136 79.7999 23.5134 78.6729C27.7424 72.6141 30.6628 70.1906 32.9409 68.9788L33.365 68.7728C33.5246 68.6837 33.6907 68.6067 33.8618 68.5426C34.1648 68.4093 34.4556 68.3123 34.7343 68.2154C37.8475 67.289 41.1103 66.9722 44.3436 67.2823C47.126 67.3942 49.8178 68.3027 52.0989 69.8997C52.6402 70.3387 53.1067 70.8625 53.4803 71.4508C53.9004 72.1213 54.3043 72.812 54.6921 73.5229L55.1283 74.2985C55.6373 75.2194 56.1341 76.1646 56.6188 77.1582C56.6568 77.2138 56.6854 77.2752 56.7036 77.34C56.946 77.8368 57.1883 78.3336 57.4307 78.8547C57.673 79.3757 57.9154 79.8726 58.1456 80.4057C60.5476 85.8353 62.6472 91.3937 64.4347 97.0554C64.4953 97.1645 64.5316 97.2977 64.5801 97.4432Z" fill="#CC00FF"/>
<path d="M46.9975 95.3472C45.6775 95.3253 44.3655 95.5556 43.132 96.0258C44.364 96.5015 45.6771 96.732 46.9975 96.7043C48.3215 96.7283 49.6379 96.498 50.8751 96.0258C49.6379 95.5535 48.3215 95.3232 46.9975 95.3472ZM24.9918 77.7039C24.8101 77.7887 24.6404 77.8977 24.4708 77.9947C24.2979 78.0924 24.132 78.2017 23.9739 78.3219C23.8945 78.3644 23.8212 78.4174 23.7558 78.4794L23.5014 78.6612C23.1136 78.9641 22.7622 79.2913 22.4108 79.6185C21.4618 80.5428 20.6933 81.6359 20.1448 82.8417C20.4447 82.72 20.7362 82.5783 21.0172 82.4176C21.876 81.9109 22.666 81.2959 23.3681 80.5879C24.3199 79.6686 25.0852 78.5741 25.6219 77.3646L24.9918 77.7039ZM57.4308 78.8429C57.1884 78.334 56.9461 77.8251 56.6916 77.3282L56.3644 77.0616L56.1221 76.8799C55.9925 76.776 55.8547 76.6828 55.7101 76.6012L55.2981 76.3346L55.0557 76.2013L54.8982 76.1165L54.3892 75.8862C54.5095 76.177 54.6471 76.4602 54.8012 76.7345C55.3126 77.6154 55.9313 78.4295 56.6431 79.158L57.455 79.8972L58.1215 80.4182C57.9155 79.8366 57.6731 79.3276 57.4308 78.8187V78.8429ZM57.4308 78.8429C57.1884 78.334 56.9461 77.8251 56.6916 77.3282L56.3644 77.0616L56.1221 76.8799C55.9925 76.776 55.8547 76.6828 55.7101 76.6012L55.2981 76.3346L55.0557 76.2013L54.8982 76.1165L54.3892 75.8862C54.5095 76.177 54.6471 76.4602 54.8012 76.7345C55.3126 77.6154 55.9313 78.4295 56.6431 79.158L57.455 79.8972L58.1215 80.4182C57.9155 79.8366 57.6731 79.3276 57.4308 78.8187V78.8429Z" fill="white"/>
<path d="M36.6005 77.4972C36.0896 81.0718 35.2541 84.5924 34.1042 88.0154C33.0621 91.2629 32.0321 94.2317 31.0264 96.9582C25.9595 95.1153 21.2125 92.4903 16.9578 89.1787C15.9399 88.391 14.9462 87.5549 14.0011 86.7551C15.7218 84.4649 17.4546 82.2474 19.1753 80.1268C24.8948 73.0864 29.7904 69.2209 32.9652 68.9906H33.3287C35.9946 68.9058 37.3033 71.6929 36.6005 77.4972Z" fill="#FFC4C0"/>
<path d="M37.2791 78.5154C37.0142 80.7041 36.6095 82.8735 36.0673 85.0105C35.212 88.0861 34.1761 91.1086 32.9652 94.0623L31.6807 97.2008H31.5596L30.9779 96.9948C25.9258 95.1361 21.1953 92.499 16.9578 89.1789C15.9399 88.3913 14.9463 87.5552 14.0011 86.7554L13.0196 85.8466C16.1518 81.7396 19.6389 77.9159 23.4407 74.4196C28.1182 70.2996 31.3051 68.6516 33.4499 68.5547H33.8862C37.5578 68.688 37.7759 73.9713 37.2791 78.5154Z" fill="#CC00FF"/>
<path d="M24.9918 77.6794C24.81 77.7642 24.6404 77.8733 24.4707 77.9702C24.2979 78.0679 24.1319 78.1772 23.9739 78.2974C23.8945 78.3399 23.8211 78.3929 23.7558 78.4549L23.4771 78.6731C23.0893 78.976 22.7379 79.3032 22.3865 79.6303C21.4375 80.5547 20.6691 81.6478 20.1205 82.8536C20.4205 82.7319 20.7119 82.5902 20.993 82.4295C21.8517 81.9228 22.6418 81.3078 23.3438 80.5998C24.2956 79.6805 25.061 78.586 25.5977 77.3765L24.9918 77.6794Z" fill="white"/>
<path d="M33.0136 94.0625C32.638 95.1167 32.2502 96.171 31.8624 97.2131H31.7292H31.608C32.0563 96.1831 32.5047 95.1531 32.9288 94.111L33.0136 94.0625Z" fill="#263238"/>
<path d="M48.1728 86.8648C42.7077 87.0587 35.316 77.3161 33.05 70.1545C32.9046 69.6577 34.5041 65.1257 36.1885 59.5152C37.1942 56.1102 38.2363 52.2446 38.9392 48.7305C39.0846 48.0035 60.1572 58.5458 60.1572 58.5458C58.0082 62.7341 56.3804 67.1699 55.3101 71.7541C55.2198 72.2457 55.1752 72.7447 55.1768 73.2445C55.1768 73.3172 55.1768 73.4021 55.1768 73.4869C55.0677 76.383 53.4561 86.6951 48.1728 86.8648Z" fill="#FFC4C0"/>
<path d="M40.2963 49.1304C40.1388 55.3467 41.0112 70.5907 52.8502 73.2081C53.6064 73.383 54.3771 73.4885 55.1526 73.5232C55.1574 73.4425 55.1574 73.3615 55.1526 73.2808C55.1522 72.7815 55.1927 72.283 55.2737 71.7904C56.3427 67.202 57.9706 62.762 60.1208 58.57C60.1208 58.57 44.9495 50.9723 40.2963 49.1304Z" fill="#263238"/>
<path d="M35.1342 25.4039C32.8561 33.4985 37.5578 56.6674 43.4348 61.7568C51.9172 69.1001 65.4889 69.5243 71.6689 59.4181C77.6551 49.615 70.9419 19.5268 64.3984 14.9585C54.886 8.18471 38.5272 13.4316 35.1342 25.4039Z" fill="#FFC4C0"/>
<path d="M55.4313 40.0298C55.4313 40.0298 55.3222 40.1388 55.3465 40.1994C55.7585 41.7384 55.9766 43.5681 54.7042 44.4164C54.7042 44.4164 54.7042 44.5254 54.7042 44.5012C56.3886 43.8468 56.0735 41.4233 55.4313 40.0298Z" fill="#263238"/>
<path d="M53.6621 38.7453C51.1174 39.1573 52.1232 44.1982 54.474 43.8226C56.8249 43.4469 55.7343 38.3939 53.6621 38.7453Z" fill="#263238"/>
<path d="M64.3863 38.2364C64.3863 38.1758 64.5195 38.2364 64.5317 38.3455C64.7983 39.9208 65.3557 41.6778 66.8704 41.9202C66.8704 41.9202 66.9309 42.005 66.8704 42.005C65.1012 42.1019 64.3741 39.7632 64.3863 38.2364Z" fill="#263238"/>
<path d="M65.4283 36.3215C67.8518 35.6429 69.0636 40.6354 66.8097 41.2777C64.5559 41.9199 63.3804 36.9032 65.4283 36.3215Z" fill="#263238"/>
<path d="M51.2871 36.2733C51.9414 35.9582 52.4988 35.5705 53.1168 35.2069C53.7348 34.8434 54.4013 34.5283 54.7648 33.7649C54.8333 33.5442 54.8291 33.3073 54.7527 33.0891C54.6764 32.8709 54.5319 32.683 54.3407 32.5532C53.9086 32.3444 53.428 32.2567 52.95 32.2993C52.4721 32.342 52.0146 32.5135 51.6263 32.7955C50.7465 33.2372 50.0604 33.988 49.6996 34.904C49.6604 35.1126 49.6766 35.3279 49.7466 35.5283C49.8167 35.7287 49.9382 35.9072 50.099 36.0458C50.2597 36.1845 50.4541 36.2785 50.6626 36.3184C50.8711 36.3583 51.0865 36.3428 51.2871 36.2733Z" fill="#263238"/>
<path d="M67.3187 34.2739C66.6163 34.3101 65.9126 34.3101 65.2102 34.2739C64.4656 34.3842 63.7053 34.2525 63.0411 33.8982C62.8566 33.7443 62.728 33.5338 62.6755 33.2993C62.6229 33.0649 62.6492 32.8196 62.7503 32.6016C63.011 32.2033 63.3726 31.8812 63.7984 31.6683C64.2242 31.4555 64.6988 31.3594 65.1739 31.3899C66.1557 31.313 67.1312 31.6022 67.9124 32.2017C68.0748 32.3542 68.1921 32.5485 68.2513 32.7632C68.3105 32.978 68.3093 33.2049 68.248 33.419C68.1866 33.6332 68.0674 33.8262 67.9035 33.9771C67.7395 34.1279 67.5372 34.2306 67.3187 34.2739Z" fill="#263238"/>
<path d="M57.7336 49.1543C58.2511 49.6965 58.8765 50.1244 59.5694 50.4103C60.2623 50.6963 61.0074 50.8339 61.7567 50.8144C62.4093 50.8077 63.0578 50.7098 63.6834 50.5236C63.8041 50.5001 63.922 50.4635 64.0348 50.4145L64.3741 50.2933C64.4535 50.2599 64.5199 50.2018 64.5636 50.1275C64.6073 50.0533 64.6258 49.9669 64.6164 49.8813C64.6233 49.829 64.6233 49.7761 64.6164 49.7238V49.5905C64.4104 48.3788 63.9379 46.5732 63.9379 46.5732C64.4104 46.7065 66.8582 47.2639 66.7007 46.6459C65.4826 41.2508 63.7205 35.9932 61.4416 30.9536C61.4353 30.9353 61.4254 30.9184 61.4125 30.9039C61.3996 30.8895 61.384 30.8777 61.3666 30.8692C61.3491 30.8608 61.3302 30.8559 61.3108 30.8547C61.2915 30.8536 61.2721 30.8563 61.2538 30.8627C61.2355 30.8691 61.2186 30.879 61.2042 30.8918C61.1897 30.9047 61.1779 30.9203 61.1695 30.9378C61.161 30.9552 61.1561 30.9741 61.155 30.9935C61.1539 31.0128 61.1566 31.0322 61.1629 31.0505C62.2535 36.043 64.2166 40.8052 65.4041 45.8098C64.5324 45.5963 63.635 45.5065 62.7382 45.5432C62.5807 45.628 63.7319 49.021 63.7804 49.5663V49.6269C62.8151 49.9207 61.8006 50.0174 60.7972 49.9112C59.7938 49.8051 58.822 49.4982 57.9396 49.0089C57.7215 48.924 57.6124 49.0452 57.7336 49.1543Z" fill="#263238"/>
<path d="M34.2375 43.5316C40.3811 43.8346 43.4348 36.4428 41.8716 30.5779C41.8716 30.5779 58.2425 32.4076 58.7515 19.2842C59.9383 21.037 61.5388 22.4703 63.4114 23.4573C65.284 24.4444 67.371 24.9547 69.4877 24.9432L71.4144 29.7296C73.0746 29.2086 74.7589 24.41 70.5783 20.7626C70.5783 20.7626 70.1663 14.2433 65.2587 10.4262C63.9374 9.32524 62.3249 8.63155 60.617 8.42935C58.909 8.22715 57.1791 8.52514 55.6373 9.28716C52.7528 7.28459 49.2016 6.48481 45.7371 7.05751C43.9329 7.38965 42.2336 8.14642 40.7797 9.26528C39.3258 10.3841 38.1591 11.833 37.376 13.492C37.376 13.492 29.3298 15.2127 28.0696 20.9928C27.6782 22.6229 27.6357 24.3172 27.9447 25.9648C28.2538 27.6125 28.9075 29.1762 29.863 30.5536C29.863 30.5536 27.8878 32.8439 29.0148 37.7273C29.7418 40.8173 32.3835 43.4347 34.2375 43.5316Z" fill="#263238"/>
<path d="M58.3638 18.1208C58.5108 19.1806 58.5433 20.2532 58.4607 21.3199C58.4164 22.3755 58.2414 23.4216 57.9397 24.4341C57.3841 26.4512 56.0852 28.1831 54.3044 29.2812C52.4636 30.2852 50.4138 30.8454 48.3183 30.9171C47.264 30.9171 46.1977 30.9171 45.1313 30.9171C44.065 30.9171 42.9986 30.7232 41.9201 30.6505C42.9623 30.8928 44.0286 31.0746 45.095 31.2806C46.1613 31.4866 47.2519 31.426 48.3425 31.5109C50.5579 31.5291 52.7421 30.9873 54.6921 29.9356C56.6184 28.7521 58.0024 26.859 58.5455 24.6644C59.0445 22.5034 58.982 20.2507 58.3638 18.1208Z" fill="#263238"/>
<path d="M66.9309 25.5252C65.1328 24.95 63.4418 24.0821 61.9263 22.9563C61.1884 22.4 60.5317 21.7433 59.9754 21.0053C59.4089 20.254 58.9292 19.441 58.5455 18.5818C58.6669 19.5618 58.9886 20.5064 59.4907 21.3567C59.9945 22.2238 60.666 22.9817 61.4659 23.5864C62.2558 24.1878 63.1348 24.6621 64.0712 24.992C64.9889 25.3246 65.955 25.5048 66.9309 25.5252Z" fill="#263238"/>
<path d="M40.5266 44.247C40.5266 44.247 34.9525 36.9764 31.6202 38.9637C28.2878 40.951 32.6865 51.7114 36.758 53.0323C37.2684 53.2388 37.8153 53.3396 38.3658 53.3287C38.9162 53.3178 39.4588 53.1954 39.9606 52.9689C40.4623 52.7423 40.913 52.4164 41.2852 52.0107C41.6574 51.605 41.9435 51.1281 42.1262 50.6087L40.5266 44.247Z" fill="#FFC4C0"/>
<path d="M32.9651 42.0291V42.1381C35.8249 43.156 37.4123 45.7007 38.5514 48.3545C38.3772 48.0805 38.1455 47.8477 37.8725 47.6721C37.5995 47.4965 37.2916 47.3823 36.9701 47.3373C36.6486 47.2924 36.3212 47.3178 36.0105 47.4118C35.6998 47.5058 35.4132 47.6662 35.1706 47.8819C35.1572 47.8944 35.1483 47.9108 35.1451 47.9288C35.1419 47.9468 35.1445 47.9653 35.1527 47.9817C35.1609 47.998 35.1741 48.0113 35.1904 48.0195C35.2067 48.0277 35.2253 48.0304 35.2433 48.0273C35.7318 47.8524 36.2624 47.8319 36.763 47.9684C37.2637 48.105 37.7103 48.392 38.0424 48.7907C38.5859 49.4666 39.057 50.1977 39.4481 50.9719C39.5935 51.2142 40.0419 51.0567 39.9328 50.778V50.7053C39.8116 47.1064 36.8186 42.2108 32.9651 42.0291Z" fill="#263238"/>
<g opacity="0.2">
<path d="M47.8941 46.416C47.8879 46.5146 47.8444 46.6071 47.7723 46.6747C47.7003 46.7422 47.6051 46.7797 47.5064 46.7795C47.4088 46.7707 47.3179 46.7263 47.2508 46.6548C47.1838 46.5833 47.1454 46.4897 47.1428 46.3918C47.1428 46.2921 47.1824 46.1966 47.2528 46.1261C47.3233 46.0557 47.4188 46.0161 47.5185 46.0161C47.6181 46.0161 47.7136 46.0557 47.7841 46.1261C47.8545 46.1966 47.8941 46.2921 47.8941 46.3918V46.416Z" fill="black"/>
<path d="M55.7341 46.3915C55.7184 46.4781 55.6728 46.5564 55.6052 46.6127C55.5377 46.6691 55.4525 46.7 55.3646 46.7C55.2766 46.7 55.1914 46.6691 55.1239 46.6127C55.0563 46.5564 55.0107 46.4781 54.995 46.3915C54.9965 46.3427 55.0078 46.2947 55.0283 46.2504C55.0488 46.206 55.078 46.1663 55.1142 46.1335C55.1504 46.1007 55.1928 46.0755 55.239 46.0595C55.2851 46.0434 55.334 46.0368 55.3827 46.0401C55.4741 46.0459 55.5601 46.0847 55.6248 46.1494C55.6896 46.2141 55.7284 46.3002 55.7341 46.3915Z" fill="black"/>
<path d="M52.826 48.9969C52.8198 49.0954 52.7762 49.188 52.7042 49.2555C52.6321 49.3231 52.537 49.3606 52.4382 49.3604C52.3894 49.3589 52.3414 49.3475 52.2971 49.327C52.2527 49.3066 52.213 49.2773 52.1802 49.2412C52.1474 49.205 52.1222 49.1625 52.1061 49.1164C52.0901 49.0703 52.0835 49.0214 52.0868 48.9726C52.0884 48.9233 52.0997 48.8747 52.12 48.8298C52.1403 48.7848 52.1693 48.7442 52.2054 48.7105C52.2414 48.6767 52.2837 48.6504 52.3299 48.633C52.3761 48.6156 52.4252 48.6075 52.4746 48.6091C52.5234 48.6106 52.5714 48.622 52.6157 48.6424C52.6601 48.6629 52.6999 48.6921 52.7327 48.7283C52.7655 48.7645 52.7906 48.807 52.8067 48.8531C52.8227 48.8992 52.8293 48.9481 52.826 48.9969Z" fill="black"/>
<path d="M48.2333 43.362C48.2271 43.4595 48.1831 43.5507 48.1107 43.6164C48.0383 43.682 47.9432 43.7168 47.8456 43.7134C47.7968 43.7119 47.7487 43.7006 47.7044 43.6801C47.66 43.6596 47.6203 43.6304 47.5875 43.5942C47.5547 43.558 47.5295 43.5156 47.5135 43.4694C47.4975 43.4233 47.4909 43.3744 47.4942 43.3257C47.4843 43.2715 47.4865 43.2159 47.5005 43.1627C47.5145 43.1095 47.5401 43.06 47.5753 43.0178C47.6106 42.9755 47.6547 42.9415 47.7045 42.9182C47.7544 42.8949 47.8087 42.8828 47.8638 42.8828C47.9188 42.8828 47.9731 42.8949 48.023 42.9182C48.0728 42.9415 48.1169 42.9755 48.1521 43.0178C48.1874 43.06 48.2129 43.1095 48.227 43.1627C48.241 43.2159 48.2432 43.2715 48.2333 43.3257V43.362Z" fill="black"/>
<path d="M51.8081 45.6646C51.8065 45.714 51.7953 45.7625 51.7749 45.8075C51.7546 45.8525 51.7256 45.893 51.6896 45.9268C51.6536 45.9605 51.6113 45.9869 51.5651 46.0043C51.5189 46.0217 51.4697 46.0298 51.4204 46.0282C51.3715 46.0266 51.3235 46.0153 51.2792 45.9948C51.2348 45.9743 51.1951 45.9451 51.1623 45.9089C51.1295 45.8727 51.1043 45.8303 51.0883 45.7842C51.0722 45.738 51.0657 45.6891 51.0689 45.6404C51.0751 45.5418 51.1187 45.4493 51.1907 45.3817C51.2628 45.3142 51.3579 45.2767 51.4567 45.2769C51.5055 45.2784 51.5535 45.2897 51.5979 45.3102C51.6422 45.3307 51.682 45.3599 51.7148 45.3961C51.7476 45.4323 51.7728 45.4747 51.7888 45.5209C51.8048 45.567 51.8114 45.6159 51.8081 45.6646Z" fill="black"/>
<path d="M71.1721 41.0596C71.1706 41.1085 71.1593 41.1565 71.1388 41.2008C71.1183 41.2452 71.0891 41.2849 71.0529 41.3177C71.0167 41.3505 70.9742 41.3757 70.9281 41.3917C70.882 41.4078 70.8331 41.4143 70.7844 41.4111C70.6869 41.4048 70.5956 41.3608 70.53 41.2884C70.4644 41.216 70.4296 41.1209 70.4329 41.0233C70.4487 40.9367 70.4943 40.8585 70.5618 40.8021C70.6293 40.7457 70.7145 40.7148 70.8025 40.7148C70.8905 40.7148 70.9757 40.7457 71.0432 40.8021C71.1108 40.8585 71.1564 40.9367 71.1721 41.0233V41.0596Z" fill="black"/>
<path d="M68.1911 43.047C68.1896 43.0958 68.1783 43.1439 68.1578 43.1882C68.1373 43.2325 68.1081 43.2723 68.0719 43.3051C68.0357 43.3379 67.9933 43.3631 67.9471 43.3791C67.901 43.3951 67.8521 43.4017 67.8034 43.3984C67.7048 43.3923 67.6123 43.3487 67.5447 43.2766C67.4772 43.2046 67.4397 43.1094 67.4399 43.0107C67.4414 42.9619 67.4527 42.9138 67.4732 42.8695C67.4937 42.8252 67.5229 42.7854 67.5591 42.7526C67.5953 42.7198 67.6377 42.6946 67.6838 42.6786C67.73 42.6626 67.7789 42.656 67.8276 42.6593C67.9262 42.6654 68.0187 42.709 68.0863 42.7811C68.1538 42.8531 68.1913 42.9482 68.1911 43.047Z" fill="black"/>
<path d="M68.8212 45.5313C68.815 45.6288 68.771 45.7201 68.6986 45.7857C68.6262 45.8513 68.5312 45.8861 68.4335 45.8827C68.3847 45.8812 68.3367 45.8699 68.2923 45.8494C68.248 45.8289 68.2082 45.7997 68.1754 45.7635C68.1426 45.7273 68.1175 45.6849 68.1014 45.6387C68.0854 45.5926 68.0788 45.5437 68.0821 45.495C68.0978 45.4084 68.1434 45.3301 68.211 45.2738C68.2785 45.2174 68.3637 45.1865 68.4517 45.1865C68.5396 45.1865 68.6248 45.2174 68.6924 45.2738C68.7599 45.3301 68.8055 45.4084 68.8212 45.495V45.5313Z" fill="black"/>
<path d="M71.4871 43.9317C71.4856 43.9805 71.4742 44.0285 71.4537 44.0728C71.4333 44.1172 71.4041 44.1569 71.3679 44.1897C71.3317 44.2225 71.2892 44.2477 71.2431 44.2637C71.197 44.2798 71.1481 44.2864 71.0993 44.2831C71.0452 44.2929 70.9896 44.2907 70.9364 44.2767C70.8832 44.2627 70.8337 44.2371 70.7914 44.2019C70.7492 44.1666 70.7152 44.1225 70.6919 44.0727C70.6686 44.0229 70.6565 43.9685 70.6565 43.9135C70.6565 43.8585 70.6686 43.8041 70.6919 43.7543C70.7152 43.7044 70.7492 43.6603 70.7914 43.6251C70.8337 43.5898 70.8832 43.5643 70.9364 43.5503C70.9896 43.5362 71.0452 43.5341 71.0993 43.5439C71.2022 43.5439 71.3008 43.5847 71.3735 43.6575C71.4463 43.7302 71.4871 43.8288 71.4871 43.9317Z" fill="black"/>
</g>
</g>
</svg>
