<svg width="147" height="49" viewBox="0 0 147 49" fill="none" xmlns="http://www.w3.org/2000/svg">
<g clip-path="url(#clip0_194_961)">
<path d="M-403.457 39.64C-404.657 39.64 -405.791 39.4667 -406.857 39.12C-407.924 38.8 -408.884 38.3067 -409.737 37.64C-410.591 36.9467 -411.311 36.0933 -411.897 35.08C-412.484 34.0667 -412.884 32.88 -413.098 31.52L-407.938 29.44C-407.884 30.16 -407.737 30.8267 -407.497 31.44C-407.257 32.0533 -406.924 32.5867 -406.497 33.04C-406.071 33.4933 -405.564 33.8533 -404.977 34.12C-404.364 34.3867 -403.671 34.52 -402.897 34.52C-401.511 34.52 -400.337 34.1867 -399.377 33.52C-398.417 32.8267 -397.937 31.8933 -397.937 30.72C-397.937 29.7333 -398.284 28.9067 -398.977 28.24C-399.671 27.5733 -400.871 26.9067 -402.577 26.24L-403.977 25.68C-404.751 25.3867 -405.497 25.0267 -406.217 24.6C-406.911 24.1467 -407.524 23.6133 -408.057 23C-408.591 22.3867 -409.017 21.68 -409.337 20.88C-409.657 20.0533 -409.817 19.12 -409.817 18.08C-409.817 16.88 -409.564 15.7733 -409.057 14.76C-408.524 13.72 -407.804 12.84 -406.897 12.12C-405.991 11.3733 -404.924 10.7867 -403.697 10.36C-402.444 9.93333 -401.097 9.72 -399.657 9.72C-398.191 9.72 -396.937 9.92 -395.897 10.32C-394.857 10.72 -394.004 11.2267 -393.337 11.84C-392.644 12.4533 -392.111 13.12 -391.737 13.84C-391.364 14.5333 -391.111 15.2 -390.977 15.84L-395.937 17.72C-396.124 16.8667 -396.564 16.1467 -397.257 15.56C-397.924 14.9733 -398.911 14.68 -400.217 14.68C-400.751 14.68 -401.271 14.76 -401.777 14.92C-402.284 15.0533 -402.737 15.2533 -403.137 15.52C-403.537 15.7867 -403.857 16.12 -404.097 16.52C-404.337 16.92 -404.457 17.3733 -404.457 17.88C-404.457 18.76 -404.137 19.4933 -403.497 20.08C-402.831 20.64 -401.817 21.1733 -400.457 21.68L-398.777 22.28C-396.857 23 -395.337 23.9733 -394.217 25.2C-393.071 26.4267 -392.497 28.0667 -392.497 30.12C-392.497 31.5067 -392.764 32.7867 -393.297 33.96C-393.831 35.1067 -394.577 36.1067 -395.537 36.96C-396.497 37.7867 -397.657 38.44 -399.017 38.92C-400.351 39.4 -401.831 39.64 -403.457 39.64ZM-361.89 10.68L-374.37 22.6L-365.85 38.68L-365.93 39H-372.25L-378.69 26.72L-382.73 30.6L-384.21 39H-389.61L-384.53 10.36H-379.13L-381.29 22.48H-380.97L-368.49 10.36H-361.81L-361.89 10.68ZM-357.772 10.36H-352.372L-357.452 39H-362.852L-357.772 10.36ZM-346.6 10.36H-341.2L-345.4 33.88H-333.24L-334.16 39H-351.68L-346.6 10.36ZM-325.233 10.36H-319.833L-324.033 33.88H-311.873L-312.793 39H-330.313L-325.233 10.36ZM-248.271 39H-253.511L-255.591 25.16L-255.871 22.04H-256.191L-257.551 25.16L-264.431 39H-269.711L-272.551 10.36H-266.911L-265.471 27.08L-265.351 30.16H-265.031L-263.631 27.08L-257.351 14.2H-252.231L-250.351 27.08L-250.071 30.12H-249.751L-248.631 27.08L-241.471 10.36H-235.671L-248.271 39ZM-223.297 39.64C-225.217 39.64 -227.004 39.32 -228.657 38.68C-230.284 38.04 -231.697 37.1467 -232.897 36C-234.097 34.8267 -235.044 33.4267 -235.737 31.8C-236.404 30.1467 -236.737 28.32 -236.737 26.32C-236.737 24.08 -236.324 21.96 -235.497 19.96C-234.671 17.9333 -233.511 16.1733 -232.017 14.68C-230.524 13.16 -228.737 11.96 -226.657 11.08C-224.551 10.1733 -222.231 9.72 -219.697 9.72C-217.697 9.72 -215.871 10.0533 -214.217 10.72C-212.564 11.3867 -211.151 12.32 -209.977 13.52C-208.804 14.6933 -207.897 16.0933 -207.257 17.72C-206.591 19.3467 -206.257 21.12 -206.257 23.04C-206.257 25.28 -206.671 27.4 -207.497 29.4C-208.324 31.4 -209.484 33.16 -210.977 34.68C-212.471 36.2 -214.271 37.4133 -216.377 38.32C-218.457 39.2 -220.764 39.64 -223.297 39.64ZM-222.737 34.52C-221.217 34.52 -219.791 34.2267 -218.457 33.64C-217.124 33.0267 -215.964 32.2133 -214.977 31.2C-213.964 30.1867 -213.164 29.0133 -212.577 27.68C-211.991 26.3467 -211.697 24.9333 -211.697 23.44C-211.697 22.1333 -211.924 20.96 -212.377 19.92C-212.804 18.8533 -213.404 17.9467 -214.177 17.2C-214.951 16.4533 -215.857 15.88 -216.897 15.48C-217.937 15.0533 -219.057 14.84 -220.257 14.84C-221.831 14.84 -223.284 15.1467 -224.617 15.76C-225.951 16.3733 -227.124 17.2 -228.137 18.24C-229.124 19.2533 -229.897 20.4267 -230.457 21.76C-231.017 23.0933 -231.297 24.48 -231.297 25.92C-231.297 27.2267 -231.084 28.4133 -230.657 29.48C-230.204 30.52 -229.591 31.4133 -228.817 32.16C-228.044 32.9067 -227.137 33.4933 -226.097 33.92C-225.057 34.32 -223.937 34.52 -222.737 34.52ZM-199.647 10.36H-190.207C-188.847 10.36 -187.607 10.5733 -186.487 11C-185.367 11.4 -184.407 11.96 -183.607 12.68C-182.807 13.4 -182.194 14.24 -181.767 15.2C-181.34 16.16 -181.127 17.2 -181.127 18.32C-181.127 19.5467 -181.327 20.68 -181.727 21.72C-182.127 22.7333 -182.674 23.64 -183.367 24.44C-184.034 25.24 -184.82 25.9067 -185.727 26.44C-186.634 26.9733 -187.607 27.36 -188.647 27.6L-188.727 27.88L-183.127 38.68L-183.207 39H-189.087L-194.607 28.24H-197.407L-199.327 39H-204.727L-199.647 10.36ZM-191.527 23.28C-190.087 23.28 -188.9 22.92 -187.967 22.2C-187.034 21.4533 -186.567 20.3333 -186.567 18.84C-186.567 17.8267 -186.914 16.9867 -187.607 16.32C-188.274 15.6533 -189.207 15.32 -190.407 15.32H-195.167L-196.567 23.28H-191.527ZM-152.202 10.68L-164.682 22.6L-156.162 38.68L-156.242 39H-162.562L-169.002 26.72L-173.042 30.6L-174.522 39H-179.922L-174.842 10.36H-169.442L-171.602 22.48H-171.282L-158.802 10.36H-152.122L-152.202 10.68ZM-104.139 10.36H-98.7391L-102.939 33.88H-90.7791L-91.6991 39H-109.219L-104.139 10.36ZM-82.7719 10.36H-77.3719L-82.4519 39H-87.8519L-82.7719 10.36ZM-71.6 10.36H-53.44L-54.36 15.48H-67.12L-68.36 22.44H-56.88L-57.76 27.56H-69.24L-71.28 39H-76.68L-71.6 10.36ZM-48.2953 39L-44.1353 15.48H-52.1353L-51.2153 10.36H-29.8153L-30.7353 15.48H-38.7353L-42.8953 39H-48.2953ZM20.8394 39.64C19.6394 39.64 18.506 39.4667 17.4394 39.12C16.3727 38.8 15.4127 38.3067 14.5594 37.64C13.706 36.9467 12.986 36.0933 12.3994 35.08C11.8127 34.0667 11.4127 32.88 11.1994 31.52L16.3594 29.44C16.4127 30.16 16.5594 30.8267 16.7994 31.44C17.0394 32.0533 17.3727 32.5867 17.7994 33.04C18.226 33.4933 18.7327 33.8533 19.3194 34.12C19.9327 34.3867 20.626 34.52 21.3994 34.52C22.786 34.52 23.9594 34.1867 24.9194 33.52C25.8794 32.8267 26.3594 31.8933 26.3594 30.72C26.3594 29.7333 26.0127 28.9067 25.3194 28.24C24.626 27.5733 23.426 26.9067 21.7194 26.24L20.3194 25.68C19.546 25.3867 18.7994 25.0267 18.0794 24.6C17.386 24.1467 16.7727 23.6133 16.2394 23C15.706 22.3867 15.2794 21.68 14.9594 20.88C14.6394 20.0533 14.4794 19.12 14.4794 18.08C14.4794 16.88 14.7327 15.7733 15.2394 14.76C15.7727 13.72 16.4927 12.84 17.3994 12.12C18.306 11.3733 19.3727 10.7867 20.5994 10.36C21.8527 9.93333 23.1994 9.72 24.6394 9.72C26.106 9.72 27.3594 9.92 28.3994 10.32C29.4394 10.72 30.2927 11.2267 30.9594 11.84C31.6527 12.4533 32.186 13.12 32.5594 13.84C32.9327 14.5333 33.186 15.2 33.3194 15.84L28.3594 17.72C28.1727 16.8667 27.7327 16.1467 27.0394 15.56C26.3727 14.9733 25.386 14.68 24.0794 14.68C23.546 14.68 23.026 14.76 22.5194 14.92C22.0127 15.0533 21.5594 15.2533 21.1594 15.52C20.7594 15.7867 20.4394 16.12 20.1994 16.52C19.9594 16.92 19.8394 17.3733 19.8394 17.88C19.8394 18.76 20.1594 19.4933 20.7994 20.08C21.466 20.64 22.4794 21.1733 23.8394 21.68L25.5194 22.28C27.4394 23 28.9594 23.9733 30.0794 25.2C31.226 26.4267 31.7994 28.0667 31.7994 30.12C31.7994 31.5067 31.5327 32.7867 30.9994 33.96C30.466 35.1067 29.7194 36.1067 28.7594 36.96C27.7994 37.7867 26.6394 38.44 25.2794 38.92C23.946 39.4 22.466 39.64 20.8394 39.64ZM60.9272 34.48C60.0205 35.4133 59.1139 36.2 58.2072 36.84C57.3005 37.48 56.3539 38.0133 55.3672 38.44C54.3805 38.8667 53.3272 39.1733 52.2072 39.36C51.0872 39.5467 49.8739 39.64 48.5672 39.64C46.7539 39.64 45.0605 39.3333 43.4872 38.72C41.9139 38.1067 40.5405 37.2267 39.3672 36.08C38.1939 34.9333 37.2605 33.5467 36.5672 31.92C35.9005 30.2667 35.5672 28.4133 35.5672 26.36C35.5672 24.12 35.9939 22 36.8472 20C37.7005 17.9733 38.8872 16.2 40.4072 14.68C41.9272 13.16 43.7405 11.96 45.8472 11.08C47.9539 10.1733 50.2739 9.72 52.8072 9.72C55.2339 9.72 57.3139 10.16 59.0472 11.04C60.7805 11.92 62.1672 13.12 63.2072 14.64L58.8872 18.16C58.1139 17.12 57.1939 16.3067 56.1272 15.72C55.0605 15.1333 53.7139 14.84 52.0872 14.84C50.5672 14.84 49.1405 15.1333 47.8072 15.72C46.4739 16.3067 45.3005 17.1067 44.2872 18.12C43.2739 19.1333 42.4739 20.32 41.8872 21.68C41.3005 23.04 41.0072 24.5067 41.0072 26.08C41.0072 27.36 41.2072 28.52 41.6072 29.56C42.0339 30.6 42.6072 31.4933 43.3272 32.24C44.0472 32.96 44.9005 33.52 45.8872 33.92C46.8739 34.32 47.9539 34.52 49.1272 34.52C50.8339 34.52 52.3539 34.1733 53.6872 33.48C55.0205 32.76 56.2872 31.8 57.4872 30.6L60.9272 34.48ZM77.3022 10.36H83.6222L89.3422 39H83.5822L82.3422 32.16H71.4222L67.8222 39H61.7022L77.3022 10.36ZM81.4222 27.2L80.1022 20L79.7022 16.56H79.3822L77.7822 20L73.9822 27.2H81.4222ZM97.775 10.36H103.175L98.975 33.88H111.135L110.215 39H92.695L97.775 10.36ZM123.622 15.48L122.462 22.12H133.942L133.022 27.24H121.542L120.342 33.88H133.142L132.222 39H114.062L119.142 10.36H137.302L136.382 15.48H123.622ZM187.962 23.28H202.002V24.48C202.002 26.7733 201.549 28.88 200.642 30.8C199.762 32.72 198.602 34.3333 197.162 35.64C195.749 36.92 194.109 37.9067 192.242 38.6C190.402 39.2933 188.429 39.64 186.322 39.64C184.269 39.64 182.389 39.3067 180.682 38.64C179.002 37.9733 177.549 37.04 176.322 35.84C175.122 34.64 174.176 33.2133 173.482 31.56C172.816 29.88 172.482 28.04 172.482 26.04C172.482 23.88 172.896 21.8133 173.722 19.84C174.549 17.8667 175.722 16.1333 177.242 14.64C178.762 13.1467 180.576 11.96 182.682 11.08C184.816 10.1733 187.189 9.72 189.802 9.72C192.202 9.72 194.309 10.1467 196.122 11C197.936 11.8267 199.402 12.96 200.522 14.4L196.242 18.04C195.576 17.1067 194.642 16.3467 193.442 15.76C192.242 15.1467 190.829 14.84 189.202 14.84C187.656 14.84 186.189 15.1067 184.802 15.64C183.442 16.1467 182.256 16.88 181.242 17.84C180.229 18.8 179.416 19.96 178.802 21.32C178.216 22.6533 177.922 24.1467 177.922 25.8C177.922 27.16 178.136 28.3867 178.562 29.48C179.016 30.5467 179.629 31.4533 180.402 32.2C181.202 32.9467 182.122 33.52 183.162 33.92C184.229 34.32 185.376 34.52 186.602 34.52C189.322 34.52 191.549 33.76 193.282 32.24C193.922 31.7067 194.456 31.08 194.882 30.36C195.309 29.6133 195.669 28.7867 195.962 27.88H187.162L187.962 23.28ZM209.025 10.36H218.465C219.825 10.36 221.065 10.5733 222.185 11C223.305 11.4 224.265 11.96 225.065 12.68C225.865 13.4 226.478 14.24 226.905 15.2C227.332 16.16 227.545 17.2 227.545 18.32C227.545 19.5467 227.345 20.68 226.945 21.72C226.545 22.7333 225.998 23.64 225.305 24.44C224.638 25.24 223.852 25.9067 222.945 26.44C222.038 26.9733 221.065 27.36 220.025 27.6L219.945 27.88L225.545 38.68L225.465 39H219.585L214.065 28.24H211.265L209.345 39H203.945L209.025 10.36ZM217.145 23.28C218.585 23.28 219.772 22.92 220.705 22.2C221.638 21.4533 222.105 20.3333 222.105 18.84C222.105 17.8267 221.758 16.9867 221.065 16.32C220.398 15.6533 219.465 15.32 218.265 15.32H213.505L212.105 23.28H217.145ZM241.99 10.36H248.31L254.03 39H248.27L247.03 32.16H236.11L232.51 39H226.39L241.99 10.36ZM246.11 27.2L244.79 20L244.39 16.56H244.07L242.47 20L238.67 27.2H246.11ZM262.463 10.36H271.583C273.689 10.36 275.556 10.68 277.183 11.32C278.809 11.9333 280.169 12.8 281.263 13.92C282.356 15.0133 283.183 16.3333 283.743 17.88C284.303 19.4 284.583 21.08 284.583 22.92C284.583 25.0533 284.183 27.0933 283.383 29.04C282.609 30.96 281.476 32.6667 279.983 34.16C278.516 35.6267 276.729 36.8 274.623 37.68C272.516 38.56 270.129 39 267.463 39H257.383L262.463 10.36ZM267.743 33.88C269.449 33.88 271.009 33.6133 272.423 33.08C273.836 32.5467 275.036 31.8133 276.023 30.88C277.036 29.9467 277.809 28.8533 278.343 27.6C278.903 26.3467 279.183 24.9867 279.183 23.52C279.183 20.9333 278.503 18.9467 277.143 17.56C275.809 16.1733 273.769 15.48 271.023 15.48H266.943L263.663 33.88H267.743ZM295.693 15.48L294.533 22.12H306.012L305.093 27.24H293.613L292.413 33.88H305.213L304.293 39H286.133L291.213 10.36H309.373L308.453 15.48H295.693Z" fill="#33FF00"/>
</g>
<defs>
<clipPath id="clip0_194_961">
<rect width="147" height="49" fill="white"/>
</clipPath>
</defs>
</svg>
