<svg width="147" height="49" viewBox="0 0 147 49" fill="none" xmlns="http://www.w3.org/2000/svg">
<g clip-path="url(#clip0_194_955)">
<path d="M29.8316 39.64C28.6316 39.64 27.4982 39.4667 26.4316 39.12C25.3649 38.8 24.4049 38.3067 23.5516 37.64C22.6982 36.9467 21.9782 36.0933 21.3916 35.08C20.8049 34.0667 20.4049 32.88 20.1916 31.52L25.3516 29.44C25.4049 30.16 25.5516 30.8267 25.7916 31.44C26.0316 32.0533 26.3649 32.5867 26.7916 33.04C27.2182 33.4933 27.7249 33.8533 28.3116 34.12C28.9249 34.3867 29.6182 34.52 30.3916 34.52C31.7782 34.52 32.9516 34.1867 33.9116 33.52C34.8716 32.8267 35.3516 31.8933 35.3516 30.72C35.3516 29.7333 35.0049 28.9067 34.3116 28.24C33.6182 27.5733 32.4182 26.9067 30.7116 26.24L29.3116 25.68C28.5382 25.3867 27.7916 25.0267 27.0716 24.6C26.3782 24.1467 25.7649 23.6133 25.2316 23C24.6982 22.3867 24.2716 21.68 23.9516 20.88C23.6316 20.0533 23.4716 19.12 23.4716 18.08C23.4716 16.88 23.7249 15.7733 24.2316 14.76C24.7649 13.72 25.4849 12.84 26.3916 12.12C27.2982 11.3733 28.3649 10.7867 29.5916 10.36C30.8449 9.93333 32.1916 9.72 33.6316 9.72C35.0982 9.72 36.3516 9.92 37.3916 10.32C38.4316 10.72 39.2849 11.2267 39.9516 11.84C40.6449 12.4533 41.1782 13.12 41.5516 13.84C41.9249 14.5333 42.1782 15.2 42.3116 15.84L37.3516 17.72C37.1649 16.8667 36.7249 16.1467 36.0316 15.56C35.3649 14.9733 34.3782 14.68 33.0716 14.68C32.5382 14.68 32.0182 14.76 31.5116 14.92C31.0049 15.0533 30.5516 15.2533 30.1516 15.52C29.7516 15.7867 29.4316 16.12 29.1916 16.52C28.9516 16.92 28.8316 17.3733 28.8316 17.88C28.8316 18.76 29.1516 19.4933 29.7916 20.08C30.4582 20.64 31.4716 21.1733 32.8316 21.68L34.5116 22.28C36.4316 23 37.9516 23.9733 39.0716 25.2C40.2182 26.4267 40.7916 28.0667 40.7916 30.12C40.7916 31.5067 40.5249 32.7867 39.9916 33.96C39.4582 35.1067 38.7116 36.1067 37.7516 36.96C36.7916 37.7867 35.6316 38.44 34.2716 38.92C32.9382 39.4 31.4582 39.64 29.8316 39.64ZM71.3994 10.68L58.9194 22.6L67.4394 38.68L67.3594 39H61.0394L54.5994 26.72L50.5594 30.6L49.0794 39H43.6794L48.7594 10.36H54.1594L51.9994 22.48H52.3194L64.7994 10.36H71.4794L71.3994 10.68ZM75.5172 10.36H80.9172L75.8372 39H70.4372L75.5172 10.36ZM86.6891 10.36H92.0891L87.8891 33.88H100.049L99.1291 39H81.6091L86.6891 10.36ZM108.056 10.36H113.456L109.256 33.88H121.416L120.496 39H102.976L108.056 10.36ZM185.018 39H179.778L177.698 25.16L177.418 22.04H177.098L175.738 25.16L168.858 39H163.578L160.738 10.36H166.378L167.818 27.08L167.938 30.16H168.258L169.658 27.08L175.938 14.2H181.058L182.938 27.08L183.218 30.12H183.538L184.658 27.08L191.818 10.36H197.618L185.018 39ZM209.992 39.64C208.072 39.64 206.285 39.32 204.632 38.68C203.005 38.04 201.592 37.1467 200.392 36C199.192 34.8267 198.245 33.4267 197.552 31.8C196.885 30.1467 196.552 28.32 196.552 26.32C196.552 24.08 196.965 21.96 197.792 19.96C198.618 17.9333 199.778 16.1733 201.272 14.68C202.765 13.16 204.552 11.96 206.632 11.08C208.738 10.1733 211.058 9.72 213.592 9.72C215.592 9.72 217.418 10.0533 219.072 10.72C220.725 11.3867 222.138 12.32 223.312 13.52C224.485 14.6933 225.392 16.0933 226.032 17.72C226.698 19.3467 227.032 21.12 227.032 23.04C227.032 25.28 226.618 27.4 225.792 29.4C224.965 31.4 223.805 33.16 222.312 34.68C220.818 36.2 219.018 37.4133 216.912 38.32C214.832 39.2 212.525 39.64 209.992 39.64ZM210.552 34.52C212.072 34.52 213.498 34.2267 214.832 33.64C216.165 33.0267 217.325 32.2133 218.312 31.2C219.325 30.1867 220.125 29.0133 220.712 27.68C221.298 26.3467 221.592 24.9333 221.592 23.44C221.592 22.1333 221.365 20.96 220.912 19.92C220.485 18.8533 219.885 17.9467 219.112 17.2C218.338 16.4533 217.432 15.88 216.392 15.48C215.352 15.0533 214.232 14.84 213.032 14.84C211.458 14.84 210.005 15.1467 208.672 15.76C207.338 16.3733 206.165 17.2 205.152 18.24C204.165 19.2533 203.392 20.4267 202.832 21.76C202.272 23.0933 201.992 24.48 201.992 25.92C201.992 27.2267 202.205 28.4133 202.632 29.48C203.085 30.52 203.698 31.4133 204.472 32.16C205.245 32.9067 206.152 33.4933 207.192 33.92C208.232 34.32 209.352 34.52 210.552 34.52ZM233.642 10.36H243.082C244.442 10.36 245.682 10.5733 246.802 11C247.922 11.4 248.882 11.96 249.682 12.68C250.482 13.4 251.096 14.24 251.522 15.2C251.949 16.16 252.162 17.2 252.162 18.32C252.162 19.5467 251.962 20.68 251.562 21.72C251.162 22.7333 250.616 23.64 249.922 24.44C249.256 25.24 248.469 25.9067 247.562 26.44C246.656 26.9733 245.682 27.36 244.642 27.6L244.562 27.88L250.162 38.68L250.082 39H244.202L238.682 28.24H235.882L233.962 39H228.562L233.642 10.36ZM241.762 23.28C243.202 23.28 244.389 22.92 245.322 22.2C246.256 21.4533 246.722 20.3333 246.722 18.84C246.722 17.8267 246.376 16.9867 245.682 16.32C245.016 15.6533 244.082 15.32 242.882 15.32H238.122L236.722 23.28H241.762ZM281.087 10.68L268.607 22.6L277.127 38.68L277.047 39H270.727L264.287 26.72L260.247 30.6L258.767 39H253.367L258.447 10.36H263.847L261.687 22.48H262.007L274.487 10.36H281.167L281.087 10.68ZM320.361 10.36H325.761L321.561 33.88H333.721L332.801 39H315.281L320.361 10.36ZM341.728 10.36H347.128L342.048 39H336.648L341.728 10.36ZM352.9 10.36H371.06L370.14 15.48H357.38L356.14 22.44H367.62L366.74 27.56H355.26L353.22 39H347.82L352.9 10.36ZM376.205 39L380.365 15.48H372.365L373.285 10.36H394.685L393.765 15.48H385.765L381.605 39H376.205ZM436.55 39.64C435.35 39.64 434.217 39.4667 433.15 39.12C432.084 38.8 431.124 38.3067 430.27 37.64C429.417 36.9467 428.697 36.0933 428.11 35.08C427.524 34.0667 427.124 32.88 426.91 31.52L432.07 29.44C432.124 30.16 432.27 30.8267 432.51 31.44C432.75 32.0533 433.084 32.5867 433.51 33.04C433.937 33.4933 434.444 33.8533 435.03 34.12C435.644 34.3867 436.337 34.52 437.11 34.52C438.497 34.52 439.67 34.1867 440.63 33.52C441.59 32.8267 442.07 31.8933 442.07 30.72C442.07 29.7333 441.724 28.9067 441.03 28.24C440.337 27.5733 439.137 26.9067 437.43 26.24L436.03 25.68C435.257 25.3867 434.51 25.0267 433.79 24.6C433.097 24.1467 432.484 23.6133 431.95 23C431.417 22.3867 430.99 21.68 430.67 20.88C430.35 20.0533 430.19 19.12 430.19 18.08C430.19 16.88 430.444 15.7733 430.95 14.76C431.484 13.72 432.204 12.84 433.11 12.12C434.017 11.3733 435.084 10.7867 436.31 10.36C437.564 9.93333 438.91 9.72 440.35 9.72C441.817 9.72 443.07 9.92 444.11 10.32C445.15 10.72 446.004 11.2267 446.67 11.84C447.364 12.4533 447.897 13.12 448.27 13.84C448.644 14.5333 448.897 15.2 449.03 15.84L444.07 17.72C443.884 16.8667 443.444 16.1467 442.75 15.56C442.084 14.9733 441.097 14.68 439.79 14.68C439.257 14.68 438.737 14.76 438.23 14.92C437.724 15.0533 437.27 15.2533 436.87 15.52C436.47 15.7867 436.15 16.12 435.91 16.52C435.67 16.92 435.55 17.3733 435.55 17.88C435.55 18.76 435.87 19.4933 436.51 20.08C437.177 20.64 438.19 21.1733 439.55 21.68L441.23 22.28C443.15 23 444.67 23.9733 445.79 25.2C446.937 26.4267 447.51 28.0667 447.51 30.12C447.51 31.5067 447.244 32.7867 446.71 33.96C446.177 35.1067 445.43 36.1067 444.47 36.96C443.51 37.7867 442.35 38.44 440.99 38.92C439.657 39.4 438.177 39.64 436.55 39.64ZM476.638 34.48C475.731 35.4133 474.825 36.2 473.918 36.84C473.011 37.48 472.065 38.0133 471.078 38.44C470.091 38.8667 469.038 39.1733 467.918 39.36C466.798 39.5467 465.585 39.64 464.278 39.64C462.465 39.64 460.771 39.3333 459.198 38.72C457.625 38.1067 456.251 37.2267 455.078 36.08C453.905 34.9333 452.971 33.5467 452.278 31.92C451.611 30.2667 451.278 28.4133 451.278 26.36C451.278 24.12 451.705 22 452.558 20C453.411 17.9733 454.598 16.2 456.118 14.68C457.638 13.16 459.451 11.96 461.558 11.08C463.665 10.1733 465.985 9.72 468.518 9.72C470.945 9.72 473.025 10.16 474.758 11.04C476.491 11.92 477.878 13.12 478.918 14.64L474.598 18.16C473.825 17.12 472.905 16.3067 471.838 15.72C470.771 15.1333 469.425 14.84 467.798 14.84C466.278 14.84 464.851 15.1333 463.518 15.72C462.185 16.3067 461.011 17.1067 459.998 18.12C458.985 19.1333 458.185 20.32 457.598 21.68C457.011 23.04 456.718 24.5067 456.718 26.08C456.718 27.36 456.918 28.52 457.318 29.56C457.745 30.6 458.318 31.4933 459.038 32.24C459.758 32.96 460.611 33.52 461.598 33.92C462.585 34.32 463.665 34.52 464.838 34.52C466.545 34.52 468.065 34.1733 469.398 33.48C470.731 32.76 471.998 31.8 473.198 30.6L476.638 34.48ZM493.013 10.36H499.333L505.053 39H499.293L498.053 32.16H487.133L483.533 39H477.413L493.013 10.36ZM497.133 27.2L495.813 20L495.413 16.56H495.093L493.493 20L489.693 27.2H497.133ZM513.486 10.36H518.886L514.686 33.88H526.846L525.926 39H508.406L513.486 10.36ZM539.333 15.48L538.173 22.12H549.653L548.733 27.24H537.253L536.053 33.88H548.853L547.933 39H529.773L534.853 10.36H553.013L552.093 15.48H539.333ZM603.673 23.28H617.713V24.48C617.713 26.7733 617.26 28.88 616.353 30.8C615.473 32.72 614.313 34.3333 612.873 35.64C611.46 36.92 609.82 37.9067 607.953 38.6C606.113 39.2933 604.14 39.64 602.033 39.64C599.98 39.64 598.1 39.3067 596.393 38.64C594.713 37.9733 593.26 37.04 592.033 35.84C590.833 34.64 589.886 33.2133 589.193 31.56C588.526 29.88 588.193 28.04 588.193 26.04C588.193 23.88 588.606 21.8133 589.433 19.84C590.26 17.8667 591.433 16.1333 592.953 14.64C594.473 13.1467 596.286 11.96 598.393 11.08C600.526 10.1733 602.9 9.72 605.513 9.72C607.913 9.72 610.02 10.1467 611.833 11C613.646 11.8267 615.113 12.96 616.233 14.4L611.953 18.04C611.286 17.1067 610.353 16.3467 609.153 15.76C607.953 15.1467 606.54 14.84 604.913 14.84C603.366 14.84 601.9 15.1067 600.513 15.64C599.153 16.1467 597.966 16.88 596.953 17.84C595.94 18.8 595.126 19.96 594.513 21.32C593.926 22.6533 593.633 24.1467 593.633 25.8C593.633 27.16 593.846 28.3867 594.273 29.48C594.726 30.5467 595.34 31.4533 596.113 32.2C596.913 32.9467 597.833 33.52 598.873 33.92C599.94 34.32 601.086 34.52 602.313 34.52C605.033 34.52 607.26 33.76 608.993 32.24C609.633 31.7067 610.166 31.08 610.593 30.36C611.02 29.6133 611.38 28.7867 611.673 27.88H602.873L603.673 23.28ZM624.736 10.36H634.176C635.536 10.36 636.776 10.5733 637.896 11C639.016 11.4 639.976 11.96 640.776 12.68C641.576 13.4 642.189 14.24 642.616 15.2C643.043 16.16 643.256 17.2 643.256 18.32C643.256 19.5467 643.056 20.68 642.656 21.72C642.256 22.7333 641.709 23.64 641.016 24.44C640.349 25.24 639.563 25.9067 638.656 26.44C637.749 26.9733 636.776 27.36 635.736 27.6L635.656 27.88L641.256 38.68L641.176 39H635.296L629.776 28.24H626.976L625.056 39H619.656L624.736 10.36ZM632.856 23.28C634.296 23.28 635.483 22.92 636.416 22.2C637.349 21.4533 637.816 20.3333 637.816 18.84C637.816 17.8267 637.469 16.9867 636.776 16.32C636.109 15.6533 635.176 15.32 633.976 15.32H629.216L627.816 23.28H632.856ZM657.701 10.36H664.021L669.741 39H663.981L662.741 32.16H651.821L648.221 39H642.101L657.701 10.36ZM661.821 27.2L660.501 20L660.101 16.56H659.781L658.181 20L654.381 27.2H661.821ZM678.173 10.36H687.293C689.4 10.36 691.267 10.68 692.893 11.32C694.52 11.9333 695.88 12.8 696.973 13.92C698.067 15.0133 698.893 16.3333 699.453 17.88C700.013 19.4 700.293 21.08 700.293 22.92C700.293 25.0533 699.893 27.0933 699.093 29.04C698.32 30.96 697.187 32.6667 695.693 34.16C694.227 35.6267 692.44 36.8 690.333 37.68C688.227 38.56 685.84 39 683.173 39H673.093L678.173 10.36ZM683.453 33.88C685.16 33.88 686.72 33.6133 688.133 33.08C689.547 32.5467 690.747 31.8133 691.733 30.88C692.747 29.9467 693.52 28.8533 694.053 27.6C694.613 26.3467 694.893 24.9867 694.893 23.52C694.893 20.9333 694.213 18.9467 692.853 17.56C691.52 16.1733 689.48 15.48 686.733 15.48H682.653L679.373 33.88H683.453ZM711.403 15.48L710.243 22.12H721.723L720.803 27.24H709.323L708.123 33.88H720.923L720.003 39H701.843L706.923 10.36H725.083L724.163 15.48H711.403Z" fill="#33FF00"/>
</g>
<defs>
<clipPath id="clip0_194_955">
<rect width="147" height="49" fill="white"/>
</clipPath>
</defs>
</svg>
