<svg width="61" height="66" viewBox="0 0 61 66" fill="none" xmlns="http://www.w3.org/2000/svg">
<path d="M8.6849e-08 61C8.6849e-08 63.7614 2.23858 66 5 66H50C52.7614 66 55 63.7614 55 61C55 58.2386 52.7614 56 50 56H10V16C10 13.2386 7.76142 11 5 11C2.23858 11 8.6849e-08 13.2386 8.6849e-08 16V61ZM64.5355 8.53553C66.4882 6.58291 66.4882 3.41709 64.5355 1.46447C62.5829 -0.488155 59.4171 -0.488154 57.4645 1.46447L64.5355 8.53553ZM8.53553 64.5355L64.5355 8.53553L57.4645 1.46447L1.46447 57.4645L8.53553 64.5355Z" fill="white"/>
</svg>
