<svg width="147" height="49" viewBox="0 0 147 49" fill="none" xmlns="http://www.w3.org/2000/svg">
<g clip-path="url(#clip0_194_957)">
<path d="M-115.168 39.64C-116.368 39.64 -117.502 39.4667 -118.568 39.12C-119.635 38.8 -120.595 38.3067 -121.448 37.64C-122.302 36.9467 -123.022 36.0933 -123.608 35.08C-124.195 34.0667 -124.595 32.88 -124.808 31.52L-119.648 29.44C-119.595 30.16 -119.448 30.8267 -119.208 31.44C-118.968 32.0533 -118.635 32.5867 -118.208 33.04C-117.782 33.4933 -117.275 33.8533 -116.688 34.12C-116.075 34.3867 -115.382 34.52 -114.608 34.52C-113.222 34.52 -112.048 34.1867 -111.088 33.52C-110.128 32.8267 -109.648 31.8933 -109.648 30.72C-109.648 29.7333 -109.995 28.9067 -110.688 28.24C-111.382 27.5733 -112.582 26.9067 -114.288 26.24L-115.688 25.68C-116.462 25.3867 -117.208 25.0267 -117.928 24.6C-118.622 24.1467 -119.235 23.6133 -119.768 23C-120.302 22.3867 -120.728 21.68 -121.048 20.88C-121.368 20.0533 -121.528 19.12 -121.528 18.08C-121.528 16.88 -121.275 15.7733 -120.768 14.76C-120.235 13.72 -119.515 12.84 -118.608 12.12C-117.702 11.3733 -116.635 10.7867 -115.408 10.36C-114.155 9.93333 -112.808 9.72 -111.368 9.72C-109.902 9.72 -108.648 9.92 -107.608 10.32C-106.568 10.72 -105.715 11.2267 -105.048 11.84C-104.355 12.4533 -103.822 13.12 -103.448 13.84C-103.075 14.5333 -102.822 15.2 -102.688 15.84L-107.648 17.72C-107.835 16.8667 -108.275 16.1467 -108.968 15.56C-109.635 14.9733 -110.622 14.68 -111.928 14.68C-112.462 14.68 -112.982 14.76 -113.488 14.92C-113.995 15.0533 -114.448 15.2533 -114.848 15.52C-115.248 15.7867 -115.568 16.12 -115.808 16.52C-116.048 16.92 -116.168 17.3733 -116.168 17.88C-116.168 18.76 -115.848 19.4933 -115.208 20.08C-114.542 20.64 -113.528 21.1733 -112.168 21.68L-110.488 22.28C-108.568 23 -107.048 23.9733 -105.928 25.2C-104.782 26.4267 -104.208 28.0667 -104.208 30.12C-104.208 31.5067 -104.475 32.7867 -105.008 33.96C-105.542 35.1067 -106.288 36.1067 -107.248 36.96C-108.208 37.7867 -109.368 38.44 -110.728 38.92C-112.062 39.4 -113.542 39.64 -115.168 39.64ZM-73.6006 10.68L-86.0806 22.6L-77.5606 38.68L-77.6406 39H-83.9606L-90.4006 26.72L-94.4406 30.6L-95.9206 39H-101.321L-96.2406 10.36H-90.8406L-93.0006 22.48H-92.6806L-80.2006 10.36H-73.5206L-73.6006 10.68ZM-69.4828 10.36H-64.0828L-69.1628 39H-74.5628L-69.4828 10.36ZM-58.3109 10.36H-52.9109L-57.1109 33.88H-44.9509L-45.8709 39H-63.3909L-58.3109 10.36ZM-36.9437 10.36H-31.5437L-35.7437 33.88H-23.5837L-24.5037 39H-42.0237L-36.9437 10.36ZM40.0181 39H34.7781L32.6981 25.16L32.4181 22.04H32.0981L30.7381 25.16L23.8581 39H18.5781L15.7381 10.36H21.3781L22.8181 27.08L22.9381 30.16H23.2581L24.6581 27.08L30.9381 14.2H36.0581L37.9381 27.08L38.2181 30.12H38.5381L39.6581 27.08L46.8181 10.36H52.6181L40.0181 39ZM64.9916 39.64C63.0716 39.64 61.2849 39.32 59.6316 38.68C58.0049 38.04 56.5916 37.1467 55.3916 36C54.1916 34.8267 53.2449 33.4267 52.5516 31.8C51.8849 30.1467 51.5516 28.32 51.5516 26.32C51.5516 24.08 51.9649 21.96 52.7916 19.96C53.6182 17.9333 54.7782 16.1733 56.2716 14.68C57.7649 13.16 59.5516 11.96 61.6316 11.08C63.7382 10.1733 66.0582 9.72 68.5916 9.72C70.5916 9.72 72.4182 10.0533 74.0716 10.72C75.7249 11.3867 77.1382 12.32 78.3116 13.52C79.4849 14.6933 80.3916 16.0933 81.0316 17.72C81.6982 19.3467 82.0316 21.12 82.0316 23.04C82.0316 25.28 81.6182 27.4 80.7916 29.4C79.9649 31.4 78.8049 33.16 77.3116 34.68C75.8182 36.2 74.0182 37.4133 71.9116 38.32C69.8316 39.2 67.5249 39.64 64.9916 39.64ZM65.5516 34.52C67.0716 34.52 68.4982 34.2267 69.8316 33.64C71.1649 33.0267 72.3249 32.2133 73.3116 31.2C74.3249 30.1867 75.1249 29.0133 75.7116 27.68C76.2982 26.3467 76.5916 24.9333 76.5916 23.44C76.5916 22.1333 76.3649 20.96 75.9116 19.92C75.4849 18.8533 74.8849 17.9467 74.1116 17.2C73.3382 16.4533 72.4316 15.88 71.3916 15.48C70.3516 15.0533 69.2316 14.84 68.0316 14.84C66.4582 14.84 65.0049 15.1467 63.6716 15.76C62.3382 16.3733 61.1649 17.2 60.1516 18.24C59.1649 19.2533 58.3916 20.4267 57.8316 21.76C57.2716 23.0933 56.9916 24.48 56.9916 25.92C56.9916 27.2267 57.2049 28.4133 57.6316 29.48C58.0849 30.52 58.6982 31.4133 59.4716 32.16C60.2449 32.9067 61.1516 33.4933 62.1916 33.92C63.2316 34.32 64.3516 34.52 65.5516 34.52ZM88.6422 10.36H98.0822C99.4422 10.36 100.682 10.5733 101.802 11C102.922 11.4 103.882 11.96 104.682 12.68C105.482 13.4 106.096 14.24 106.522 15.2C106.949 16.16 107.162 17.2 107.162 18.32C107.162 19.5467 106.962 20.68 106.562 21.72C106.162 22.7333 105.616 23.64 104.922 24.44C104.256 25.24 103.469 25.9067 102.562 26.44C101.656 26.9733 100.682 27.36 99.6422 27.6L99.5622 27.88L105.162 38.68L105.082 39H99.2022L93.6822 28.24H90.8822L88.9622 39H83.5622L88.6422 10.36ZM96.7622 23.28C98.2022 23.28 99.3889 22.92 100.322 22.2C101.256 21.4533 101.722 20.3333 101.722 18.84C101.722 17.8267 101.376 16.9867 100.682 16.32C100.016 15.6533 99.0822 15.32 97.8822 15.32H93.1222L91.7222 23.28H96.7622ZM136.087 10.68L123.607 22.6L132.127 38.68L132.047 39H125.727L119.287 26.72L115.247 30.6L113.767 39H108.367L113.447 10.36H118.847L116.687 22.48H117.007L129.487 10.36H136.167L136.087 10.68ZM175.361 10.36H180.761L176.561 33.88H188.721L187.801 39H170.281L175.361 10.36ZM196.728 10.36H202.128L197.048 39H191.648L196.728 10.36ZM207.9 10.36H226.06L225.14 15.48H212.38L211.14 22.44H222.62L221.74 27.56H210.26L208.22 39H202.82L207.9 10.36ZM231.205 39L235.365 15.48H227.365L228.285 10.36H249.685L248.765 15.48H240.765L236.605 39H231.205ZM291.55 39.64C290.35 39.64 289.217 39.4667 288.15 39.12C287.084 38.8 286.124 38.3067 285.27 37.64C284.417 36.9467 283.697 36.0933 283.11 35.08C282.524 34.0667 282.124 32.88 281.91 31.52L287.07 29.44C287.124 30.16 287.27 30.8267 287.51 31.44C287.75 32.0533 288.084 32.5867 288.51 33.04C288.937 33.4933 289.444 33.8533 290.03 34.12C290.644 34.3867 291.337 34.52 292.11 34.52C293.497 34.52 294.67 34.1867 295.63 33.52C296.59 32.8267 297.07 31.8933 297.07 30.72C297.07 29.7333 296.724 28.9067 296.03 28.24C295.337 27.5733 294.137 26.9067 292.43 26.24L291.03 25.68C290.257 25.3867 289.51 25.0267 288.79 24.6C288.097 24.1467 287.484 23.6133 286.95 23C286.417 22.3867 285.99 21.68 285.67 20.88C285.35 20.0533 285.19 19.12 285.19 18.08C285.19 16.88 285.444 15.7733 285.95 14.76C286.484 13.72 287.204 12.84 288.11 12.12C289.017 11.3733 290.084 10.7867 291.31 10.36C292.564 9.93333 293.91 9.72 295.35 9.72C296.817 9.72 298.07 9.92 299.11 10.32C300.15 10.72 301.004 11.2267 301.67 11.84C302.364 12.4533 302.897 13.12 303.27 13.84C303.644 14.5333 303.897 15.2 304.03 15.84L299.07 17.72C298.884 16.8667 298.444 16.1467 297.75 15.56C297.084 14.9733 296.097 14.68 294.79 14.68C294.257 14.68 293.737 14.76 293.23 14.92C292.724 15.0533 292.27 15.2533 291.87 15.52C291.47 15.7867 291.15 16.12 290.91 16.52C290.67 16.92 290.55 17.3733 290.55 17.88C290.55 18.76 290.87 19.4933 291.51 20.08C292.177 20.64 293.19 21.1733 294.55 21.68L296.23 22.28C298.15 23 299.67 23.9733 300.79 25.2C301.937 26.4267 302.51 28.0667 302.51 30.12C302.51 31.5067 302.244 32.7867 301.71 33.96C301.177 35.1067 300.43 36.1067 299.47 36.96C298.51 37.7867 297.35 38.44 295.99 38.92C294.657 39.4 293.177 39.64 291.55 39.64ZM331.638 34.48C330.731 35.4133 329.825 36.2 328.918 36.84C328.011 37.48 327.065 38.0133 326.078 38.44C325.091 38.8667 324.038 39.1733 322.918 39.36C321.798 39.5467 320.585 39.64 319.278 39.64C317.465 39.64 315.771 39.3333 314.198 38.72C312.625 38.1067 311.251 37.2267 310.078 36.08C308.905 34.9333 307.971 33.5467 307.278 31.92C306.611 30.2667 306.278 28.4133 306.278 26.36C306.278 24.12 306.705 22 307.558 20C308.411 17.9733 309.598 16.2 311.118 14.68C312.638 13.16 314.451 11.96 316.558 11.08C318.665 10.1733 320.985 9.72 323.518 9.72C325.945 9.72 328.025 10.16 329.758 11.04C331.491 11.92 332.878 13.12 333.918 14.64L329.598 18.16C328.825 17.12 327.905 16.3067 326.838 15.72C325.771 15.1333 324.425 14.84 322.798 14.84C321.278 14.84 319.851 15.1333 318.518 15.72C317.185 16.3067 316.011 17.1067 314.998 18.12C313.985 19.1333 313.185 20.32 312.598 21.68C312.011 23.04 311.718 24.5067 311.718 26.08C311.718 27.36 311.918 28.52 312.318 29.56C312.745 30.6 313.318 31.4933 314.038 32.24C314.758 32.96 315.611 33.52 316.598 33.92C317.585 34.32 318.665 34.52 319.838 34.52C321.545 34.52 323.065 34.1733 324.398 33.48C325.731 32.76 326.998 31.8 328.198 30.6L331.638 34.48ZM348.013 10.36H354.333L360.053 39H354.293L353.053 32.16H342.133L338.533 39H332.413L348.013 10.36ZM352.133 27.2L350.813 20L350.413 16.56H350.093L348.493 20L344.693 27.2H352.133ZM368.486 10.36H373.886L369.686 33.88H381.846L380.926 39H363.406L368.486 10.36ZM394.333 15.48L393.173 22.12H404.653L403.733 27.24H392.253L391.053 33.88H403.853L402.933 39H384.773L389.853 10.36H408.013L407.093 15.48H394.333ZM458.673 23.28H472.713V24.48C472.713 26.7733 472.26 28.88 471.353 30.8C470.473 32.72 469.313 34.3333 467.873 35.64C466.46 36.92 464.82 37.9067 462.953 38.6C461.113 39.2933 459.14 39.64 457.033 39.64C454.98 39.64 453.1 39.3067 451.393 38.64C449.713 37.9733 448.26 37.04 447.033 35.84C445.833 34.64 444.886 33.2133 444.193 31.56C443.526 29.88 443.193 28.04 443.193 26.04C443.193 23.88 443.606 21.8133 444.433 19.84C445.26 17.8667 446.433 16.1333 447.953 14.64C449.473 13.1467 451.286 11.96 453.393 11.08C455.526 10.1733 457.9 9.72 460.513 9.72C462.913 9.72 465.02 10.1467 466.833 11C468.646 11.8267 470.113 12.96 471.233 14.4L466.953 18.04C466.286 17.1067 465.353 16.3467 464.153 15.76C462.953 15.1467 461.54 14.84 459.913 14.84C458.366 14.84 456.9 15.1067 455.513 15.64C454.153 16.1467 452.966 16.88 451.953 17.84C450.94 18.8 450.126 19.96 449.513 21.32C448.926 22.6533 448.633 24.1467 448.633 25.8C448.633 27.16 448.846 28.3867 449.273 29.48C449.726 30.5467 450.34 31.4533 451.113 32.2C451.913 32.9467 452.833 33.52 453.873 33.92C454.94 34.32 456.086 34.52 457.313 34.52C460.033 34.52 462.26 33.76 463.993 32.24C464.633 31.7067 465.166 31.08 465.593 30.36C466.02 29.6133 466.38 28.7867 466.673 27.88H457.873L458.673 23.28ZM479.736 10.36H489.176C490.536 10.36 491.776 10.5733 492.896 11C494.016 11.4 494.976 11.96 495.776 12.68C496.576 13.4 497.189 14.24 497.616 15.2C498.043 16.16 498.256 17.2 498.256 18.32C498.256 19.5467 498.056 20.68 497.656 21.72C497.256 22.7333 496.709 23.64 496.016 24.44C495.349 25.24 494.563 25.9067 493.656 26.44C492.749 26.9733 491.776 27.36 490.736 27.6L490.656 27.88L496.256 38.68L496.176 39H490.296L484.776 28.24H481.976L480.056 39H474.656L479.736 10.36ZM487.856 23.28C489.296 23.28 490.483 22.92 491.416 22.2C492.349 21.4533 492.816 20.3333 492.816 18.84C492.816 17.8267 492.469 16.9867 491.776 16.32C491.109 15.6533 490.176 15.32 488.976 15.32H484.216L482.816 23.28H487.856ZM512.701 10.36H519.021L524.741 39H518.981L517.741 32.16H506.821L503.221 39H497.101L512.701 10.36ZM516.821 27.2L515.501 20L515.101 16.56H514.781L513.181 20L509.381 27.2H516.821ZM533.173 10.36H542.293C544.4 10.36 546.267 10.68 547.893 11.32C549.52 11.9333 550.88 12.8 551.973 13.92C553.067 15.0133 553.893 16.3333 554.453 17.88C555.013 19.4 555.293 21.08 555.293 22.92C555.293 25.0533 554.893 27.0933 554.093 29.04C553.32 30.96 552.187 32.6667 550.693 34.16C549.227 35.6267 547.44 36.8 545.333 37.68C543.227 38.56 540.84 39 538.173 39H528.093L533.173 10.36ZM538.453 33.88C540.16 33.88 541.72 33.6133 543.133 33.08C544.547 32.5467 545.747 31.8133 546.733 30.88C547.747 29.9467 548.52 28.8533 549.053 27.6C549.613 26.3467 549.893 24.9867 549.893 23.52C549.893 20.9333 549.213 18.9467 547.853 17.56C546.52 16.1733 544.48 15.48 541.733 15.48H537.653L534.373 33.88H538.453ZM566.403 15.48L565.243 22.12H576.723L575.803 27.24H564.323L563.123 33.88H575.923L575.003 39H556.843L561.923 10.36H580.083L579.163 15.48H566.403Z" fill="#33FF00"/>
</g>
<defs>
<clipPath id="clip0_194_957">
<rect width="147" height="49" fill="white"/>
</clipPath>
</defs>
</svg>
